<?xml version="1.0" standalone="no"?>
<!DOCTYPE svg PUBLIC "-//W3C//DTD SVG 1.1//EN" "http://www.w3.org/Graphics/SVG/1.1/DTD/svg11.dtd" >
<svg>
<metadata>
Created by FontForge 20090914 at Wed Jul 24 11:41:02 2019
 By www-data
Copyright &#226;&#128;&#144; Pushpananda Ekanayaka 1998
</metadata>
<defs>
<font id="FMBasurux" horiz-adv-x="580" >
  <font-face 
    font-family="FMBasuru"
    font-weight="400"
    font-stretch="normal"
    units-per-em="1000"
    panose-1="0 0 4 0 0 0 0 0 0 0"
    ascent="800"
    descent="-200"
    x-height="433"
    cap-height="501.997"
    bbox="-573.042 -194.993 1310 864"
    underline-thickness="24"
    underline-position="-188"
    unicode-range="U+0020-U+F002"
  />
<missing-glyph horiz-adv-x="500" 
d="M63 0v739h375v-739h-375zM125 63h250v614h-250v-614z" />
    <glyph glyph-name=".notdef" horiz-adv-x="500" 
d="M63 0v739h375v-739h-375zM125 63h250v614h-250v-614z" />
    <glyph glyph-name="space" unicode=" " horiz-adv-x="300" 
 />
    <glyph glyph-name="exclam" unicode="!" horiz-adv-x="362" 
d="M26 497l116.001 -0.000976562c-18 -28.667 -27 -72 -27 -130c0 -28 4 -41.333 12 -40c6 0.666992 9 10 9 28v16c-0.666992 7.33301 -1 13.333 -1 18c0 75.333 33.333 113 100 113c71.333 0 107 -86.667 107 -260c0 -65.333 -14.333 -119.666 -43 -162.999
c-30 -46 -71.333 -72 -124 -78c-12 -1.33301 -23.667 -2 -35 -2c-46 0 -85 10.333 -117 31v132c26.667 -28.667 63 -40.334 109 -35.001c45.333 5.33301 69.666 43 72.999 113c1.33301 32 0.333008 61 -3 87c-4.66699 28.667 -11 41 -19 37
c-4.66699 -2.66699 -7 -10.334 -7 -23.001c0 -5.33301 0.5 -15.166 1.5 -29.499s1.5 -25.5 1.5 -33.5c0 -58 -24.667 -90 -74 -96c-63.333 -7.33301 -95 52.334 -95 179.001c0 56.667 5.33301 102 16 136z" />
    <glyph glyph-name="quotedbl" unicode="&#x22;" horiz-adv-x="199" 
d="M20 125h141.999c16.667 -30.667 21.667 -69.667 15 -117c-8 -54 -26.667 -93 -56 -117h-102c13.333 12.667 24.333 31 33 55s12.334 47.667 11.001 71c-2 42.667 -16.333 78.667 -43 108z" />
    <glyph glyph-name="numbersign" unicode="#" horiz-adv-x="218" 
d="M30 421c18.667 23.333 43 35.001 73 35.001c22 0 41.667 -6.66699 59 -20c24 -18.667 36 -43.334 36 -74.001c0 -21.333 -6.33301 -40.333 -19 -57c-18.667 -24.667 -43.667 -37 -75 -37c-22 0 -41.333 6.66699 -58 20c-24 19.333 -36 44.333 -36 75
c0 22 6.66699 41.333 20 58zM81 360.001c0 -8 2.5 -14 7.5 -18s11.167 -5.66699 18.5 -5s12.833 3.33398 16.5 8.00098s5.5 10 5.5 16c0 8 -2.66699 14.167 -8 18.5s-11.333 6.16602 -18 5.49902c-7.33301 0 -13 -2.33301 -17 -7s-5.66699 -10.667 -5 -18zM30 194.001
c18.667 23.333 42.999 35.001 72.999 35.001c22 0 41.667 -6.66699 59 -20c24 -18.667 36 -43.667 36 -75c0 -20.667 -6.33301 -39.334 -19 -56.001c-18.667 -24 -43.667 -36 -75 -36c-21.333 0 -40.666 6.66699 -57.999 20c-24 19.333 -36 44.333 -36 75
c0 21.333 6.66699 40.333 20 57zM80.999 135.002c0 -8 2.66699 -14.167 8 -18.5s11.333 -6.16602 18 -5.49902c7.33301 0 13 2.33301 17 7s5.66699 10.667 5 18c0 8 -2.5 14 -7.5 18s-11.167 5.66699 -18.5 5s-12.833 -3.33398 -16.5 -8.00098s-5.5 -10 -5.5 -16z" />
    <glyph glyph-name="dollar" unicode="$" horiz-adv-x="360" 
d="M217 643h126l-202 -645h-129z" />
    <glyph glyph-name="percent" unicode="%" horiz-adv-x="8" 
d="M-571 -7l133.999 -0.000976562c-0.666992 -18.667 13.666 -33.667 42.999 -45c25.333 -9.33301 57 -14 95 -14c36.667 0 67.667 4.66699 93 14c28.667 11.333 42.667 26.333 42 45h136c4.66699 -21.333 0.333984 -46 -12.999 -74c-34.667 -70 -120 -105 -256 -105
c-144.667 0 -232.667 35 -264 105c-11.333 24.667 -14.666 49.334 -9.99902 74.001z" />
    <glyph glyph-name="ampersand" unicode="&#x26;" horiz-adv-x="276" 
d="M12 618h134.001c72.667 -83.333 109 -182.666 109 -297.999c0 -122.667 -36.333 -233.334 -109 -332.001h-134c37.333 56 64.666 107.333 81.999 154c20.667 56 31 116 31 180c0 56 -9 106.667 -27 152c-16 38.667 -44.667 86.667 -86 144z" />
    <glyph glyph-name="quotesingle" unicode="'" horiz-adv-x="189" 
d="M26 124c16 21.333 37.333 32 64 32c17.333 0 33 -5 47 -15c21.333 -16 32 -37.333 32 -64c0 -17.333 -5 -33 -15 -47c-16 -21.333 -37.333 -32 -64 -32c-17.333 0 -33 5 -47 15c-21.333 16 -32 37.333 -32 64c0 17.333 5 33 15 47z" />
    <glyph glyph-name="parenleft" unicode="(" horiz-adv-x="178" 
d="M28 393c15.333 17.333 34 26 56 26c18 0 34 -6 48 -18c17.333 -15.333 26 -34 26 -56c0 -18 -6 -34 -18 -48c-15.333 -17.333 -34 -26 -56 -26c-18 0 -34 6 -48 18c-17.333 15.333 -26 34 -26 56c0 18 6 34 18 48zM28 193c15.333 17.333 34 26 56 26c18 0 34 -6 48 -18
c17.333 -15.333 26 -34 26 -56c0 -18 -6 -34 -18 -48c-15.333 -17.333 -34 -26 -56 -26c-18 0 -34 6 -48 18c-17.333 15.333 -26 34 -26 56c0 18 6 34 18 48z" />
    <glyph glyph-name="parenright" unicode=")" horiz-adv-x="307" 
d="M283 511l-64 -40l64 -42l-32 -54l-65 37v-76h-67v79l-68 -40l-32 57l68 37l-68 42l32 54l68 -40v80h67v-77l65 37z" />
    <glyph glyph-name="asterisk" unicode="*" horiz-adv-x="581" 
d="M248 1l0.00195312 118c-33.333 0 -57.666 7 -72.999 21c-19.333 17.333 -29 47 -29 89c0 90 14.333 135.667 43 137c16 0.666992 26.333 -16.333 31 -51c2.66699 -21.333 3.66699 -58.333 3 -111h112c1.33301 63.333 2.33301 98 3 104c4 38.667 16 58.334 36 59.001
c18 0.666992 29.667 -14.333 35 -45c3.33301 -18 5 -50.667 5 -98c0 -39.333 -8.66699 -67 -26 -83c-14.667 -14.667 -38.667 -21.667 -72 -21v-119c14 -1.33301 27.333 -2 40 -2c135.333 0 203.666 78.667 204.999 236c0.666992 82.667 -7.66602 144.334 -24.999 185.001
c-24 55.333 -66.667 82.666 -128 81.999c-34.667 -0.666992 -61.334 -6.5 -80.001 -17.5s-33.334 -29.5 -44.001 -55.5c-10.667 28.667 -22.334 47.667 -35.001 57c-14.667 11.333 -39.667 16.666 -75 15.999c-66.667 -0.666992 -112.667 -31 -138 -91
c-17.333 -40 -26 -97.667 -26 -173c0 -79.333 14.667 -138.333 44 -177c32 -41.333 82.333 -62 151 -62c14 0 28.333 0.666992 43 2z" />
    <glyph glyph-name="plus" unicode="+" horiz-adv-x="8" 
d="M-54 89l25 -0.00195312v-40l-91 -59h91v-47c-19.333 1.33301 -36.833 -1.83398 -52.5 -9.50098s-22.167 -17.167 -19.5 -28.5c2.66699 -10 13 -15 31 -15c15.333 0 29 5 41 15v-75c-28 -10.667 -58 -16 -90 -16c-60 0 -95.333 15 -106 45c-2 5.33301 -3 11 -3 17
c0 12.667 4.66699 24.334 14 35.001s19 17.334 29 20.001h-51v38l51 28c56 6.66699 99.667 37.334 131 92.001z" />
    <glyph glyph-name="comma" unicode="," horiz-adv-x="582" 
d="M184 322h202.002v-84h-20c-11.333 0 -20.666 -4.66699 -27.999 -14s-11.333 -20.333 -12 -33c-1.33301 -36.667 14 -55 46 -55c42 0 62.667 30.333 62 91c-0.666992 55.333 -14.334 95 -41.001 119c-24 21.333 -60 32 -108 32c-90.667 0 -137.667 -65.333 -141 -196
c-2 -66.667 11.167 -118.334 39.5 -155.001s70.166 -56 125.499 -58c50 -1.33301 87 14.334 111 47.001h128c-5.33301 -55.333 -33.333 -99 -84 -131c-48 -30 -107 -44 -177 -42c-92 2.66699 -162 33.667 -210 93c-44.667 56 -67 132.667 -67 230c0 224 94 336 282 336
c178.667 0 268.667 -93 270 -279c0.666992 -140.667 -63.333 -212 -192 -214c-116 -2 -175 46.667 -177 146c-0.666992 29.333 6.66602 57 21.999 83h-31v84z" />
    <glyph glyph-name="hyphen" unicode="-" horiz-adv-x="312" 
d="M23 307h266v-117h-266v117z" />
    <glyph glyph-name="hyphen" unicode="&#x2010;" horiz-adv-x="312" 
d="M23 307h266v-117h-266v117z" />
    <glyph glyph-name="period" unicode="." horiz-adv-x="612" 
d="M392 126v-119.999c12.667 -4 25.667 -6 39 -6c44 0 81.667 21.167 113 63.5s47.333 98.5 48 168.5c1.33301 180 -62.334 270 -191.001 270c-46 0 -81.667 -7 -107 -21c-27.333 -15.333 -48.666 -38.666 -63.999 -69.999c-22 -45.333 -30 -109.333 -24 -192
c4.66699 0.666992 9 1 13 1c24 0 36.333 -15.333 37 -46c0.666992 -13.333 -3.66602 -24.666 -12.999 -33.999s-20.333 -14 -33 -14c-16 0 -30 7.83301 -42 23.5s-19.333 36.5 -22 62.5c-6 63.333 -0.666992 108.666 16 135.999c13.333 21.333 31.333 32 54 32v119
c-10 2 -20 3 -30 3c-38.667 0 -70.667 -11 -96 -33c-53.333 -45.333 -80 -123 -80 -233c0 -72.667 17.667 -130 53 -172s78.333 -64.333 129 -67c79.333 -4 135.333 18 168 66c22.667 33.333 34 72.333 34 117c0 29.333 -5.66699 55.666 -17 78.999
c-13.333 27.333 -29.333 43.666 -48 48.999c2.66699 48 22.667 71 60 69c19.333 -0.666992 34.666 -10 45.999 -28c14 -23.333 21 -59.333 21 -108c0 -82.667 -21.333 -121 -64 -115z" />
    <glyph glyph-name="slash" unicode="/" horiz-adv-x="737" 
d="M428 660l289.001 -0.000976562v-103c-48 -90 -76 -174.667 -84 -254c-7.33301 -71.333 -6 -118.666 4 -141.999c6.66699 -16.667 19 -25 37 -25c15.333 0 29.666 6.33301 42.999 19v-135c-22.667 -18.667 -60.667 -26 -114 -22c-40 2.66699 -69.333 31.334 -88 86.001
c-13.333 39.333 -20 85.666 -20 138.999c0 20 1 39.667 3 59c6.66699 64.667 17 116.667 31 156l22 60c8 19.333 17.333 37.333 28 54h-151v108zM144.001 509.999c25.333 18 39.6689 28.333 43.002 31c17.333 13.333 31.166 26.833 41.499 40.5s23.5 39.834 39.5 78.501h142
c-6.66699 -30.667 -18 -60 -34 -88c-14 -24.667 -34.333 -46.667 -61 -66c6 -0.666992 15 -2.33398 27 -5.00098c54 -12 93.667 -45 119 -99c20 -43.333 29.667 -96 29 -158c-1.33301 -77.333 -21.333 -137.333 -60 -180c-40.667 -45.333 -100.334 -68 -179.001 -68
c-159.333 0 -239.666 84.667 -240.999 254c-0.666992 85.333 20.666 151 63.999 197c26 27.333 49.333 48.333 70 63zM143.004 248.999c0.666992 -33.333 10.667 -61.333 30 -84s45 -34 77 -34c31.333 0 56 11.667 74 35c17.333 21.333 26 48 26 80
c0 84.667 -33.667 127 -101 127c-33.333 0 -59.5 -12 -78.5 -36s-28.167 -53.333 -27.5 -88z" />
    <glyph glyph-name="zero" unicode="0" horiz-adv-x="460" 
d="M10 303c0 216 73.334 324.001 220.001 324.001c84 0 142.667 -35.667 176 -107c22.667 -49.333 34 -120.333 34 -213c0 -90.667 -12.333 -160.334 -37 -209.001c-34.667 -67.333 -94.334 -101 -179.001 -101c-142.667 0 -214 102 -214 306zM154.001 298.001
c-0.666992 -45.333 4 -83.334 14 -114.001c12.667 -38.667 32 -57.667 58 -57c24.667 0.666992 43.667 19.334 57 56.001c10 30 15 66.667 15 110c0 138.667 -23.333 208 -70 208c-47.333 0 -72 -67.667 -74 -203z" />
    <glyph glyph-name="one" unicode="1" horiz-adv-x="232" 
d="M197 0h-134v481h-50v134h184v-615z" />
    <glyph glyph-name="two" unicode="2" horiz-adv-x="376" 
d="M356 452c0.666992 -53.333 -10 -106.667 -32 -160c-19.333 -48 -50 -105.333 -92 -172h110v-121h-333c62 96 113.333 187.667 154 275c33.333 72 49 127 47 165c-1.33301 21.333 -3 35 -5 41c-4 9.33301 -11.667 13.666 -23 12.999
c-8.66699 -0.666992 -16 -7.66699 -22 -21s-9 -28.666 -9 -45.999c0 -14 2 -26.667 6 -38h-132c-3.33301 14.667 -5.33301 29 -6 43c-1.33301 62 13 110 43 144c27.333 31.333 70 46.333 128 45c54.667 -1.33301 92.667 -11.666 114 -30.999
c34 -30.667 51.333 -76.334 52 -137.001z" />
    <glyph glyph-name="three" unicode="3" horiz-adv-x="383" 
d="M363 174c0.666992 -62.667 -18.6699 -110.667 -58.0029 -144c-26 -22 -69 -33 -129 -33c-54 0 -95.167 13.167 -123.5 39.5s-42.5 65.833 -42.5 118.5c0 13.333 1.33301 26 4 38h130c-1.33301 -6 -2 -11.667 -2 -17c0 -32.667 12.333 -49 37 -49c26.667 0 40 19 40 57
c0 28 -6.66699 48.333 -20 61c-15.333 14.667 -36.666 22 -63.999 22c-6 0 -11.333 -0.666992 -16 -2v111c58.667 5.33301 88 29.666 88 72.999c0 34.667 -11.333 52 -34 52s-34 -16 -34 -48h-123c-4.66699 62 12 107.667 50 137c30.667 23.333 66.334 35 107.001 35
c57.333 0 98.333 -10 123 -30c34.667 -28 52.667 -70.333 54 -127c0.666992 -34 -7 -64.167 -23 -90.5s-37.667 -43.833 -65 -52.5c38 -5.33301 65 -22.666 81 -51.999c12.667 -23.333 19.334 -56.333 20.001 -99z" />
    <glyph glyph-name="four" unicode="4" horiz-adv-x="401" 
d="M381 134h-43v-134h-128v134h-200v140l141 346h187v-356h43v-130zM210 264v218l-85 -218h85z" />
    <glyph glyph-name="five" unicode="5" horiz-adv-x="395" 
d="M375 220c0 -78.667 -21 -137.333 -63 -176c-34 -31.333 -86 -47 -156 -47c-53.333 0 -102 11.333 -146 34l16 134c22 -24 57 -36 105 -36c24.667 0 45.667 6.33301 63 19c20.667 15.333 31 37 31 65c0 54 -34.667 81 -104 81c-22 0 -50.333 -5.66699 -85 -17l44 347h269
v-117h-152l-13 -101c13.333 3.33301 27.333 5 42 5c45.333 0 80 -13.667 104 -41c30 -34.667 45 -84.667 45 -150z" />
    <glyph glyph-name="six" unicode="6" horiz-adv-x="383" 
d="M363 237c0 -73.333 -12.665 -130 -37.998 -170c-29.333 -46 -74.333 -69.333 -135 -70c-68.667 -0.666992 -116.334 20 -143.001 62c-24.667 39.333 -37 96 -37 170c0 82 10.667 153.667 32 215c25.333 72 58.666 131.667 99.999 179h154
c-30.667 -26 -55.667 -57.667 -75 -95c-21.333 -40 -37.333 -76.333 -48 -109c16 16 42 22.333 78 19c40 -3.33301 69.333 -25.333 88 -66c16 -35.333 24 -80.333 24 -135zM222.002 218c0 57.333 -11.998 86.667 -35.998 88c-24.667 1.33301 -38 -27 -40 -85
c-0.666992 -23.333 0.666016 -43 3.99902 -59c5.33301 -26.667 15.666 -39.667 30.999 -39c27.333 1.33301 41 33 41 95z" />
    <glyph glyph-name="seven" unicode="7" horiz-adv-x="391" 
d="M371 618l-206 -619h-150l170 502h-167v117h353z" />
    <glyph glyph-name="eight" unicode="8" horiz-adv-x="383" 
d="M363 177c0.666992 -63.333 -18.333 -112 -57 -146c-24 -21.333 -63.667 -32.666 -119 -33.999c-54.667 -1.33301 -96.334 12 -125.001 40c-34.667 33.333 -52 80.666 -52 141.999c0 36 4.66699 65 14 87c14.667 34.667 39 57.667 73 69c-28 11.333 -49 30.333 -63 57
c-10 20 -15.333 45 -16 75c-0.666992 57.333 17.333 101 54 131c25.333 20.667 63 31 113 31s87.333 -10 112 -30c36.667 -30 55 -73 55 -129c0 -33.333 -4 -58.333 -12 -75c-14.667 -30 -36.667 -50 -66 -60c32 -6.66699 56 -28.667 72 -66
c10.667 -19.333 16.334 -50 17.001 -92zM219 453c1.33301 48.667 -9.66699 73 -33 73s-35 -25 -35 -75c0 -46 11.667 -69 35 -69c20.667 0 31.667 23.667 33 71zM223 200c0 54 -12.667 80.999 -38 80.999c-10 0 -18.667 -7.16699 -26 -21.5s-11.333 -33.166 -12 -56.499
c-0.666992 -27.333 0 -46 2 -56c4.66699 -22.667 16.667 -34 36 -34c25.333 0 38 29 38 87z" />
    <glyph glyph-name="nine" unicode="9" horiz-adv-x="383" 
d="M10 386c0 74 12.665 130.665 37.998 169.998c29.333 46 74.333 69.333 135 70c68.667 0.666992 116.334 -20.333 143.001 -63c24.667 -39.333 37 -95.666 37 -168.999c0 -82 -10.667 -153.667 -32 -215c-25.333 -72 -58.666 -131.667 -99.999 -179h-154
c30 24.667 55 56.334 75 95.001c22 42 38 78.333 48 109c-16 -16 -42 -22.333 -78 -19c-40 3.33301 -69.333 25.333 -88 66c-16 35.333 -24 80.333 -24 135zM150.998 404.998c0 -57.333 11.999 -86.665 35.999 -87.998c25.333 -1.33301 38.333 27 39 85
c0.666992 27.333 -0.666016 48.666 -3.99902 63.999c-5.33301 23.333 -15.333 34.666 -30 33.999c-27.333 -1.33301 -41 -33 -41 -95z" />
    <glyph glyph-name="colon" unicode=":" horiz-adv-x="579" 
d="M138 652v-109.999c8 2 15.333 3 22 3c16.667 0 30.667 -8 42 -24c26 -35.333 40 -54 42 -56c22.667 -24 52 -36 88 -36c24.667 0 44 6 58 18c20.667 -28.667 31 -70.667 31 -126c0 -60 -14 -107 -42 -141c-25.333 -30.667 -57.666 -46.667 -96.999 -48
c-87.333 -2.66699 -131 30.666 -131 99.999c0 46 24.333 69 73 69h54v123h-86c-50 0 -90.333 -13.667 -121 -41c-43.333 -38.667 -63.333 -95.667 -60 -171c3.33301 -68 27 -120 71 -156c47.333 -39.333 115.333 -58.333 204 -57c182 2 273 109.667 273 323
c0 106.667 -28.333 188.667 -85 246c-46 47.333 -105.333 74.333 -178 81c-60.667 6 -113.334 7 -158.001 3zM273 539.001c36 0 65.333 -11.333 88 -34c-7.33301 -12 -17.666 -18 -30.999 -18c-4.66699 0 -9.33398 1 -14.001 3c-8 3.33301 -15.5 11 -22.5 23
s-13.833 20.667 -20.5 26z" />
    <glyph glyph-name="semicolon" unicode=";" horiz-adv-x="606" 
d="M24 345l0.00195312 135.997c21.333 12.667 54 19.667 98 21c19.333 0.666992 37.166 -3.66602 53.499 -12.999s27.5 -20.666 33.5 -33.999c31.333 22.667 65.333 37.334 102 44.001c53.333 10 102.666 7.33301 147.999 -8c84.667 -29.333 127 -113 127 -251
c0 -74.667 -16.667 -133.667 -50 -177s-75.333 -65 -126 -65c-10 0 -20.333 1 -31 3v127c22 -1.33301 39.833 7.16699 53.5 25.5s20.5 44.166 20.5 77.499c0 82.667 -22.333 130.334 -67 143.001c-10.667 3.33301 -21.667 5 -33 5c-19.333 0 -38.333 -4.66699 -57 -14
c28 -7.33301 50 -25.5 66 -54.5s24 -65.833 24 -110.5c0 -103.333 -32 -166 -96 -188c-28 -9.33301 -57 -14.333 -87 -15c-72 -0.666992 -121.333 12 -148 38c-17.333 16.667 -27.666 35 -30.999 55c-4 23.333 -0.666992 45 10 65h-24v116l105 101
c-3.33301 2.66699 -9 4 -17 4c-28.667 0 -53.334 -10.333 -74.001 -31zM126.002 212.997l23.0029 -0.000976562c-6.66699 -10.667 -10 -22.667 -10 -36c0 -18 5.33301 -30.333 16 -37c13.333 -8 25.666 -12 36.999 -12c8 0 16 1.33301 24 4c26 8.66699 38.667 33.667 38 75
c-0.666992 22 -5.83398 40 -15.501 54s-19.5 20.333 -29.5 19c-8.66699 -1.33301 -23.334 -10.666 -44.001 -27.999c-14.667 -12.667 -27.667 -25.667 -39 -39z" />
    <glyph glyph-name="less" unicode="&#x3c;" horiz-adv-x="576" 
d="M205 340l71 -0.000976562c1.33301 28.667 -9.66699 43 -33 43c-26 0 -39 -11 -39 -33c0 -3.33301 0.333008 -6.66602 1 -9.99902zM348 339.999h74.999c1.33301 12.667 -1.66699 23 -9 31s-17.666 11.667 -30.999 11c-26 -0.666992 -37.667 -14.667 -35 -42z
M476.999 75.999l103.001 -0.000976562c-2.66699 -74 -29.667 -132 -81 -174c-48.667 -40 -113 -60 -193 -60c-64.667 0 -117.667 10 -159 30c-35.333 17.333 -66 45 -92 83c-30 44 -45 104 -45 180c0 40 5.33301 78 16 114s23.667 61 39 75
c-2.66699 57.333 9.33301 101.333 36 132s65.667 46 117 46c30 0 52 -3.66699 66 -11c12 -6 22.333 -18 31 -36c19.333 34.667 59.666 50.334 120.999 47.001c80 -4 120 -74.667 120 -212c0 -18.667 -1 -37 -3 -55h-340c20 -49.333 61.333 -72 124 -68c30 2 52.667 14 68 36
h141c-4 -22.667 -14 -47.667 -30 -75c-14 -24 -27 -41.333 -39 -52zM339 24.998c-98.667 -2.66699 -166.666 31.001 -203.999 101.001c18 -94.667 76.333 -144.334 175 -149.001c59.333 -2.66699 100.666 21.333 123.999 72c-31.333 -15.333 -63 -23.333 -95 -24z" />
    <glyph glyph-name="equal" unicode="=" horiz-adv-x="8" 
d="M-220 3l-0.000976562 96.002c-1.33301 -4 -10.666 -24 -27.999 -60c-8.66699 -18 -13 -38.667 -13 -62c0 -54.667 24.333 -92.334 73 -113.001c14.667 -6 34.334 -9 59.001 -9c41.333 0 78 7 110 21v132c-17.333 -16.667 -41 -27.334 -71 -32.001
c-10.667 -2 -20.334 -1 -29.001 3s-13 10.333 -13 19c0 5.33301 2 11.333 6 18c-27.333 -10 -51 -15 -71 -15c-7.33301 0 -15 0.666992 -23 2z" />
    <glyph glyph-name="greater" unicode="&#x3e;" horiz-adv-x="592" 
d="M289 133c1.33301 4.66699 4.66797 10.334 10.001 17.001s8 13 8 19c0 14 -5.66699 21 -17 21c-12.667 0 -19 -6.33301 -19 -19c0 -7.33301 2.66699 -14.333 8 -21s8.66602 -12.334 9.99902 -17.001zM377.002 125c37.333 0 56 18.668 56 56.001c0 42.667 -14 64 -42 64
h-185c-38 0 -57 -20.333 -57 -61c0 -16 5 -29.667 15 -41s23.667 -17 41 -17c15.333 0 22.333 5.33301 21 16c0 0.666992 -4.83301 5.66699 -14.5 15s-14.5 20.666 -14.5 33.999c0 30 30.667 45 92 45c58.667 0 88 -15 88 -45c0 -12.667 -5.33301 -22.667 -16 -30
s-16 -12 -16 -14c0 -14.667 10.667 -22 32 -22zM230.002 343.001c2.66699 29.333 -22.668 43.998 -76.001 43.998c-10 0 -20 -0.666992 -30 -2c-35.333 -4.66699 -65.666 -14.334 -90.999 -29.001v113c25.333 20 64.666 31 117.999 33c67.333 2 114.333 -10.333 141 -37
c29.333 24.667 76.333 37 141 37c54.667 0 94.667 -10.667 120 -32v-114c-20 14.667 -49.333 24.334 -88 29.001c-11.333 1.33301 -23 2 -35 2c-56.667 0 -83.667 -14.333 -81 -43h78c41.333 0 75 -15 101 -45c26.667 -32 40 -75 40 -129
c0 -46.667 -15.667 -86.834 -47 -120.501s-64 -50.5 -98 -50.5c-39.333 0 -66 1.66699 -80 5c-23.333 4.66699 -41.666 16.334 -54.999 35.001c-18 -27.333 -64.333 -40.666 -139 -39.999c-35.333 0 -67.333 15.333 -96 46s-43 66.334 -43 107.001
c0 51.333 13.333 84.333 40 99h-51v92h231z" />
    <glyph glyph-name="question" unicode="?" horiz-adv-x="737" 
d="M428 659l289 -0.00195312v-102l-82 -63h82v-102c-42.667 -36 -69.667 -82 -81 -138c-5.33301 -25.333 -8 -46.666 -8 -63.999c0 -40 13 -60 39 -60c13.333 0 30 8.33301 50 25v-135c-32 -18.667 -70 -26 -114 -22c-75.333 6.66699 -113 64.334 -113 173.001
c0 18.667 1 38.667 3 60c6.66699 64.667 28 116 64 154h-79v107l76 59h-126v108zM144 509.998c25.333 18 39.6689 28.335 43.002 31.002c17.333 13.333 31 26.666 41 39.999s23.333 39.333 40 78h142c-6.66699 -30.667 -17.834 -59.334 -33.501 -86.001
s-36.167 -49.334 -61.5 -68.001c10 -0.666992 19 -2 27 -4c65.333 -14.667 109.333 -59.667 132 -135c11.333 -38 16.666 -78.667 15.999 -122c-1.33301 -77.333 -21.333 -137.333 -60 -180c-41.333 -45.333 -101 -68 -179 -68c-159.333 0 -239.666 84.667 -240.999 254
c-0.666992 84.667 20.666 150.334 63.999 197.001c24.667 26.667 48 47.667 70 63zM143.003 249c0.666992 -34 10.667 -62.167 30 -84.5s45 -33.5 77 -33.5c31.333 0 55.833 11 73.5 33s26.5 49 26.5 81c0 85.333 -33.667 128 -101 128c-33.333 0 -59.5 -12 -78.5 -36
s-28.167 -53.333 -27.5 -88z" />
    <glyph glyph-name="at" unicode="@" horiz-adv-x="391" 
d="M176 443l0.000976562 -94.998c-14 -10.667 -32.667 -16.334 -56 -17.001c-28 -0.666992 -52.667 8.66602 -74 27.999c-26 23.333 -38 56.666 -36 99.999c4 103.333 63.333 155 178 155c128.667 0 189.334 -67.667 182.001 -203c-3.33301 -56.667 -34 -109.667 -92 -159
c-18.667 -16 -34.167 -34.167 -46.5 -54.5s-17.166 -36.833 -14.499 -49.5c-21.333 14.667 -43 22 -65 22c-24.667 0 -46.334 -8.66699 -65.001 -26c-0.666992 4.66699 -1 9.66699 -1 15c0 21.333 6.66699 45 20 71c11.333 20.667 22.666 36 33.999 46
c66 58 101.333 100.333 106 127c2 12.667 3 24.334 3 35.001c0 46 -23.333 68 -70 66c-16 -0.666992 -28.833 -5.66699 -38.5 -15s-13.834 -21.333 -12.501 -36c0.666992 -14 8 -21 22 -21c9.33301 0 18 3.66699 26 11zM93.001 129.002c15.333 18.667 35.333 28 60 28
c19.333 0 36.333 -6.33301 51 -19c18.667 -15.333 28 -35.333 28 -60c0 -19.333 -6.33301 -36.666 -19 -51.999c-15.333 -18.667 -35.333 -28 -60 -28c-19.333 0 -36.333 6.33301 -51 19c-18.667 15.333 -28 35.666 -28 60.999c0 19.333 6.33301 36.333 19 51z" />
    <glyph glyph-name="A" unicode="A" horiz-adv-x="4" 
d="M-150 725h118.001v-319c-4 32 -17.667 67.333 -41 106c-24.667 42 -50.334 70 -77.001 84v129z" />
    <glyph glyph-name="B" unicode="B" horiz-adv-x="509" 
d="M223 583c10 13.333 23 39 39 77h142c-6.66699 -31.333 -18 -60.333 -34 -87s-35 -49 -57 -67l29 -4c64.667 -14.667 108.667 -59.667 132 -135c10.667 -34.667 15.667 -75.667 15 -123c-1.33301 -77.333 -21.333 -137 -60 -179c-40.667 -45.333 -100 -68 -178 -68
c-160 0 -240.333 84.667 -241 254c-0.666992 88.667 20.666 156 63.999 202c12.667 13.333 38.334 34.333 77.001 63c33.333 24.667 57.333 47 72 67zM40 653c14.667 13.333 34.666 20 59.999 20c24 0 42.333 -6 55 -18c17.333 -15.333 26 -36.333 26 -63
c0 -23.333 -7 -42 -21 -56c-5.33301 -6.66699 -14 -12 -26 -16s-24.333 -6 -37 -6c-23.333 0 -41.666 5.33301 -54.999 16c-18 14 -27 34.333 -27 61c0 26 8.33301 46.667 25 62zM79.999 614c-5.33301 -4.66699 -8.33496 -10.999 -9.00195 -18.999s1.33301 -14.667 6 -20
s11.334 -8 20.001 -8c8 -0.666992 14.667 1.66602 20 6.99902c12 12 12 24.667 0 38c-11.333 13.333 -23.666 14 -36.999 2zM414.997 619.001c14 12.667 33.666 18.999 58.999 18.999c24 0 42.667 -6 56 -18c16.667 -15.333 25 -35.666 25 -60.999c0 -24 -7 -43 -21 -57
c-4.66699 -6 -13.167 -11.167 -25.5 -15.5s-24.833 -6.5 -37.5 -6.5c-23.333 0 -41.666 5.33301 -54.999 16c-18 14 -27 34.333 -27 61c0 25.333 8.66699 46 26 62zM453.996 580c-5.33301 -4.66699 -8.33301 -11.333 -9 -20c-0.666992 -8 1.16602 -14.667 5.49902 -20
s11.166 -8 20.499 -8c8.66699 0 15.334 2.33301 20.001 7c12 11.333 12 24.333 0 39c-11.333 13.333 -23.666 14 -36.999 2zM143.996 249.001c0 -36.667 9.33301 -66.499 28 -89.499s44 -34.5 76 -34.5c31.333 0 56.166 11.667 74.499 35s27.5 51.666 27.5 84.999
c0 88 -33.667 132 -101 132c-33.333 0 -59.166 -12.167 -77.499 -36.5s-27.5 -54.833 -27.5 -91.5z" />
    <glyph glyph-name="C" unicode="C" horiz-adv-x="428" 
d="M126 212l24.001 -0.000976562c-11.333 -15.333 -17 -32.666 -17 -51.999c0 -20 7.33301 -30 22 -30c13.333 0 20 14.667 20 44v38h72v-38c0 -28.667 5 -43 15 -43c19.333 0 27.666 24 24.999 72c-1.33301 24 -8.83301 45.667 -22.5 65s-27.5 29 -41.5 29
c-3.33301 0 -6.33301 -0.666992 -9 -2c-14.667 -8 -44 -35.667 -88 -83zM483.001 342.999c-22 17.333 -44.999 28.667 -68.999 34c-30 6.66699 -62 4.66699 -96 -6c25.333 -7.33301 47.333 -26.333 66 -57c20 -33.333 30.667 -71.333 32 -114
c1.33301 -54 -3.66699 -94.333 -15 -121c-20.667 -48.667 -50.334 -75 -89.001 -79c-8.66699 -0.666992 -16.334 -1 -23.001 -1c-39.333 0 -64.666 13.333 -75.999 40c-8 -16.667 -20.667 -27.667 -38 -33c-10.667 -3.33301 -28.334 -5.33301 -53.001 -6
c-31.333 -0.666992 -57.666 10.333 -78.999 33c-12.667 14 -20 33 -22 57c-2 28 2 49.333 12 64h-28v97c5.33301 8 22.333 27.667 51 59c6.66699 7.33301 26.334 27.333 59.001 60c-4 2.66699 -11 4 -21 4c-26.667 0 -50 -7.33301 -70 -22v122
c26.667 18.667 59.667 28 99 28c19.333 0 38.333 -5.66699 57 -17s30 -23 34 -35c37.333 25.333 74.666 41 111.999 47c61.333 10 112.333 7.66699 153 -7c34 -12.667 68.333 -34.667 103 -66c-44.667 -28 -77.667 -55 -99 -81z" />
    <glyph glyph-name="D" unicode="D" horiz-adv-x="325" 
d="M25 470c40.667 22 85.335 32.999 134.002 32.999c98.667 0 147.334 -69 146.001 -207c0 -22 -3.83301 -56 -11.5 -102s-11.5 -80.333 -11.5 -103c0 -34 6 -63.667 18 -89h-114c-6 10 -11.333 22.667 -16 38c-8.66699 -16 -17.334 -27 -26.001 -33
c-10.667 -6.66699 -26.334 -10 -47.001 -10c-30 0 -52.667 17.667 -68 53c-12 26.667 -18.333 61 -19 103c-2 114 36 174.667 114 182c21.333 2 42.666 -2.66699 63.999 -14c-2 42.667 -22.333 64.334 -61 65.001c-36 0.666992 -70 -12 -102 -38v122zM176.001 215.999
c-9.33301 10.667 -16.666 16 -21.999 16c-2.66699 0 -5.66699 -1 -9 -3c-11.333 -6.66699 -17 -27.667 -17 -63c0 -36 8.66699 -52.333 26 -49c9.33301 2 15.333 19.667 18 53c1.33301 10 2.66602 25.333 3.99902 46z" />
    <glyph glyph-name="E" unicode="E" horiz-adv-x="257" 
d="M16 479h220.999v-106l-67 -53h67v-91c-17.333 -1.33301 -34.666 -7.33301 -51.999 -18c-21.333 -12.667 -32.333 -28 -33 -46c-0.666992 -26.667 11.333 -40 36 -40c14.667 0 31 5.66699 49 17v-121c-21.333 -14.667 -52 -22 -92 -22c-26.667 0 -47 3 -61 9
c-26 11.333 -44.667 25.333 -56 42c-12.667 19.333 -18.667 47 -18 83c0.666992 40.667 20.667 70.667 60 90h-54v99l72 47h-72v110z" />
    <glyph glyph-name="F" unicode="F" horiz-adv-x="396" 
d="M126 213l23.0029 -0.000976562c-6.66699 -10.667 -10 -22.667 -10 -36c0 -18 5.33301 -30.333 16 -37c13.333 -8 25.666 -12 36.999 -12c8 0 16 1.33301 24 4c26 8.66699 38.667 33.667 38 75c-0.666992 22 -5.83398 40 -15.501 54s-19.5 20.333 -29.5 19
c-8.66699 -1.33301 -23.334 -10.666 -44.001 -27.999c-14.667 -12.667 -27.667 -25.667 -39 -39zM455.003 342.999c-19.333 18 -41.665 28.999 -66.998 32.999c-35.333 5.33301 -66 1.66602 -92 -11.001c28 -7.33301 50 -25.5 66 -54.5s24 -65.833 24 -110.5
c0 -103.333 -32 -166 -96 -188c-28 -9.33301 -57 -14.333 -87 -15c-72 -0.666992 -121.333 12 -148 38c-17.333 16.667 -27.666 35 -30.999 55c-4 23.333 -0.666992 45 10 65h-24v116l105 101c-3.33301 2.66699 -9 4 -17 4c-28.667 0 -53.334 -10.333 -74.001 -31v136
c21.333 12.667 54 19.667 98 21c19.333 0.666992 37.166 -3.66602 53.499 -12.999s27.5 -20.666 33.5 -33.999c31.333 22.667 65.333 37.334 102 44.001c53.333 10 102.666 7.33301 147.999 -8c31.333 -10.667 62.333 -31.334 93 -62.001c-40.667 -25.333 -73 -54 -97 -86z
" />
    <glyph glyph-name="G" unicode="G" 
d="M151 232c2 46 26.334 68.999 73.001 68.999h54v123h-86c-48.667 0 -88.334 -13.667 -119.001 -41c-42.667 -38 -63.667 -95 -63 -171c0.666992 -60 13.667 -109 39 -147c30 -44.667 73.333 -67 130 -67c54 0 87 15.667 99 47c8.66699 -14.667 24.667 -26.667 48 -36
s47.666 -13 72.999 -11c107.333 8.66699 161 101.334 161 278.001c0 14.667 -0.333008 30 -1 46c-5.33301 107.333 -35 189.333 -89 246c-44.667 47.333 -102.667 74.333 -174 81c-60.667 6 -113.334 7 -158.001 3v-110c8 2 15.333 3 22 3c16.667 0 30.667 -8 42 -24
c26 -35.333 40 -54 42 -56c22.667 -24 52 -36 88 -36c24.667 0 44 6 58 18c16.667 -35.333 26.334 -77.333 29.001 -126c1.33301 -18.667 2 -36.667 2 -54c0 -88.667 -14 -133.667 -42 -135c-17.333 -0.666992 -28.333 9.66602 -33 30.999
c-1.33301 8.66699 -2 33.334 -2 74.001h-112c0.666992 -40 0 -65 -2 -75c-4 -20.667 -15 -31 -33 -31c-33.333 0 -48.666 33.667 -45.999 101zM273.001 538.999c36 0 65.333 -11.333 88 -34c-7.33301 -12 -17.666 -18 -30.999 -18c-4.66699 0 -9.33398 1 -14.001 3
c-8 3.33301 -15.5 11 -22.5 23s-13.833 20.667 -20.5 26z" />
    <glyph glyph-name="H" unicode="H" horiz-adv-x="444" 
d="M23 363l-0.00195312 110.001c16 11.333 25.333 17.666 28 18.999c14 6 33.333 9.33301 58 10c30 0.666992 54.333 -15.333 73 -48c16.667 -29.333 25 -64.333 25 -105c0 -8.66699 -0.333008 -17 -1 -25c-5.33301 -51.333 -15.666 -110.333 -30.999 -177c6 2 12 3 18 3
c8.66699 0 19.5 -2.5 32.5 -7.5s22.167 -7.5 27.5 -7.5c18.667 0 28 12 28 36c0 13.333 -4.33301 25.666 -13 36.999c-20.667 26.667 -35 52 -43 76c-8 26.667 -12 61.334 -12 104.001c0 36.667 13 65.667 39 87c22 18.667 47 27.667 75 27
c30.667 -0.666992 56.667 -7 78 -19v-129c-12 13.333 -26.667 20 -44 20c-5.33301 0 -10 -0.666992 -14 -2c-6 -2.66699 -9 -10.667 -9 -24c0 -16.667 5.33301 -31.667 16 -45c27.333 -34.667 43.666 -56 48.999 -64c13.333 -22 20.333 -46.667 21 -74
c1.33301 -44.667 -7 -82 -25 -112c-21.333 -34.667 -53.333 -53 -96 -55c-21.333 -1.33301 -39.666 2.33398 -54.999 11.001l-35 20c-7.33301 2.66699 -15.666 4 -24.999 4c-28.667 0 -44.667 -9.33301 -48 -28h-130c11.333 34 26.666 89.333 45.999 166
c12.667 50 21.334 96.667 26.001 140c3.33301 33.333 0 52.333 -10 57c-14.667 7.33301 -31 5.66602 -49 -5.00098z" />
    <glyph glyph-name="I" unicode="I" horiz-adv-x="588" 
d="M216 232c-41.333 0 -62 -15.335 -62 -46.002c0 -38.667 46.333 -58 139 -58c87.333 0 131 19.333 131 58c0 15.333 -6 27.333 -18 36c-10 -3.33301 -26 -10.333 -48 -21c-15.333 -10 -23 -25 -23 -45h-129c-3.33301 16.667 -0.333008 31.834 9 45.501
s24.333 23.834 45 30.501h-44zM404 383.998c-31.333 0 -50 -12.667 -56 -38c10 0.666992 28.667 1 56 1c14.667 4 22 10.667 22 20c0 11.333 -7.33301 17 -22 17zM516 312.998c34.667 -22 51.999 -63.667 51.999 -125c0 -51.333 -15 -93.333 -45 -126
c-20 -21.333 -52.333 -38 -97 -50c-40.667 -10.667 -85 -16 -133 -16c-115.333 0 -193.666 22 -234.999 66c-32 34 -48 76 -48 126c0 38 9.66699 70.667 29 98c12 17.333 29.5 32 52.5 44s46.167 17.667 69.5 17c34 0 55.667 -0.666992 65 -2c0 17.333 -12.667 29 -38 35
c-18.667 5.33301 -39.667 6.66602 -63 3.99902c-41.333 -4 -72.666 -17 -93.999 -39v124c25.333 22 62.333 33 111 33c70 0 120 -13.667 150 -41c12 10.667 29.667 19.667 53 27s44.666 11.333 63.999 12c39.333 1.33301 72.333 -7.66699 99 -27
c31.333 -22 46.333 -54 45 -96c-0.666992 -27.333 -13 -48.666 -37 -63.999z" />
    <glyph glyph-name="J" unicode="J" horiz-adv-x="410" 
d="M137 188c-0.666992 -15.333 3.33398 -28.666 12.001 -39.999c11.333 -14 26.666 -21 45.999 -21c10 0 21 2 33 6c26.667 8 39.334 33 38.001 75c-0.666992 27.333 -7.33398 43.666 -20.001 48.999c-8.66699 -24.667 -24 -43 -46 -55s-43 -16.667 -63 -14zM470.001 343
c-23.333 23.333 -47.333 35.334 -72 36.001c-29.333 0.666992 -51 -5.66602 -65 -18.999c17.333 -8 32 -25.333 44 -52c14 -30.667 21 -66.667 21 -108c0 -97.333 -32 -159.333 -96 -186c-25.333 -10.667 -57.666 -16.334 -96.999 -17.001
c-63.333 -1.33301 -110 13.334 -140 44.001c-25.333 26 -42.333 63.333 -51 112c-2.66699 16.667 -4 36.334 -4 59.001c0 50 6.33301 85 19 105c18.667 -20.667 42 -31 70 -31c14.667 0 27.834 5.66699 39.501 17s17.5 24.666 17.5 39.999
c0 7.33301 -1.66699 14.666 -5 21.999c-6 12.667 -18.333 19 -37 19c-14.667 0 -29.667 -3.83301 -45 -11.5s-26.333 -16.834 -33 -27.501v131c18.667 15.333 51.667 24 99 26c51.333 2 87.666 -15.667 108.999 -53c23.333 22.667 52.666 38.667 87.999 48c16 4 35 6 57 6
c32 0 59.333 -4 82 -12c32.667 -12 63 -31.333 91 -58c-22 -18 -52.667 -48 -92 -90z" />
    <glyph glyph-name="K" unicode="K" horiz-adv-x="812" 
d="M20 95l-0.00390625 -91.0039c15.333 10 32.666 15 51.999 15c8.66699 0 26.667 -2.33301 54 -7c62.667 -10.667 110.334 -15.667 143.001 -15c58.667 0.666992 106.334 19 143.001 55c34 34 54.333 79.667 61 137c2.66699 24 4 45.333 4 64
c0 40.667 -6.33301 78.334 -19 113.001c3.33301 6 10.333 9 21 9c6 0 11.5 -6.66699 16.5 -20s7.5 -30.666 7.5 -51.999v-110h108v114c0 44 7.66699 66 23 66c14.667 0 22 -35.333 22 -106c0 -43.333 -3.33301 -75 -10 -95c-9.33301 -28 -26.666 -43.333 -51.999 -46
c-44.667 -5.33301 -80 5 -106 31v-133c35.333 -21.333 86 -29.666 152 -24.999c102 6.66699 153 94.334 153 263.001c0 70 -9.33301 126 -28 168c-21.333 48.667 -61.666 73 -120.999 73c-38 0 -65 -11 -81 -33c-15.333 20.667 -40 31.334 -74 32.001
c-39.333 1.33301 -69 -12 -89 -40c-1.33301 2 -5.33301 5 -12 9l90 148h-136l-72 -118c-14 1.33301 -27.667 2 -41 2c-65.333 0 -115.666 -14 -150.999 -42c-48.667 -38.667 -71 -93 -67 -163c2.66699 -52.667 23 -92.334 61 -119.001zM138.996 287.996
c-6.66699 10 -10 21.333 -10 34c0 12 3.33301 22.333 10 31c12 16 29.667 23 53 21zM313.996 348.996c16.667 -24.667 24.999 -56.667 24.999 -96c0 -15.333 -1.33301 -32.333 -4 -51c-6.66699 -49.333 -35.334 -77 -86.001 -83c-10 -1.33301 -21.333 -1 -34 1
c-14.667 2.66699 -23.667 4 -27 4c-4 0 -8 -0.666992 -12 -2l13 21c22.667 0 44.334 2.66699 65.001 8c16 4.66699 28.667 11 38 19v90c-11.333 -8.66699 -24.666 -13 -39.999 -13z" />
    <glyph glyph-name="L" unicode="L" horiz-adv-x="578" 
d="M189 108c-29.333 0 -43.333 48.332 -42 144.999c0.666992 31.333 7 58.666 19 81.999s28 35 48 35c11.333 0 20.5 -3.66699 27.5 -11s10.5 -15.666 10.5 -24.999c0 -7.33301 -2 -13.666 -6 -18.999c-6.66699 -7.33301 -18 -21 -34 -41c-16.667 -22 -25 -61 -25 -117
c0 -16 0.666992 -32.333 2 -49zM192 68.999c5.33301 -26.667 11.999 -48.6641 19.999 -65.9971h84c-2 7.33301 -3 14.666 -3 21.999c0 19.333 6 28.333 18 27c4 -0.666992 14 -9.5 30 -26.5s32.333 -26.167 49 -27.5c42 -4 75.667 11.333 101 46
c44.667 60.667 67 155 67 283c0 160.667 -47.333 264 -142 310c-35.333 17.333 -76.666 26 -123.999 26c-73.333 0 -129.333 -11 -168 -33c-54 -30.667 -87 -75.334 -99 -134.001h136c18.667 30 55.334 45 110.001 45c37.333 0 64.333 -7.33301 81 -22
c42.667 -37.333 64 -104.333 64 -201c0 -49.333 -4 -90.666 -12 -123.999s-17.667 -50 -29 -50c-2.66699 0 -9.33398 3.5 -20.001 10.5s-20 10.5 -28 10.5c-6.66699 0 -13 -3 -19 -9c-1.33301 27.333 6.33398 51.666 23.001 72.999c21.333 28 34 48.333 38 61
c4.66699 16 7 32.667 7 50c0 54 -19 96.667 -57 128c-26 21.333 -61.333 32 -106 32c-65.333 0 -114.666 -21.333 -147.999 -64c-36 -46.667 -54.333 -110.334 -55 -191.001c-0.666992 -108 21.333 -182.667 66 -224c17.333 -16 37.666 -24 60.999 -24
c19.333 0 37.666 5.33301 54.999 16v56z" />
    <glyph glyph-name="M" unicode="M" horiz-adv-x="577" 
d="M296 -1c178 2 265.004 109.662 261.004 322.995c-2 106.667 -31 188.334 -87 245.001c-44.667 46 -103.334 73.333 -176.001 82c-52.667 6.66699 -105.334 7.66699 -158.001 3v-108c8 1.33301 15 2 21 2c16.667 0 30.667 -7.66699 42 -23
c25.333 -35.333 39.666 -54.666 42.999 -57.999c22.667 -24 52 -36 88 -36c24.667 0 44 6 58 18c17.333 -24 27.666 -66 30.999 -126s-8.33398 -107.333 -35.001 -142c-24 -31.333 -56 -47.666 -96 -48.999c-78 -2 -121.333 15.333 -130 52c-1.33301 6 -2 11.667 -2 17
c0 34 24.667 51 74 51h57c0.666992 10.667 1 21 1 31c0 52.667 -7 95 -21 127c-19.333 44.667 -55.333 68.334 -108 71.001c-54.667 3.33301 -97 -4.66699 -127 -24v-121c30 23.333 57.333 35 82 35c28.667 0 44 -9 46 -27h-27c-38 0 -70 -18.333 -96 -55
c-18 -25.333 -27 -59.333 -27 -102c0 -19.333 2.33301 -36.666 7 -51.999c14.667 -48.667 43.834 -83.5 87.501 -104.5s107.5 -30.833 191.5 -29.5zM271.004 538.995c36 0 65.333 -11.333 88 -34c-7.33301 -12 -17.666 -18 -30.999 -18c-4.66699 0 -9.33398 1 -14.001 3
c-8 3.33301 -15.5 11 -22.5 23s-13.833 20.667 -20.5 26z" />
    <glyph glyph-name="N" unicode="N" horiz-adv-x="627" 
d="M227 219c5.33301 0.666992 10.333 0.999023 15 0.999023c25.333 0 38.333 -14.667 39 -44c1.33301 -33.333 -16 -50 -52 -50c-48.667 0 -71.334 24.667 -68.001 74c0.666992 14.667 7.33398 29.167 20.001 43.5s24.667 21.5 36 21.5h9
c0 -21.333 0.333008 -36.666 1 -45.999zM395 83.999l-0.000976562 -76.001c17.333 -6 34 -9 50 -9c47.333 0 86 21.333 116 64s45.333 99 46 169c1.33301 180 -62.334 270 -191.001 270c-49.333 0 -85 -7.66699 -107 -23c-26 -18 -44 -42 -54 -72
c-4.66699 22 -12 39.333 -22 52c-19.333 24.667 -42.666 39 -69.999 43c-10 1.33301 -19.667 2 -29 2c-37.333 0 -69 -9 -95 -27v-120c14.667 16.667 38 25 70 25c22 0 35 -9 39 -27h-163v-94h91c-25.333 -16 -41.666 -40 -48.999 -72c-1.33301 -7.33301 -2 -16 -2 -26
c0 -46.667 14 -83.667 42 -111c20 -19.333 38.333 -32.666 55 -39.999c20.667 -8.66699 49 -13.667 85 -15s65 0.666992 87 6c49.333 12 83 39 101 81zM413.999 143.998c5.33301 46.667 0.667969 85.002 -13.999 115.002c-12.667 25.333 -31.334 41.666 -56.001 48.999
c6 44 26 65.333 60 64c18.667 -0.666992 33 -9.33398 43 -26.001c16 -26.667 24 -61.667 24 -105c0 -78.667 -19.667 -115.667 -59 -111c1.33301 5.33301 2 10 2 14z" />
    <glyph glyph-name="O" unicode="O" 
d="M166 512l-140.001 0.00195312c30.667 108.667 113 162.667 247 162c100.667 -0.666992 172.334 -26 215.001 -76c44.667 -52 68.667 -141.667 72 -269c2 -92.667 -8 -167.334 -30 -224.001c-27.333 -70.667 -71.333 -106 -132 -106c-32.667 0 -56.834 3.5 -72.501 10.5
s-31.167 21.167 -46.5 42.5c-18 -35.333 -55 -53 -111 -53c-107.333 0.666992 -160 87.667 -158 261c1.33301 96.667 31.333 165.667 90 207c30.667 21.333 74.334 32 131.001 32c18.667 0 39.334 -1 62.001 -3v-122h-37c-41.333 0 -70.666 -9 -87.999 -27
s-26.333 -49.333 -27 -94c-1.33301 -78 12.667 -117 42 -117c20 0 32.333 16 37 48c3.33301 18.667 4.66602 59 3.99902 121h113c0 -67.333 1 -108.333 3 -123c4 -29.333 15.333 -44 34 -44c31.333 0 47.666 49.667 48.999 149c1.33301 84 -6 146.667 -22 188
c-21.333 56.667 -61 85 -119 85c-30 0 -52.333 -2.33301 -67 -7c-18 -6.66699 -34.333 -20.334 -49 -41.001z" />
    <glyph glyph-name="P" unicode="P" horiz-adv-x="588" 
d="M216 232c-41.333 0 -62 -15.333 -62 -46c0 -38.667 46.333 -58 139 -58c87.333 0 131 20 131 60c-37.333 0 -65.5 4.5 -84.5 13.5s-34.833 19.167 -47.5 30.5h-76zM226 345c0 17.333 -12.6699 29.0029 -38.0029 35.0029c-18.667 5.33301 -39.667 6.66602 -63 3.99902
c-41.333 -4 -72.666 -17 -93.999 -39v124c25.333 22 62.333 33 111 33c66.667 0 115.667 -12.667 147 -38c9.33301 8 19 15.333 29 22c2.66699 19.333 14 41.666 34 66.999l49 43c22 19.333 32.667 37.333 32 54h146c0.666992 -30 -8.33301 -55.333 -27 -76
c-0.666992 -0.666992 -15 -12.334 -43 -35.001l-25.5 -20.5c-8.33301 -7 -12.166 -14.167 -11.499 -21.5c28.667 -10 49.667 -24.667 63 -44c23.333 -33.333 34 -66 32 -98c-2 -34.667 -7.66699 -60.667 -17 -78c12 -22 18 -51.667 18 -89c0 -51.333 -15 -93.333 -45 -126
c-20 -21.333 -52.333 -38 -97 -50c-40.667 -10.667 -85 -16 -133 -16c-115.333 0 -193.666 22 -234.999 66c-32 34 -48 76 -48 126c0 38 9.66699 70.667 29 98c12 17.333 29.5 32 52.5 44s46.167 17.667 69.5 17c34 0 55.667 -0.666992 65 -2zM348.997 338.003
c0 -12.667 4.66699 -23.667 14 -33s20.333 -14 33 -14s23.667 4.66699 33 14s14 20.333 14 33s-4.66699 23.667 -14 33s-20.333 14 -33 14s-23.667 -4.66699 -33 -14s-14 -20.333 -14 -33z" />
    <glyph glyph-name="Q" unicode="Q" horiz-adv-x="4" 
d="M-426 -16h-127.997c-11.333 -9.33301 -17 -28 -17 -56c0 -36 13.667 -65 41 -87c25.333 -20 56.666 -29.667 93.999 -29c32 0.666992 63.333 6.66699 94 18l82 31c13.333 4 27.666 6 42.999 6c39.333 0 62.666 -15 69.999 -45h119v385
c-30 -90.667 -76.667 -144.667 -140 -162v-91c-9.33301 14.667 -29.333 22 -60 22c-10.667 0 -22.334 -0.666992 -35.001 -2c-14.667 -2 -38 -9.66699 -70 -23c-29.333 -12 -50.666 -18 -63.999 -18c-23.333 0 -35 10.333 -35 31c0 7.33301 2 14 6 20z" />
    <glyph glyph-name="R" unicode="R" horiz-adv-x="895" 
d="M208 245c-39.333 0 -59 -20.333 -59 -61c0 -36.667 17.333 -54.667 52 -54c20 0.666992 32.667 12 38 34c2 7.33301 3 24.333 3 51h94c0 -56.667 13.333 -85.667 40 -87c38 -2 57 15.667 57 53c0 42.667 -17.333 64 -52 64h-173zM230 343
c2.66699 29.333 -22.666 44.002 -75.999 44.002c-10 0 -20 -0.666992 -30 -2c-35.333 -4.66699 -65.666 -14.334 -90.999 -29.001v113c25.333 20 64.666 31 117.999 33c67.333 2 114.333 -10.333 141 -37c29.333 24.667 76.333 37 141 37c54.667 0 94.667 -10.667 120 -32
v-114c-20 14.667 -49.333 24.334 -88 29.001c-11.333 1.33301 -23 2 -35 2c-56.667 0 -83.667 -14.333 -81 -43h78c41.333 0 75 -15 101 -45c26.667 -32 40 -75 40 -129c0 -46.667 -15.667 -86.834 -47 -120.501s-64 -50.5 -98 -50.5c-39.333 0 -64.333 1.33301 -75 4
c-20.667 4 -40.667 16 -60 36c-20.667 -19.333 -40.334 -31.333 -59.001 -36c-11.333 -2.66699 -36 -4 -74 -4c-36.667 0 -70 16.667 -100 50s-45 73.666 -45 120.999c0 53.333 14.667 96 44 128c26.667 30 60 45 100 45h76zM595 470.002
c40.667 22 85.335 32.999 134.002 32.999c98.667 0 147.334 -69 146.001 -207c0 -22 -3.83301 -56 -11.5 -102s-11.5 -80.333 -11.5 -103c0 -34 6 -63.667 18 -89h-114c-6 10 -11.333 22.667 -16 38c-8.66699 -16 -17.334 -27 -26.001 -33
c-10.667 -6.66699 -26.334 -10 -47.001 -10c-30 0 -52.667 17.667 -68 53c-12 26.667 -18.333 61 -19 103c-2 114 36 174.667 114 182c21.333 2 42.666 -2.66699 63.999 -14c-2 42.667 -22.333 64.334 -61 65.001c-36 0.666992 -70 -12 -102 -38v122zM746.001 216.001
c-9.33301 10.667 -16.666 16 -21.999 16c-2.66699 0 -5.66699 -1 -9 -3c-11.333 -6.66699 -17 -27.667 -17 -63c0 -36 8.66699 -52.333 26 -49c9.33301 2 15.333 19.667 18 53c1.33301 10 2.66602 25.333 3.99902 46z" />
    <glyph glyph-name="S" unicode="S" horiz-adv-x="4" 
d="M-526 521l118 -0.00195312c-4.66699 8.66699 -7 16.334 -7 23.001c0 28 40.333 42 121 42c-2 -4 -3 -9 -3 -15c0 -26 15 -43.667 45 -53c20.667 -6.66699 44.667 -10 72 -10c48 0 85 9 111 27c19.333 13.333 29 34 29 62c0 42 -29.333 70.667 -88 86
c-36 8.66699 -92 13 -168 13c-170.667 0 -256 -35 -256 -105c0 -33.333 8.66699 -56.666 26 -69.999zM-169 606.998c25.333 -1.33301 38 -9.33301 38 -24c0 -15.333 -14 -23 -42 -23c-25.333 0 -38.333 7.66699 -39 23c-0.666992 8.66699 4 15.334 14 20.001
c8 3.33301 17.667 4.66602 29 3.99902z" />
    <glyph glyph-name="T" unicode="T" horiz-adv-x="586" 
d="M161 512l-135 0.000976562c32 113.333 114.333 169.666 247 168.999c103.333 -0.666992 177.166 -27.5 221.499 -80.5s68.166 -143.833 71.499 -272.5c2 -92.667 -7.66699 -167 -29 -223c-27.333 -70 -71.666 -105.333 -132.999 -106c-32.667 0 -57.334 3.5 -74.001 10.5
s-32.667 20.833 -48 41.5c-17.333 -34.667 -55 -52 -113 -52c-108 0.666992 -161 87.667 -159 261c1.33301 111.333 27.666 185 78.999 221c19.333 13.333 44 20 74 20c13.333 0 27 -1.33301 41 -4c21.333 -4.66699 35 -16.334 41 -35.001
c2.66699 -7.33301 4.66699 -24 6 -50c0.666992 -17.333 5 -26.333 13 -27c14.667 -2 22 9.33301 22 34c0 33.333 -8 58.333 -24 75h106c22.667 -24.667 34 -56.667 34 -96c0 -8 -0.666992 -15.667 -2 -23c-6 -34.667 -18.333 -59.667 -37 -75
c-22 -17.333 -56 -24.666 -102 -21.999c-30 1.33301 -51.667 9.33301 -65 24c-7.33301 8 -12.666 20.667 -15.999 38c-2.66699 13.333 -6.66699 20 -12 20c-12 0 -19.667 -12.333 -23 -37c-1.33301 -8.66699 -2.33301 -32 -3 -70c-2 -78 11.667 -117 41 -117
c20 0 32 8 36 24c1.33301 7.33301 2 37.666 2 90.999h119c0 -48 1.66699 -78 5 -90c4.66699 -16 16.334 -24 35.001 -24c32.667 0 49.334 50 50.001 150c2 186.667 -47.333 280 -148 280c-30.667 0 -53.667 -3 -69 -9c-20 -7.33301 -37.333 -22.666 -52 -45.999z" />
    <glyph glyph-name="U" unicode="U" horiz-adv-x="586" 
d="M160 512h-133.997c32.667 113.333 115 169.666 247 168.999c103.333 -0.666992 177.166 -27.5 221.499 -80.5s68.166 -143.833 71.499 -272.5c2 -92 -8 -166.333 -30 -223c-27.333 -70 -71.333 -105.333 -132 -106c-33.333 0 -58.333 3.5 -75 10.5
s-32.334 20.833 -47.001 41.5c-17.333 -34.667 -55.333 -52 -114 -52c-107.333 0.666992 -160 87.667 -158 261c1.33301 111.333 27.666 185 78.999 221c19.333 13.333 44 20 74 20c13.333 0 27 -1.33301 41 -4c20.667 -4.66699 34.334 -16.334 41.001 -35.001
c2 -7.33301 4 -24 6 -50c0.666992 -17.333 5 -26.333 13 -27c14 -2 21 9.33301 21 34c0 32.667 -7.66699 57.667 -23 75h106c22.667 -24.667 34 -56.667 34 -96c0 -8 -0.666992 -15.667 -2 -23c-11.333 -66.667 -57.666 -99 -138.999 -97c-30 0.666992 -51.667 8 -65 22
c-7.33301 8.66699 -12.666 21.667 -15.999 39c-2.66699 14 -6.66699 21 -12 21c-12 0 -19.667 -12.333 -23 -37c-2 -12 -3.33301 -35.667 -4 -71c-1.33301 -78 12.667 -117 42 -117c9.33301 0 14.666 6 15.999 18c0.666992 4.66699 -4.83301 12.334 -16.5 23.001
s-17.5 23.667 -17.5 39c0 36.667 39.667 55 119 55c78 0 117 -17.667 117 -53c0 -19.333 -6.16699 -34.5 -18.5 -45.5s-18.5 -17.167 -18.5 -18.5c0 -10.667 5.33301 -16 16 -16c31.333 0 47.666 50 48.999 150c2.66699 186.667 -46.333 280 -147 280
c-30.667 0 -53.667 -3 -69 -9c-20 -7.33301 -37.667 -22.666 -53 -45.999zM284.003 128c2 8.66699 7 17.6689 15 27.002s12 16.666 12 21.999c0 12.667 -9 19 -27 19c-17.333 0 -26 -7 -26 -21c0 -5.33301 3.83301 -12.333 11.5 -21s12.5 -17.334 14.5 -26.001z" />
    <glyph glyph-name="V" unicode="V" 
d="M273 539c36 0 65.333 -11.333 88 -34c-7.33301 -12 -17.666 -18 -30.999 -18c-4.66699 0 -9.33398 1 -14.001 3c-8 3.33301 -15.5 11 -22.5 23s-13.833 20.667 -20.5 26zM154 188c4.66699 36.667 33.3311 54.9971 85.998 54.9971h47c1.33301 12 2 24.333 2 37
c0 52 -7.33301 94.667 -22 128c-19.333 44.667 -55.333 68.334 -108 71.001c-54.667 3.33301 -97 -4.66699 -127 -24v-121c13.333 10.667 23 17.667 29 21c12 6.66699 24.667 11 38 13c14 2 27.833 -0.666992 41.5 -8s20.167 -18.333 19.5 -33h-163v-93h47
c-12 -8.66699 -21 -22.5 -27 -41.5s-8 -36.833 -6 -53.5c4.66699 -45.333 21.834 -80.166 51.501 -104.499s67.834 -36.5 114.501 -36.5c55.333 0 89 15.667 101 47c8.66699 -14.667 24.667 -26.667 48 -36s47.666 -13 72.999 -11c107.333 8.66699 161 101.334 161 278.001
c0 14.667 -0.333008 30 -1 46c-5.33301 107.333 -35 189.333 -89 246c-44.667 47.333 -102.667 74.333 -174 81c-60.667 6 -113.334 7 -158.001 3v-110c8 2 15.333 3 22 3c16.667 0 30.667 -8 42 -24c26 -35.333 40 -54 42 -56c22.667 -24 52 -36 88 -36
c24.667 0 44 6 58 18c16.667 -35.333 26.334 -77.333 29.001 -126c1.33301 -18.667 2 -36.667 2 -54c0 -88.667 -14 -133.667 -42 -135c-23.333 -1.33301 -35 14.667 -35 48v40h-112v-43c0 -30.667 -11.667 -46 -35 -46c-33.333 0 -47.666 19 -42.999 57z" />
    <glyph glyph-name="W" unicode="W" horiz-adv-x="588" 
d="M86 327h137.004c7.33301 37.333 36.333 55.666 87 54.999c48.667 -0.666992 77 -19 85 -55h-142c-161.333 0 -242.333 -77.333 -243 -232c-0.666992 -90 23.666 -157.333 72.999 -202s124.666 -66.667 225.999 -66c72.667 0.666992 134 24.334 184 71.001
s75 103.334 75 170.001c0 18 -2 36 -6 54h-140c3.33301 -14.667 5 -28.667 5 -42c0 -40 -13.333 -72.667 -40 -98c-24.667 -22.667 -53 -34.667 -85 -36c-43.333 -2 -78.666 10 -105.999 36c-30.667 30 -43.667 73 -39 129c5.33301 66.667 41.666 100 108.999 100h277
c3.33301 99.333 -13.334 172.666 -50.001 219.999s-97.334 71 -182.001 71c-72.667 0 -129.667 -15.833 -171 -47.5s-59.333 -74.167 -54 -127.5z" />
    <glyph glyph-name="X" unicode="X" horiz-adv-x="582" 
d="M153 188c-4.66699 -37.333 7.33301 -56 36 -56c26 0 39 19.333 39 58v22h117v-20c0 -39.333 11.333 -59 34 -59c28.667 0 43.667 51.667 45 155c1.33301 80 -6 141.333 -22 184c-22 58.667 -61.667 88 -119 88c-58.667 0 -98 -13.667 -118 -41h-134
c12.667 46.667 40.167 83.167 82.5 109.5s96.166 39.5 161.499 39.5c100.667 0 173 -27 217 -81c42 -52 65 -137.667 69 -257c7.33301 -218.667 -44 -328.667 -154 -330c-34 -0.666992 -59.667 2.66602 -77 9.99902s-32.333 21.666 -45 42.999
c-16 -36 -53.333 -53.667 -112 -53c-110.667 0.666992 -165 56.334 -163 167.001c0.666992 46 18 81.667 52 107c13.333 10 36.333 18 69 24c38.667 8 62.334 13.667 71.001 17c22 9.33301 33 24 33 44c0 14 -4.16699 27.333 -12.5 40s-19.5 19.334 -33.5 20.001
c6.66699 -12.667 10 -25.667 10 -39c0 -22 -8.66699 -40.167 -26 -54.5s-37.333 -21.5 -60 -21.5c-16.667 0 -32.667 4 -48 12c-30 15.333 -45 42.333 -45 81c0 16 3.66699 30.667 11 44c23.333 42 68 63 134 63c86 0 141 -29.333 165 -88
c6.66699 -15.333 10 -35.333 10 -60c0 -30.667 -5.33301 -55 -16 -73c-14.667 -25.333 -35.667 -41.666 -63 -48.999c-18 -2 -42.333 -5.66699 -73 -11c-21.333 -6.66699 -33 -18.334 -35 -35.001zM88 386c0 -18 9 -27 27 -27s27 9 27 27s-9 27 -27 27s-27 -9 -27 -27z" />
    <glyph glyph-name="Y" unicode="Y" horiz-adv-x="612" 
d="M458 126c0 14.667 0.666992 25.999 2 33.999c4 24 1.33301 36.667 -8 38c-22.667 4 -34.667 -11 -36 -45c-0.666992 -9.33301 1 -17.666 5 -24.999c4 -9.33301 9.66699 -14 17 -14c6 0 12.667 4 20 12zM464 249.999c-0.666992 45.333 -9.33203 79.667 -25.999 103
c-10 14.667 -26.333 22.667 -49 24c-20 0.666992 -35.667 -6.83301 -47 -22.5s-17 -35.834 -17 -60.501c12.667 -3.33301 24 -17.666 34 -42.999c8 -20 12.333 -37.667 13 -53c16 36.667 39.333 55 70 55c7.33301 0 14.666 -1 21.999 -3zM345.002 63
c-22.667 -32.667 -47.333 -51.998 -74 -57.998c-30 -6.66699 -56.333 -9.33398 -79 -8.00098c-50.667 2.66699 -93.667 25 -129 67s-53 99.333 -53 172c0 110 26.667 187.667 80 233c25.333 22 57.333 33 96 33c10 0 20 -1 30 -3v-119c-22.667 0 -40.667 -10.667 -54 -32
c-16.667 -27.333 -22 -72.666 -16 -135.999c2.66699 -25.333 9.66699 -46 21 -62s24.333 -24 39 -24c10.667 0 20.5 4.66699 29.5 14s13.167 20.666 12.5 33.999c-0.666992 17.333 -2.83398 29.333 -6.50098 36s-11.167 10 -22.5 10c-4 0 -8.33301 -0.333008 -13 -1
c-6 82.667 2 146.667 24 192c15.333 31.333 36.666 54.666 63.999 69.999c25.333 14 61 21 107 21c128.667 0 192.334 -88.667 191.001 -266c0 -33.333 -7.33301 -70 -22 -110s-22 -67.333 -22 -82c0 -14 3.33301 -28 10 -42h-68c-6.66699 6 -12.334 13.667 -17.001 23
c-9.33301 -18 -23.666 -27 -42.999 -27c-7.33301 0 -14.666 1.66699 -21.999 5c-20 10 -34.333 30 -43 60c-2.66699 10.667 -4.66699 20.667 -6 30c-4 -12.667 -8.66699 -22.667 -14 -30z" />
    <glyph glyph-name="Z" unicode="Z" horiz-adv-x="199" 
d="M26 707h141.999c16.667 -30.667 21.667 -69.667 15 -117c-8 -54 -26.667 -93 -56 -117h-102c13.333 12.667 24.333 31 33 55s12.334 47.667 11.001 71c-2 42.667 -16.333 78.667 -43 108z" />
    <glyph glyph-name="bracketleft" unicode="[" horiz-adv-x="1081" 
d="M322 212l24.001 -0.000976562c-11.333 -15.333 -17 -32.666 -17 -51.999c0 -20 7.33301 -30 22 -30c13.333 0 20 14.667 20 44v38h72v-38c0 -28.667 5 -43 15 -43c19.333 0 27.666 24 24.999 72c-1.33301 24 -8.83301 45.667 -22.5 65s-27.5 29 -41.5 29
c-3.33301 0 -6.33301 -0.666992 -9 -2c-14.667 -8 -44 -35.667 -88 -83zM606.001 374.999c-28 8 -58.665 6.66699 -91.998 -4c25.333 -7.33301 47.333 -26.333 66 -57c20 -33.333 30.667 -71.333 32 -114c1.33301 -54.667 -3.66699 -95.334 -15 -122.001
c-20.667 -48 -50.334 -74 -89.001 -78c-8.66699 -0.666992 -16.334 -1 -23.001 -1c-39.333 0 -64.666 13.333 -75.999 40c-8 -16.667 -20.667 -27.667 -38 -33c-10.667 -3.33301 -28.334 -5.33301 -53.001 -6c-31.333 -0.666992 -57.666 10.333 -78.999 33
c-12.667 14 -20 33 -22 57c-2 28 2 49.333 12 64h-28v97c5.33301 8 22.333 27.667 51 59c6.66699 7.33301 26.334 27.333 59.001 60c-4 2.66699 -11 4 -21 4c-26.667 0 -50 -7.33301 -70 -22v37c-7.33301 3.33301 -17.666 1.33301 -30.999 -6s-25 -24.666 -35 -51.999
c-10 -29.333 -14.333 -60.333 -13 -93c2 -49.333 9.33301 -93.666 22 -132.999c16 -52 39.333 -85.667 70 -101h-148c-49.333 50 -74 128.667 -74 236c0 18 1 36 3 54c4.66699 46 19.667 87 45 123s57 60.333 95 73c12.667 4 26.667 6 42 6c18.667 0 32.667 -3.66699 42 -11
c18 11.333 45 17 81 17c19.333 0 38.333 -5.66699 57 -17s30 -23 34 -35c37.333 25.333 74.666 41 111.999 47c60.667 10 111.667 7.66699 153 -7c10.667 -4 20.667 -9 30 -15c30 11.333 46 17.333 48 18c26.667 6.66699 62 9.66699 106 9
c73.333 -1.33301 127 -28.333 161 -81c24.667 -38.667 37 -89.667 37 -153c0 -10.667 -0.333008 -21.667 -1 -33h-189c-64 0 -97 -19.333 -99 -58s36.333 -58 115 -58c75.333 0 134.666 12.667 177.999 38v-132c-37.333 -13.333 -72.5 -22 -105.5 -26
s-49.5 -13.333 -49.5 -28c0 -19.333 16 -28.333 48 -27c11.333 0.666992 22.833 4.33398 34.5 11.001s17.5 15.334 17.5 26.001c0 3.33301 -0.333008 6.33301 -1 9h115c2 -10.667 3 -20.667 3 -30c0 -47.333 -25.667 -82 -77 -104
c-33.333 -14.667 -70.333 -22.334 -111 -23.001c-42.667 -0.666992 -80.334 6.66602 -113.001 21.999c-42 19.333 -63 48 -63 86c0 31.333 12.333 50.666 37 57.999c-54 4 -96.667 23.667 -128 59c-28.667 31.333 -42.667 67.333 -42 108c0.666992 56 19 99.333 55 130
c34 28.667 79.667 43 137 43h110c-2.66699 31.333 -36.667 47 -102 47c-22 0 -47.667 -5 -77 -15c-32 -10.667 -54 -23 -66 -37c-17.333 18 -43 31.667 -77 41z" />
    <glyph glyph-name="backslash" unicode="\" horiz-adv-x="668" 
d="M461 -1l-0.000976562 -48.9961c20 12 46 18 78 18c28.667 0 43.334 -9 44.001 -27c0.666992 -8 -7.66602 -14.833 -24.999 -20.5s-36 -8.5 -56 -8.5c-13.333 0 -24.333 1.33301 -33 4v-90c18.667 -4 40 -6 64 -6c32 0 62.667 3.33301 92 10
c24.667 5.33301 45.667 15.666 63 30.999c22.667 18.667 34 41 34 67c0 30 -11.833 53.667 -35.5 71s-54.834 27.333 -93.501 30l38 14v114c-43.333 -25.333 -102.666 -38 -177.999 -38c-78.667 0 -117 19.333 -115 58s35 58 99 58h189c0.666992 11.333 1 22.333 1 33
c0 63.333 -12.333 114.333 -37 153c-34 53.333 -87.667 80.333 -161 81c-64 0.666992 -107 -5 -129 -17c-18.667 8.66699 -43.667 13 -75 13c-25.333 0 -48 -3.33301 -68 -10c-38.667 -12.667 -71.167 -36.667 -97.5 -72s-41.833 -76 -46.5 -122c-2 -17.333 -3 -35 -3 -53
c0 -107.333 25 -186.333 75 -237h148c-30.667 15.333 -54 49 -70 101c-12.667 39.333 -20 83.666 -22 132.999c-1.33301 32 4 62 16 90c11.333 25.333 24.666 41.666 39.999 48.999c22 10.667 40.667 11 56 1v-44c12 14 34 26.333 66 37c29.333 10 55 15 77 15
c65.333 0 99.333 -15.667 102 -47h-110c-57.333 0 -103 -14.333 -137 -43c-36 -30.667 -54.333 -74 -55 -130c-0.666992 -40.667 13.333 -76.667 42 -108c31.333 -34.667 74 -54.334 128 -59.001c26 -2 57.667 -2 95 0z" />
    <glyph glyph-name="bracketright" unicode="]" horiz-adv-x="494" 
d="M34 -1h133l291 601h-136zM32 536c22.667 31.333 53 47 91 47c25.333 0 48.333 -7.66699 69 -23c31.333 -22.667 47 -53 47 -91c0 -24.667 -7.66699 -47.334 -23 -68.001c-23.333 -31.333 -54 -47 -92 -47c-24.667 0 -47 7.33301 -67 22c-31.333 23.333 -47 54 -47 92
c0 24.667 7.33301 47.334 22 68.001zM267 177c22.667 31.333 53 47 91 47c24.667 0 47.334 -7.66699 68.001 -23c31.333 -23.333 47 -54 47 -92c0 -24.667 -7.33301 -47 -22 -67c-23.333 -31.333 -54 -47 -92 -47c-24.667 0 -47.334 7.33301 -68.001 22
c-31.333 22.667 -47 53 -47 91c0 25.333 7.66699 48.333 23 69zM87 468c0 -10.667 3.83301 -19.667 11.5 -27s16.5 -11 26.5 -11c10.667 0 19.667 3.83301 27 11.5s11 16.5 11 26.5c0 10.667 -3.83301 19.667 -11.5 27s-16.5 11 -26.5 11
c-10.667 0 -19.667 -3.83301 -27 -11.5s-11 -16.5 -11 -26.5zM322 110c0 -10.667 3.83301 -19.667 11.5 -27s16.5 -11 26.5 -11c10.667 0 19.667 3.83301 27 11.5s11 16.5 11 26.5c0 10.667 -3.83301 19.667 -11.5 27s-16.5 11 -26.5 11
c-10.667 0 -19.667 -3.83301 -27 -11.5s-11 -16.5 -11 -26.5z" />
    <glyph glyph-name="asciicircum" unicode="^" horiz-adv-x="276" 
d="M253 618c-41.333 -57.333 -69.999 -105.333 -85.999 -144c-18 -45.333 -27 -96 -27 -152c0 -64 10.333 -124 31 -180c17.333 -46.667 44.666 -98 81.999 -154h-134c-72.667 98.667 -109 209.334 -109 332.001c0 115.333 36.333 214.666 109 297.999h134z" />
    <glyph glyph-name="underscore" unicode="_" horiz-adv-x="4" 
d="M-316 634l53.002 -0.00195312c3.33301 -11.333 5 -22.666 5 -33.999c0 -26.667 -8.83301 -48.5 -26.5 -65.5s-39.167 -25.167 -64.5 -24.5c-78.667 2.66699 -117 41.334 -115 116.001c2 78.667 56.667 118 164 118c117.333 0 174.666 -46.667 171.999 -140
c-0.666992 -29.333 -10.334 -59.333 -29.001 -90h-109c20.667 27.333 30.667 55.333 30 84c-0.666992 42.667 -22 64 -64 64c-37.333 0 -57 -13.333 -59 -40c-0.666992 -5.33301 1.5 -10.5 6.5 -15.5s11.167 -7.16699 18.5 -6.5c14.667 2 20.667 13.333 18 34z" />
    <glyph glyph-name="grave" unicode="`" horiz-adv-x="174" 
d="M232 4l-148 -0.00292969c-49.333 50 -74 128.667 -74 236c0 18 1 36 3 54c8.66699 90.667 55 152.334 139 185.001c32 12 67.333 16.667 106 14c20.667 -1.33301 44.667 -7.66602 72 -18.999s45.666 -23.333 54.999 -36c-41.333 -10 -83.666 -37.667 -126.999 -83
c-5.33301 12.667 -19.333 19 -42 19c-8 0 -14.333 -1 -19 -3c-16 -6.66699 -29.667 -22 -41 -46c-12 -26 -17.333 -55 -16 -87c2 -49.333 9.33301 -93.666 22 -132.999c16 -52 39.333 -85.667 70 -101z" />
    <glyph glyph-name="a" unicode="a" horiz-adv-x="4" 
d="M-168 656h130.001v-300c-4.66699 36.667 -22.334 69 -53.001 97c-25.333 23.333 -51 37.333 -77 42v161z" />
    <glyph glyph-name="b" unicode="b" horiz-adv-x="566" 
d="M57 14c-2.66699 -15.333 -4.00391 -32.001 -4.00391 -50.001c0.666992 -85.333 74.334 -128 221.001 -128c52.667 0 100.334 8 143.001 24c58.667 22 88 55 88 99c0 24 -6.5 45 -19.5 63s-29.5 28 -49.5 30c42.667 18.667 72.334 45.334 89.001 80.001
c15.333 32 22.333 76.667 21 134c-4 157.333 -93 236 -267 236c-179.333 0 -269 -71.333 -269 -214c0 -54.667 17.667 -96.667 53 -126c30.667 -26 70.334 -39 119.001 -39c23.333 0 46.333 3.33301 69 10c53.333 15.333 80 54.666 80 117.999c0 18.667 -2.33301 35 -7 49
h-112c2.66699 -8 4 -15.667 4 -23c0 -25.333 -10 -38.333 -30 -39c-24.667 -1.33301 -37 13.334 -37 44.001c0 36 11.667 60.667 35 74c18 10.667 48 16 90 16c86 0 129 -42.667 129 -128c0 -8 -0.333008 -16.333 -1 -25c-4 -45.333 -22.333 -78 -55 -98
c-26.667 -16 -67 -25.333 -121 -28v-102h64c36 0 54 -5.66699 54 -17c0 -2 -0.666992 -4.33301 -2 -7c-4 -9.33301 -29 -14 -75 -14c-54 0 -82.667 11.667 -86 35c-1.33301 11.333 -0.333008 20 3 26h-127z" />
    <glyph glyph-name="c" unicode="c" horiz-adv-x="588" 
d="M216 232c-41.333 0 -62 -15.333 -62 -46c0 -38.667 46.333 -58 139 -58c87.333 0 131 19.333 131 58c0 30.667 -19 46 -57 46h-151zM226 345c0 17.333 -12.668 29.001 -38.001 35.001c-18.667 5.33301 -39.667 6.66602 -63 3.99902c-41.333 -4 -72.666 -17 -93.999 -39
v124c25.333 22 62.333 33 111 33c70 0 120 -13.667 150 -41c8 6 16.667 11.667 26 17c1.33301 23.333 12.666 48.333 33.999 75l49 43c22 19.333 32.667 37.333 32 54h146c0.666992 -30 -8.33301 -55.333 -27 -76c-0.666992 -0.666992 -15 -12.334 -43 -35.001
c-8 -6 -15.667 -12.167 -23 -18.5s-10.666 -13.5 -9.99902 -21.5c10.667 -1.33301 21 -3.33301 31 -6c22 -6.66699 36.667 -14.667 44 -24v-126c-19.333 20.667 -51 34.334 -95 41.001c-7.33301 1.33301 -15.333 2 -24 2c-48.667 0 -76 -13.333 -82 -40
c10 0.666992 32.667 1 68 1c47.333 0.666992 84.666 -14.333 111.999 -45c25.333 -28.667 38 -66.667 38 -114c0 -51.333 -15 -93.333 -45 -126c-20 -21.333 -52.333 -38 -97 -50c-40.667 -10.667 -85 -16 -133 -16c-115.333 0 -193.666 22 -234.999 66
c-32 34 -48 76 -48 126c0 38 9.66699 70.667 29 98c12 17.333 29.5 32 52.5 44s46.167 17.667 69.5 17c34 0 55.667 -0.666992 65 -2z" />
    <glyph glyph-name="d" unicode="d" horiz-adv-x="230" 
d="M-4 490c22.667 10.667 52.001 14.333 88.001 11c16.667 -1.33301 33.667 -7.66602 51 -18.999c52 -32.667 77 -110 75 -232c-1.33301 -94 -16.333 -159 -45 -195c-22.667 -28.667 -50.667 -46.334 -84 -53.001c-30 -6 -58.333 -2.33301 -85 11v128
c14 -9.33301 27.667 -12.333 41 -9c25.333 6.66699 38 46.667 38 120c0 78 -12.667 119 -38 123c-16.667 2.66699 -30.334 -1 -41.001 -11v126z" />
    <glyph glyph-name="e" unicode="e" horiz-adv-x="297" 
d="M0 479l280 0.000976562v-115c-47.333 -28 -86 -66.667 -116 -116c-10 -16.667 -15 -36.334 -15 -59.001c0 -30 10.667 -47.667 32 -53c5.33301 -1.33301 11 -2 17 -2c24.667 0 51 18.667 79 56v-142c-14.667 -18 -29.5 -30.167 -44.5 -36.5
s-36.167 -10.166 -63.5 -11.499c-51.333 -2.66699 -90.333 7.66602 -117 30.999c-32 27.333 -47 73.333 -45 138c1.33301 45.333 17 87.333 47 126c22 28.667 44.667 48.667 68 60h-122v124z" />
    <glyph glyph-name="f" unicode="f" horiz-adv-x="430" 
d="M192 313l0.00195312 -112.998c10 4.66699 22 7 36 7c30 0 45 -9.66699 45 -29c0 -31.333 -19 -47.333 -57 -48c-26.667 -0.666992 -45.667 10.666 -57 33.999c-10.667 20.667 -15.667 51.667 -15 93c1.33301 65.333 26.333 103.333 75 114c10.667 2 26.667 3 48 3
c26 -0.666992 46.667 -4 62 -10c19.333 -7.33301 38.666 -19.333 57.999 -36v130c-16.667 18 -40.334 30.667 -71.001 38c-25.333 6.66699 -59.333 9 -102 7c-83.333 -3.33301 -141.333 -41 -174 -113c-19.333 -42 -29.333 -87.333 -30 -136
c-1.33301 -74.667 12 -135 40 -181c30 -49.333 84.667 -74 164 -74c44 0 77 4.33301 99 13c64 25.333 96.333 79.666 97 162.999c0.666992 61.333 -16.333 105.333 -51 132c-22.667 18 -54.667 27 -96 27c-33.333 0 -57 -7 -71 -21z" />
    <glyph glyph-name="g" unicode="g" 
d="M166 512l-140.001 0.00195312c30.667 108.667 113 162.667 247 162c100 -0.666992 173.167 -28 219.5 -82s68.833 -141.667 67.5 -263c-0.666992 -110.667 -20 -192 -58 -244c-43.333 -58.667 -115.333 -88 -216 -88c-182 0 -274 85.667 -276 257
c-0.666992 45.333 7 87.166 23 125.499s38.833 67.833 68.5 88.5s72.834 31 129.501 31c18.667 0 39.334 -1 62.001 -3v-122h-37c-40.667 0 -69.334 -9.16699 -86.001 -27.5s-25 -49.5 -25 -93.5c0 -82 47 -123 141 -123c36.667 0 67 12.333 91 37
c26.667 27.333 42 67.333 46 120c1.33301 17.333 2 34 2 50c0 148.667 -47.667 223 -143 223c-30 0 -52.333 -2.33301 -67 -7c-18 -6.66699 -34.333 -20.334 -49 -41.001z" />
    <glyph glyph-name="h" unicode="h" horiz-adv-x="588" 
d="M300 462c29.333 26.667 73.667 40.002 133 40.002c40 0 74.667 -8 104 -24v-123c-30 21.333 -63.667 32 -101 32c-36.667 0 -53.667 -14.333 -51 -43h42c41.333 0 75 -15 101 -45c26.667 -32 40 -75 40 -129c0 -46.667 -15.667 -86.834 -47 -120.501s-64 -50.5 -98 -50.5
c-51.333 0 -84.5 4.16699 -99.5 12.5s-26.833 17.5 -35.5 27.5c-22 -28 -65.667 -41.333 -131 -40c-34 0.666992 -64.667 16.167 -92 46.5s-44 68.5 -50 114.5c-3.33301 26.667 -5 54 -5 82c0 113.333 28.667 189.333 86 228c32 21.333 66 32 102 32
c15.333 0 31.666 -1.66699 48.999 -5v-120c-23.333 4.66699 -43.666 3 -60.999 -5c-32.667 -15.333 -47 -61.333 -43 -138c2 -32.667 5 -55.334 9 -68.001c8 -24.667 23.333 -37 46 -37s34 15.667 34 47v39h114v-39c0 -31.333 12.333 -47 37 -47c33.333 0 50 17.333 50 52
c0 42.667 -16.333 64 -49 64h-135c-0.666992 25.333 -1 44 -1 56c0 76 17.333 129.667 52 161z" />
    <glyph glyph-name="i" unicode="i" horiz-adv-x="590" 
d="M206 245c-38 0 -57 -20.333 -57 -61c0 -36.667 17.333 -54.667 52 -54c20 0.666992 32.667 12 38 34c2 7.33301 3 24.333 3 51h94c0 -56.667 13.333 -85.667 40 -87c38 -2 57 15.667 57 53c0 42.667 -14 64 -42 64h-185zM230 343
c2.66699 29.333 -22.668 43.998 -76.001 43.998c-10 0 -20 -0.666992 -30 -2c-35.333 -4.66699 -65.666 -14.334 -90.999 -29.001v113c25.333 20 64.666 31 117.999 33c67.333 2 114.333 -10.333 141 -37c29.333 24.667 76.333 37 141 37c54.667 0 94.667 -10.667 120 -32
v-114c-20 14.667 -49.333 24.334 -88 29.001c-11.333 1.33301 -23 2 -35 2c-56.667 0 -83.667 -14.333 -81 -43h78c41.333 0 75 -15 101 -45c26.667 -32 40 -75 40 -129c0 -46.667 -15.667 -86.834 -47 -120.501s-64 -50.5 -98 -50.5c-39.333 0 -66 1.66699 -80 5
c-23.333 4.66699 -41.666 16.334 -54.999 35.001c-18 -27.333 -64.333 -40.666 -139 -39.999c-35.333 0 -67.333 15.333 -96 46s-43 66.334 -43 107.001c0 51.333 13.333 84.333 40 99h-65v92h245z" />
    <glyph glyph-name="j" unicode="j" horiz-adv-x="581" 
d="M156 192c-0.666992 34.667 26 52 80 52h82c1.33301 13.333 2 27 2 41c0 52.667 -6.33301 93.667 -19 123c-24.667 58 -76 87 -154 87c-50.667 0 -86 -9.66699 -106 -29v-126c26.667 24.667 56.667 37 90 37c40 0 59.667 -14.333 59 -43h-52
c-35.333 0 -64.666 -12.333 -87.999 -37c-26.667 -28 -40 -64.333 -40 -109c0 -129.333 92.333 -193 277 -191c101.333 1.33301 173.666 31 216.999 89c38 52 57 133 57 243c0 122 -22.833 209.833 -68.5 263.5s-118.5 80.834 -218.5 81.501
c-135.333 0.666992 -217 -52 -245 -158h140c14 18.667 31 31 51 37c14 4.66699 35 7 63 7c94.667 0 142 -76.667 142 -230c0 -13.333 -0.333008 -27.666 -1 -42.999c-2.66699 -52.667 -17.667 -92.334 -45 -119.001c-23.333 -24.667 -54 -37.334 -92 -38.001
c-86 -2 -129.667 18.667 -131 62z" />
    <glyph glyph-name="k" unicode="k" horiz-adv-x="618" 
d="M36 345l0.000976562 131.002c18.667 15.333 51.667 24 99 26c51.333 2 87.666 -15.667 108.999 -53c23.333 22.667 52.666 38.667 87.999 48c16 4 35.333 6 58 6c32 0 59 -4 81 -12c86.667 -32 129 -115.667 127 -251c-0.666992 -74.667 -17.5 -133.5 -50.5 -176.5
s-74.833 -64.5 -125.5 -64.5c-10 0 -20.333 1 -31 3v126c21.333 -1.33301 39.166 7.5 53.499 26.5s21.5 44.833 21.5 77.5c0 36.667 -6 68 -18 94c-15.333 34.667 -39 52 -71 52c-16 0 -30.667 -6 -44 -18c17.333 -8 32 -25.333 44 -52c14 -30.667 21 -66.667 21 -108
c0 -97.333 -32 -159.333 -96 -186c-25.333 -10.667 -57.666 -16.334 -96.999 -17.001c-63.333 -1.33301 -110 13.334 -140 44.001c-25.333 26 -42.333 63.333 -51 112c-2.66699 16.667 -4 36.334 -4 59.001c0 50 6.33301 85 19 105c18.667 -20.667 42 -31 70 -31
c14.667 0 27.834 5.66699 39.501 17s17.5 24.666 17.5 39.999c0 7.33301 -1.66699 14.666 -5 21.999c-6 12.667 -18.333 19 -37 19c-14.667 0 -29.667 -3.83301 -45 -11.5s-26.333 -16.834 -33 -27.501zM137.001 188.002c-0.666992 -15.333 3.33398 -28.666 12.001 -39.999
c11.333 -14 26.666 -21 45.999 -21c10 0 21 2 33 6c26.667 8 39.334 33 38.001 75c-0.666992 27.333 -7.33398 43.666 -20.001 48.999c-8.66699 -24.667 -24 -43 -46 -55s-43 -16.667 -63 -14z" />
    <glyph glyph-name="l" unicode="l" horiz-adv-x="630" 
d="M126 212l24.001 -0.000976562c-11.333 -15.333 -17 -32.666 -17 -51.999c0 -20 7.33301 -30 22 -30c13.333 0 20 14.667 20 44v38h72v-38c0 -28.667 5 -43 15 -43c19.333 0 27.666 24 24.999 72c-1.33301 24 -8.83301 45.667 -22.5 65s-27.5 29 -41.5 29
c-3.33301 0 -6.33301 -0.666992 -9 -2c-14.667 -8 -44 -35.667 -88 -83zM414.001 126.999c16 -2 30.5 7.5 43.5 28.5s19.5 46.5 19.5 76.5c0 83.333 -22.333 131 -67 143c-28 8 -58.667 6.66699 -92 -4c25.333 -7.33301 47.333 -26.333 66 -57
c20 -33.333 30.667 -71.333 32 -114c0.666992 -28.667 0 -53 -2 -73zM312.001 -0.000976562c-8.66699 -0.666992 -16.334 -1 -23.001 -1c-39.333 0 -64.666 13.333 -75.999 40c-8 -16.667 -20.667 -27.667 -38 -33c-10.667 -3.33301 -28.334 -5.33301 -53.001 -6
c-31.333 -0.666992 -57.666 10.333 -78.999 33c-12.667 14 -20 33 -22 57c-2 28 2 49.333 12 64h-28v97c5.33301 8 22.333 27.667 51 59c6.66699 7.33301 26.334 27.333 59.001 60c-4 2.66699 -11 4 -21 4c-26.667 0 -50 -7.33301 -70 -22v122
c26.667 18.667 59.667 28 99 28c19.333 0 38.333 -5.66699 57 -17s30 -23 34 -35c37.333 25.333 74.666 41 111.999 47c60.667 10 111.667 7.66699 153 -7c87.333 -31.333 131 -114.666 131 -249.999c0 -74.667 -17.333 -134.334 -52 -179.001
c-32.667 -41.333 -73.667 -62 -123 -62c-10.667 0 -21.334 1 -32.001 3v76c-6.66699 -19.333 -17.667 -36 -33 -50c-17.333 -16.667 -36.666 -26 -57.999 -28z" />
    <glyph glyph-name="m" unicode="m" horiz-adv-x="588" 
d="M226 345c0 17.333 -12.6689 28.998 -38.002 34.998c-18.667 5.33301 -39.667 6.66602 -63 3.99902c-41.333 -4 -72.666 -17 -93.999 -39v124c25.333 22 62.333 33 111 33c70 0 120 -13.667 150 -41c12 10.667 29.833 19.834 53.5 27.501s44.834 11.5 63.501 11.5
c48 0.666992 80.667 -1.66602 98 -6.99902c22.667 -6.66699 37.334 -14.667 44.001 -24v-126c-19.333 20.667 -51 34.334 -95 41.001c-7.33301 1.33301 -15.333 2 -24 2c-48.667 0 -76 -13.333 -82 -40c10 0.666992 32.667 1 68 1
c47.333 0.666992 84.666 -14.333 111.999 -45c25.333 -28.667 38 -66.667 38 -114c0 -51.333 -15 -93.333 -45 -126c-38 -41.333 -114.667 -62 -230 -62c-118 0 -196.333 20.667 -235 62c-32 34 -48 76 -48 126c0 38 9.66699 70.667 29 98c12 17.333 29.5 32 52.5 44
s46.167 17.667 69.5 17c34 0 55.667 -0.666992 65 -2zM215.998 231.998c-41.333 0 -62 -15.333 -62 -46c0 -38.667 46.333 -58 139 -58c87.333 0 131 19.333 131 58c0 30.667 -19 46 -57 46h-151z" />
    <glyph glyph-name="n" unicode="n" horiz-adv-x="578" 
d="M25 496h136c18.667 30 55.334 45 110.001 45c37.333 0 64.333 -7.33301 81 -22c43.333 -38 65 -105 65 -201c0 -55.333 -5.33301 -99.666 -16 -132.999c-11.333 -35.333 -27 -52.666 -47 -51.999c-18.667 0.666992 -28 16.667 -28 48c0 12 1.66699 23.333 5 34
c2.66699 8 11.667 17.333 27 28c13.333 8.66699 20.666 23.667 21.999 45c4.66699 80 -15.333 140 -60 180c-25.333 22.667 -60 34 -104 34c-66.667 0 -116.667 -22 -150 -66c-36.667 -48 -55.334 -111.667 -56.001 -191c-0.666992 -104 22.333 -177.333 69 -220
c20 -18 46.333 -27 79 -27c24 0 45.667 5.66699 65 17v32c12 -14.667 26.333 -25.667 43 -33c24.667 -10 47.667 -15.333 69 -16c70 -1.33301 121.667 14 155 46c45.333 43.333 68 137.666 68 282.999c0 160.667 -47 264 -141 310c-35.333 17.333 -76.666 26 -123.999 26
c-74 0 -130.333 -11 -169 -33c-54 -30.667 -87 -75.334 -99 -134.001zM196 128c-27.333 -1.33301 -43 23.665 -47 74.998c-0.666992 12 -1 28.667 -1 50c0.666992 32 7 59.5 19 82.5s27.667 34.5 47 34.5c25.333 0 38 -13.667 38 -41c0 -6 -1.16699 -11.333 -3.5 -16
s-7 -9.16699 -14 -13.5s-12.5 -9.16602 -16.5 -14.499c-17.333 -23.333 -26 -56.666 -26 -99.999c0 -17.333 1.33301 -36.333 4 -57z" />
    <glyph glyph-name="o" unicode="o" horiz-adv-x="470" 
d="M67 462l-0.00195312 -128.001c12 14 34 26.333 66 37c29.333 10 55 15 77 15c65.333 0 99.333 -15.667 102 -47h-110c-57.333 0 -103 -14.333 -137 -43c-36 -30.667 -54.333 -74 -55 -130c-0.666992 -40.667 13.333 -76.667 42 -108c31.333 -35.333 74 -55 128 -59
c-24.667 -7.33301 -37 -26.666 -37 -57.999c0 -38 21 -66.667 63 -86c32.667 -15.333 70.334 -22.666 113.001 -21.999c40.667 0.666992 77.667 8.33398 111 23.001c51.333 22 77 56.667 77 104c0 9.33301 -1 19.333 -3 30h-115c0.666992 -2.66699 1 -5.66699 1 -9
c0 -10.667 -5.83301 -19.334 -17.5 -26.001s-23.167 -10.334 -34.5 -11.001c-32 -1.33301 -48 7.66699 -48 27c0 14.667 16.5 24 49.5 28s68.167 12.667 105.5 26v132c-43.333 -25.333 -102.666 -38 -177.999 -38c-78.667 0 -117 19.333 -115 58s35 58 99 58h189
c0.666992 11.333 1 22.333 1 33c0 63.333 -12.333 114.333 -37 153c-34 52.667 -87.667 79.667 -161 81c-74 1.33301 -132.667 -12 -176 -40z" />
    <glyph glyph-name="p" unicode="p" horiz-adv-x="596" 
d="M171 192c2.66699 34.667 31.667 52 87 52h75c1.33301 13.333 2 27 2 41c0 52.667 -6.33301 93.667 -19 123c-24.667 58 -76 87 -154 87c-50.667 0 -86 -9.66699 -106 -29v-126c26.667 24.667 56.667 37 90 37c40 0 59.667 -14.333 59 -43h-220v-97h90
c-13.333 -6.66699 -24.666 -17.167 -33.999 -31.5s-14.333 -27.833 -15 -40.5c-3.33301 -54.667 18.334 -96.5 65.001 -125.5s117 -43.167 211 -42.5c101.333 1.33301 173.666 31 216.999 89c38 52 57 133 57 243c0 122 -22.833 209.833 -68.5 263.5
s-118.5 80.834 -218.5 81.501c-135.333 0.666992 -217 -52 -245 -158h140c14 18.667 31 31 51 37c14 4.66699 35 7 63 7c94.667 0 142 -76.667 142 -230c0 -13.333 -0.333008 -27.666 -1 -42.999c-2.66699 -52.667 -17.667 -92.334 -45 -119.001
c-23.333 -24.667 -54 -37.334 -92 -38.001c-41.333 -1.33301 -73.833 3.5 -97.5 14.5s-34.834 26.833 -33.501 47.5z" />
    <glyph glyph-name="q" unicode="q" horiz-adv-x="4" 
d="M-558 -52v-122.001h530v382c-8 -32.667 -24 -64.667 -48 -96c-28 -37.333 -58.667 -60.666 -92 -69.999v-94h-390z" />
    <glyph glyph-name="r" unicode="r" horiz-adv-x="510" 
d="M144 509c38 26 66.002 50.3359 84.002 73.0029c10.667 13.333 24 39 40 77h142c-6.66699 -30.667 -17.834 -59.334 -33.501 -86.001s-36.167 -49.334 -61.5 -68.001c10 -0.666992 19 -2 27 -4c66.667 -15.333 111 -60.333 133 -135c10.667 -36 15.667 -76.667 15 -122
c-1.33301 -77.333 -21.333 -137.333 -60 -180c-41.333 -45.333 -101 -68 -179 -68c-159.333 0 -239.666 84.667 -240.999 254c-0.666992 84.667 20.666 150.667 63.999 198c21.333 23.333 44.666 43.666 69.999 60.999zM144.002 249.003
c0 -36.667 9.33301 -66.499 28 -89.499s44 -34.5 76 -34.5c31.333 0 56.166 11.667 74.499 35s27.5 51.666 27.5 84.999c0 88 -33.667 132 -101 132c-33.333 0 -59.166 -12.167 -77.499 -36.5s-27.5 -54.833 -27.5 -91.5z" />
    <glyph glyph-name="s" unicode="s" horiz-adv-x="4" 
d="M-526 521l118 -0.00195312c-4.66699 8.66699 -7 16.334 -7 23.001c0 28 40.333 42 121 42c77.333 0 116 -13 116 -39c0 -7.33301 -3 -16 -9 -26h120c18 22.667 27 46 27 70c0 70 -85.333 105 -256 105s-256 -35 -256 -105c0 -33.333 8.66699 -56.666 26 -69.999z" />
    <glyph glyph-name="t" unicode="t" horiz-adv-x="577" 
d="M296 -1c178 2 265.005 109.666 261.005 322.999c-2 106.667 -31 188.334 -87 245.001c-44.667 46 -103.334 73.333 -176.001 82c-52.667 6.66699 -105.334 7.66699 -158.001 3v-108c8 1.33301 15 2 21 2c16.667 0 30.667 -7.66699 42 -23
c25.333 -35.333 39.666 -54.666 42.999 -57.999c22.667 -24 52 -36 88 -36c24.667 0 44 6 58 18c17.333 -24 27.666 -66 30.999 -126c4 -70.667 -12.333 -123.334 -49 -158.001c-22.667 -21.333 -52 -32.666 -88 -33.999c-84 -3.33301 -126 14 -126 52c0 24 12 39.667 36 47
c11.333 3.33301 31 5 59 5h36c0.666992 12.667 1 25.667 1 39c0 60 -7.33301 105 -22 135c-22.667 45.333 -58.334 69.333 -107.001 72c-54.667 3.33301 -97 -4.66699 -127 -24v-121c24.667 19.333 47 30.666 67 33.999c14.667 2.66699 28 1 40 -5
c14.667 -7.33301 21.667 -19 21 -35h-175v-98h60c-22.667 -15.333 -34 -40.666 -34 -75.999c0 -37.333 12.667 -69.333 38 -96c38.667 -40.667 121 -60.334 247 -59.001zM271.005 538.999c36 0 65.333 -11.333 88 -34c-7.33301 -12 -17.666 -18 -30.999 -18
c-4.66699 0 -9.33398 1 -14.001 3c-8 3.33301 -15.5 11 -22.5 23s-13.833 20.667 -20.5 26z" />
    <glyph glyph-name="u" unicode="u" 
d="M272 375c1.33301 -6.66699 0.333008 -13.333 -3 -20s-5 -11.667 -5 -15c-1.33301 -16 4.66699 -24 18 -24c10 0 15 10.667 15 32c0 20.667 -8.33301 29.667 -25 27zM144 254.001c7.33301 -82.667 54.6689 -124 142.002 -124c36.667 0 67 12.333 91 37
c26.667 27.333 42 67.333 46 120c1.33301 17.333 2 34 2 50c0 148.667 -47.667 223 -143 223c-30 0 -52.333 -2.33301 -67 -7c-18 -6.66699 -34.333 -20.334 -49 -41.001h-140c30.667 108.667 113 162.667 247 162c100 -0.666992 173.167 -28 219.5 -82
s68.833 -141.667 67.5 -263c-0.666992 -110.667 -20 -192 -58 -244c-43.333 -58.667 -115.333 -88 -216 -88c-90 0 -158.333 22.333 -205 67s-70.334 108 -71.001 190c-0.666992 70 7.66602 123.667 24.999 161c8.66699 18 22.667 36 42 54c23.333 21.333 53.333 32 90 32
c12.667 0 26 -1.33301 40 -4c23.333 -4 41 -16 53 -36v33c12 4.66699 23 7 33 7c22.667 0 42.667 -11.667 60 -35c20.667 -27.333 31.667 -61 33 -101c1.33301 -48.667 -6.33398 -88.667 -23.001 -120s-45 -47 -85 -47c-60 0 -92.667 29 -98 87
c-1.33301 14.667 0.333984 29.334 5.00098 44.001s7 24.334 7 29.001c0 12 -5.33301 18 -16 18c-13.333 0 -23 -15 -29 -45c-4.66699 -22.667 -5.66699 -48.334 -3 -77.001z" />
    <glyph glyph-name="v" unicode="v" horiz-adv-x="582" 
d="M153 188c0 22.667 8.00098 40.332 24.001 52.999c19.333 15.333 48.666 23 87.999 23h77c4 58 -1.33301 108 -16 150c-20.667 59.333 -72.334 89 -155.001 89c-61.333 0 -105.333 -10 -132 -30v-118c26.667 17.333 56.667 28 90 32c10.667 1.33301 20 2 28 2
c36.667 0 56 -11.667 58 -35h-230v-88h75c-10 -3.33301 -20.333 -14 -31 -32c-12 -20.667 -18.333 -43 -19 -67c-2 -110.667 52.333 -166.334 163 -167.001c58.667 -0.666992 96 17 112 53c12.667 -21.333 27.667 -35.666 45 -42.999s43 -10.666 77 -9.99902
c110 1.33301 161.333 111.333 154 330c-4 119.333 -27 205 -69 257c-44 54 -116.333 81 -217 81c-65.333 0 -119.166 -13.167 -161.499 -39.5s-69.833 -62.833 -82.5 -109.5h134c20 27.333 59.333 41 118 41c57.333 0 97 -29.333 119 -88c16 -42.667 23.333 -104 22 -184
c-1.33301 -103.333 -16.333 -155 -45 -155c-22.667 0 -34 19.667 -34 59v36h-117v-38c0 -38.667 -13 -58 -39 -58c-24 0 -36 18.667 -36 56z" />
    <glyph glyph-name="w" unicode="w" horiz-adv-x="598" 
d="M55 477l-0.00390625 -129.998c15.333 13.333 38.666 23.666 69.999 30.999c24.667 6 46 9 64 9s34.667 -3 50 -9c20 -8 30.333 -19 31 -33h-78c-51.333 0 -93.666 -14.333 -126.999 -43c-36.667 -32 -55 -74.667 -55 -128c0 -113.333 81 -172.666 243 -177.999
c28.667 -0.666992 53.334 0.666016 74.001 3.99902v-150h128v155c23.333 4.66699 40.333 8.83398 51 12.501l48 16.5v139c-19.333 -10.667 -36.666 -18.667 -51.999 -24c-2 -0.666992 -17.667 -4.66699 -47 -12v36c37.333 1.33301 67.833 12.166 91.5 32.499
s33.834 47.166 30.501 80.499c-2 18 -8.66699 34 -20 48c-6.66699 9.33301 -13.667 18.333 -21 27c-2.66699 6.66699 -4 13.334 -4 20.001c0 15.333 9 23.666 27 24.999v96h-97c-28 0 -52.833 -7.66699 -74.5 -23s-35.834 -34 -42.501 -56
c-21.333 44 -62.666 69.667 -123.999 77c-12 1.33301 -25 2 -39 2c-55.333 0 -97.666 -8.33301 -126.999 -25zM326.996 223.002l0.000976562 -93c-8.66699 -1.33301 -27.334 -2.33301 -56.001 -3c-31.333 -1.33301 -58.333 2.5 -81 11.5s-34.667 20.833 -36 35.5
c-2.66699 32.667 18 49 62 49h111zM454.997 279.002v44.999c0 46.667 9.66699 72.334 29 77.001c-5.33301 -8.66699 -8 -17.334 -8 -26.001c0 -7.33301 2.5 -18.166 7.5 -32.499s6.83301 -25.5 5.5 -33.5c-4 -18.667 -15.333 -28.667 -34 -30z" />
    <glyph glyph-name="x" unicode="x" horiz-adv-x="428" 
d="M213 433c59.333 0 106.5 -20 141.5 -60s52.5 -92 52.5 -156c0 -67.333 -16.667 -120.333 -50 -159s-81.333 -58 -144 -58c-66.667 0 -117.167 19.167 -151.5 57.5s-51.5 92.5 -51.5 162.5c0 64 18 115.5 54 154.5s85.667 58.5 149 58.5zM172 283
c-17.333 -14.667 -26.001 -38.334 -26.001 -71.001c0 -23.333 6 -41.666 18 -54.999s28 -20 48 -20c18.667 0 33.334 6.33301 44.001 19c12.667 16 19 36.333 19 61c0 25.333 -7 45 -21 59c-12 12 -26.667 18 -44 18c-13.333 0 -26 -3.66699 -38 -11z" />
    <glyph glyph-name="y" unicode="y" horiz-adv-x="612" 
d="M212 219c5.33301 0.666992 10.333 1 15 1c25.333 0 38.333 -14.667 39 -44c1.33301 -33.333 -16 -50 -52 -50c-46 0 -68.667 24.667 -68 74c0 21.333 7.66699 39.666 23 54.999c6.66699 6.66699 15.667 10 27 10h15c0 -21.333 0.333008 -36.666 1 -45.999zM380 84
v-76.001c17.333 -6 34 -9 50 -9c47.333 0 86 21.333 116 64s45.333 99 46 169c1.33301 180 -62.334 270 -191.001 270c-49.333 0 -85 -7.66699 -107 -23c-26 -18 -44 -42 -54 -72c-4.66699 22 -12 39.333 -22 52c-19.333 24.667 -42.666 39 -69.999 43
c-10 1.33301 -19.667 2 -29 2c-37.333 0 -69 -9 -95 -27v-120c14.667 16.667 38 25 70 25c22 0 35 -9 39 -27c-28 0 -51 -8 -69 -24c-34 -30.667 -52 -75.667 -54 -135c-2 -64 13 -112 45 -144c19.333 -19.333 37 -32.666 53 -39.999c20 -8.66699 48 -13.667 84 -15
c29.333 -1.33301 58.333 1.33398 87 8.00098c49.333 11.333 83 37.666 101 78.999zM399 143.999c5.33301 46.667 0.667969 85.002 -13.999 115.002c-12.667 25.333 -31.334 41.666 -56.001 48.999c6 44 26 65.333 60 64c18.667 -0.666992 33 -9.33398 43 -26.001
c16 -26.667 24 -61.667 24 -105c0 -78.667 -19.667 -115.667 -59 -111c1.33301 5.33301 2 10 2 14z" />
    <glyph glyph-name="z" unicode="z" horiz-adv-x="199" 
d="M170 707c-26.667 -29.333 -41.001 -65.333 -43.001 -108c-1.33301 -23.333 2.33398 -47 11.001 -71s19.667 -42.333 33 -55h-102c-29.333 24 -48 63 -56 117c-6.66699 47.333 -1.66699 86.333 15 117h142z" />
    <glyph glyph-name="braceleft" unicode="{" horiz-adv-x="1033" 
d="M635 334c12 14 33.9961 26.3359 65.9961 37.0029c29.333 10 55 15 77 15c65.333 0 99.333 -15.667 102 -47h-110c-57.333 0 -103 -14.333 -137 -43c-36 -30.667 -54.333 -74 -55 -130c-0.666992 -40.667 13.333 -76.667 42 -108c31.333 -35.333 74 -55 128 -59
c-24.667 -7.33301 -37 -26.666 -37 -57.999c0 -38 21 -66.667 63 -86c32.667 -15.333 70.334 -22.666 113.001 -21.999c40.667 0.666992 77.667 8.33398 111 23.001c51.333 22 77 56.667 77 104c0 9.33301 -1 19.333 -3 30h-115c0.666992 -2.66699 1 -5.66699 1 -9
c0 -10.667 -5.83301 -19.334 -17.5 -26.001s-23.167 -10.334 -34.5 -11.001c-32 -1.33301 -48 7.66699 -48 27c0 14.667 16.5 24 49.5 28s68.167 12.667 105.5 26v132c-43.333 -25.333 -102.666 -38 -177.999 -38c-78.667 0 -117 19.333 -115 58s35 58 99 58h189
c0.666992 11.333 1 22.333 1 33c0 63.333 -12.333 114.333 -37 153c-33.333 52.667 -87 79.667 -161 81c-50 1.33301 -97.667 -5.66699 -143 -21c-19.333 14 -50 21 -92 21c-46 0 -81.667 -7 -107 -21c-27.333 -15.333 -48.666 -38.666 -63.999 -69.999
c-22 -45.333 -30 -109.333 -24 -192c4.66699 0.666992 9 1 13 1c24 0 36.333 -15.333 37 -46c0.666992 -13.333 -3.66602 -24.666 -12.999 -33.999s-20.333 -14 -33 -14c-16 0 -30 7.83301 -42 23.5s-19.333 36.5 -22 62.5c-6 63.333 -0.666992 108.666 16 135.999
c13.333 21.333 31.333 32 54 32v119c-12.667 1.33301 -40.334 2.33301 -83.001 3c-75.333 1.33301 -127 -3.33398 -155 -14.001c-38.667 -14.667 -70.5 -39.334 -95.5 -74.001s-39.833 -74.667 -44.5 -120c-2 -17.333 -3 -35 -3 -53c0 -107.333 25 -186.333 75 -237h148
c-30.667 15.333 -54 49 -70 101c-12.667 39.333 -20 83.666 -22 132.999c-1.33301 33.333 3 64.666 13 93.999s21.667 47.333 35 54c4 2.66699 11.333 5.66699 22 9c-17.333 -41.333 -26 -94.333 -26 -159c0 -72.667 17.667 -130 53 -172s78.333 -64.333 129 -67
c79.333 -4 135.333 18 168 66c22.667 33.333 34 72.333 34 117c0 29.333 -5.66699 55.666 -17 78.999c-13.333 27.333 -29.333 43.666 -48 48.999c2.66699 48 22.667 71 60 69c34.667 -1.33301 58.334 -15.666 71.001 -42.999z" />
    <glyph glyph-name="bar" unicode="|" horiz-adv-x="651" 
d="M253 378l-0.000976562 -43.999c12 14 34 26.333 66 37c29.333 10 55 15 77 15c65.333 0 99.333 -15.667 102 -47h-110c-57.333 0 -103 -14.333 -137 -43c-36 -30.667 -54.333 -74 -55 -130c-0.666992 -40.667 13.333 -76.667 42 -108c31.333 -35.333 74 -55 128 -59
c-24.667 -7.33301 -37 -26.666 -37 -57.999c0 -38 21 -66.667 63 -86c32.667 -15.333 70.334 -22.666 113.001 -21.999c40.667 0.666992 77.667 8.33398 111 23.001c51.333 22 77 56.667 77 104c0 9.33301 -1 19.333 -3 30h-115c0.666992 -2.66699 1 -5.66699 1 -9
c0 -10.667 -5.83301 -19.334 -17.5 -26.001s-23.167 -10.334 -34.5 -11.001c-32 -1.33301 -48 7.66699 -48 27c0 14.667 16.5 24 49.5 28s68.167 12.667 105.5 26v132c-43.333 -25.333 -102.666 -38 -177.999 -38c-78.667 0 -117 19.333 -115 58s35 58 99 58h189
c0.666992 11.333 1 22.333 1 33c0 63.333 -12.333 114.333 -37 153c-34 53.333 -87.667 80.333 -161 81c-64 0.666992 -107 -5 -129 -17c-18.667 8.66699 -43.667 13 -75 13c-25.333 0 -48 -3.33301 -68 -10c-38.667 -12.667 -71.167 -36.667 -97.5 -72
s-41.833 -76 -46.5 -122c-2 -17.333 -3 -35 -3 -53c0 -107.333 25 -186.333 75 -237h148c-30.667 15.333 -54 49 -70 101c-12.667 39.333 -20 83.666 -22 132.999c-1.33301 32 4 62 16 90c11.333 25.333 24.666 41.666 39.999 48.999c22 10.667 40.667 11 56 1z" />
    <glyph glyph-name="braceright" unicode="}" horiz-adv-x="280" 
d="M10 312h255v-87h-255v87zM10 167h255v-87h-255v87z" />
    <glyph glyph-name="asciitilde" unicode="~" horiz-adv-x="773" 
d="M230 383l-0.000976562 -28.0039c26.667 17.333 56.667 28 90 32c10.667 1.33301 20 2 28 2c36.667 0 56 -11.667 58 -35h-215v-88h60c-10 -3.33301 -20.333 -14 -31 -32c-12 -20.667 -18.333 -43 -19 -67c-2.66699 -110.667 51.666 -166.334 162.999 -167.001
c58.667 -0.666992 96 17 112 53c12.667 -21.333 27.667 -35.666 45 -42.999s43 -10.666 77 -9.99902c110 1.33301 161.333 111.333 154 330c-4 119.333 -27 205 -69 257c-44 54 -116.333 81 -217 81c-65.333 0 -119.166 -13.167 -161.499 -39.5
s-69.833 -62.833 -82.5 -109.5h134c20 27.333 59.333 41 118 41c57.333 0 97 -29.333 119 -88c16 -42.667 23.333 -104 22 -184c-1.33301 -103.333 -16.333 -155 -45 -155c-22.667 0 -34 19.667 -34 59v36h-117v-38c0 -38.667 -13 -58 -39 -58c-24 0 -36 18.667 -36 56
c0 22.667 8 40.334 24 53.001c19.333 15.333 48.666 23 87.999 23h77c4 58 -1.33301 108 -16 150c-17.333 49.333 -54.666 78 -111.999 86c-56 8 -104 4 -144 -12c-13.333 6.66699 -31 10 -53 10c-22.667 0 -40.667 -2.66699 -54 -8
c-38.667 -14.667 -70.667 -39.667 -96 -75s-40.333 -75.666 -45 -120.999c-2 -18 -3 -36 -3 -54c0 -107.333 24.667 -186 74 -236h148c-30.667 15.333 -54 49 -70 101c-12.667 39.333 -20 83.666 -22 132.999c-1.33301 32.667 3 62.334 13 89.001s22 43.667 36 51
c16.667 8.66699 30.334 10.334 41.001 5.00098z" />
    <glyph glyph-name="c128" horiz-adv-x="420" 
 />
    <glyph glyph-name="nonbreakingspace" unicode="&#xa0;" horiz-adv-x="60" 
d="M18 522h141v-173h-141v173z" />
    <glyph glyph-name="exclamdown" unicode="&#xa1;" horiz-adv-x="134" 
d="M65 86c12 0 22.833 -4.33301 32.5 -13s14.5 -20 14.5 -34c0 -12 -4 -22.333 -12 -31c-9.33301 -10.667 -21 -16 -35 -16c-12 0 -22.333 4 -31 12c-10.667 9.33301 -16 21 -16 35c0 12 4.33301 22.833 13 32.5s20 14.5 34 14.5z" />
    <glyph glyph-name="cent" unicode="&#xa2;" horiz-adv-x="651" 
d="M462 498c-12 2.66699 -25 4 -39 4c-31.333 0 -51 -0.666992 -59 -2c-22 10 -33 24.333 -33 43c0 28.667 26.333 43 79 43c52 0 80.333 -12.667 85 -38s-6.33301 -42 -33 -50zM247 334c12 14 34.0039 26.3311 66.0039 36.998c29.333 10 55 15 77 15
c65.333 0 99.333 -15.667 102 -47h-110c-57.333 0 -103 -14.333 -137 -43c-36 -30.667 -54.333 -74 -55 -130c-0.666992 -40.667 13.333 -76.667 42 -108c31.333 -35.333 74 -55 128 -59c-24.667 -7.33301 -37 -26.666 -37 -57.999c0 -38 21 -66.667 63 -86
c32.667 -15.333 70.334 -22.666 113.001 -21.999c40.667 0.666992 77.667 8.33398 111 23.001c51.333 22 77 56.667 77 104c0 9.33301 -1 19.333 -3 30h-115c0.666992 -2.66699 1 -5.66699 1 -9c0 -10.667 -5.83301 -19.334 -17.5 -26.001s-23.167 -10.334 -34.5 -11.001
c-32 -1.33301 -48 7.66699 -48 27c0 14.667 16.5 24 49.5 28s68.167 12.667 105.5 26v132c-43.333 -25.333 -102.666 -38 -177.999 -38c-78.667 0 -117 19.333 -115 58s35 58 99 58h189c0.666992 11.333 1 22.666 1 33.999c0 62.667 -12.333 113.334 -37 152.001
c-8.66699 13.333 -20 26.333 -34 39c53.333 16.667 80 53.667 80 111c0 28 -10.667 53 -32 75c-32 33.333 -95.333 50 -190 50c-80.667 0 -139.334 -15.667 -176.001 -47c-22.667 -19.333 -34 -44.666 -34 -75.999c0 -47.333 23 -80.333 69 -99
c-5.33301 -2.66699 -12 -6.66699 -20 -12c-0.666992 4.66699 -7 9.33398 -19 14.001c-14 6 -29 9 -45 9c-8.66699 0 -17.334 -1 -26.001 -3c-38 -8.66699 -70.333 -30.667 -97 -66s-42.334 -76 -47.001 -122c-2 -17.333 -3 -35 -3 -53c0 -107.333 25 -186.333 75 -237h148
c-30.667 15.333 -54 49 -70 101c-12.667 39.333 -20 83.666 -22 132.999c-1.33301 32 4 61.667 16 89c11.333 24 24.666 39.333 39.999 46c3.33301 1.33301 7.66602 2 12.999 2c29.333 0 41.666 -13.667 36.999 -41z" />
    <glyph glyph-name="sterling" unicode="&#xa3;" horiz-adv-x="651" 
d="M390 386c-22 0 -47.668 -5 -77.001 -15c-32 -11.333 -54 -24 -66 -38c4.66699 28 -7.33301 42 -36 42c-6 0 -10.667 -0.666992 -14 -2c-15.333 -6.66699 -28.666 -22 -39.999 -46c-12 -27.333 -17.333 -57 -16 -89c2 -49.333 9.33301 -93.666 22 -132.999
c16 -52 39.333 -85.667 70 -101h-148c-50 50.667 -75 129.667 -75 237c0 18 1 35.667 3 53c4.66699 46 20.334 86.667 47.001 122s59 57.333 97 66c9.33301 2 18.333 3 27 3c16 0 30 -2.66699 42 -8s19 -10.666 21 -15.999c8 6 14.667 10.333 20 13
c-46 18.667 -69 51.667 -69 99c0 31.333 11.333 56.666 34 75.999c36.667 31.333 95.334 47 176.001 47c94.667 0 158 -16.667 190 -50c21.333 -22 32 -47 32 -75c0 -57.333 -26.667 -94.333 -80 -111c14 -12.667 25.333 -25.667 34 -39
c24.667 -38.667 37 -89.334 37 -152.001c0 -11.333 -0.333008 -22.666 -1 -33.999h-189c-64 0 -97 -19.333 -99 -58s36.333 -58 115 -58c75.333 0 134.666 12.667 177.999 38v-132c-37.333 -13.333 -72.5 -22 -105.5 -26s-49.5 -13.333 -49.5 -28
c0 -19.333 16 -28.333 48 -27c11.333 0.666992 22.833 4.33398 34.5 11.001s17.5 15.334 17.5 26.001c0 3.33301 -0.333008 6.33301 -1 9h115c2 -10.667 3 -20.667 3 -30c0 -47.333 -25.667 -82 -77 -104c-33.333 -14.667 -70.333 -22.334 -111 -23.001
c-42.667 -0.666992 -80.334 6.66602 -113.001 21.999c-42 19.333 -63 48 -63 86c0 31.333 12.333 50.666 37 57.999c-54 4 -96.667 23.667 -128 59c-28.667 31.333 -42.667 67.333 -42 108c0.666992 56 19 99.333 55 130c34 28.667 79.667 43 137 43h110
c-2.66699 31.333 -36.667 47 -102 47zM408.999 502c-11.333 8.66699 -18.667 20.668 -22 36.001c-4 18 -1 34 9 48c-44 -3.33301 -66 -19.333 -66 -48c0 -18.667 11.333 -31.334 34 -38.001c9.33301 1.33301 24.333 2 45 2zM455.998 547.001c0 -10 3.5 -18.667 10.5 -26
s15.833 -11 26.5 -11c10 0 18.667 3.5 26 10.5s11 15.833 11 26.5c0 10 -3.5 18.667 -10.5 26s-15.833 11 -26.5 11c-10 0 -18.667 -3.5 -26 -10.5s-11 -15.833 -11 -26.5z" />
    <glyph glyph-name="currency" unicode="&#xa4;" horiz-adv-x="312" 
d="M21 25h266v-33h-266v33z" />
    <glyph glyph-name="yen" unicode="&#xa5;" horiz-adv-x="465" 
d="M325 2l-0.000976562 -51.9971c-4.66699 8.66699 -15.667 14.334 -33 17.001c-14 2.66699 -27.333 3 -40 1l-80 -24c-6 -2 -11.333 -3 -16 -3c-20.667 0 -31 9.66699 -31 29c0 5.33301 1.33301 10.666 4 15.999h-98c-6 -8.66699 -10 -23.334 -12 -44.001
c-1.33301 -20 0 -36 4 -48c16.667 -54 53 -80.667 109 -80c18 0 37.667 4.66699 59 14l63 28c8.66699 3.33301 18 5 28 5c16 0 30.5 -3.83301 43.5 -11.5s20.5 -16.834 22.5 -27.501h97v335c-43.333 -25.333 -102.666 -38 -177.999 -38c-78.667 0 -117 19.333 -115 58
s35 58 99 58h189c0.666992 11.333 1 22.333 1 33c0 63.333 -12.333 114.333 -37 153c-34 52.667 -87.667 79.667 -161 81c-74 1.33301 -132.667 -12 -176 -40v-128c12 14 34 26.333 66 37c29.333 10 55 15 77 15c65.333 0 99.333 -15.667 102 -47h-110
c-57.333 0 -103 -14.333 -137 -43c-36 -30.667 -54.333 -74 -55 -130c-0.666992 -41.333 13 -77.333 41 -108c31.333 -34.667 74.333 -54.334 129 -59.001c44.667 -4 93 -3 145 3z" />
    <glyph glyph-name="brokenbar" unicode="&#xa6;" horiz-adv-x="200" 
d="M32 294c14 22.667 34.667 33.999 62 33.999c14 0 26.667 -3.33301 38 -10c23.333 -14 35 -35 35 -63c0 -13.333 -3.33301 -25.666 -10 -36.999c-13.333 -23.333 -34.333 -35 -63 -35c-14 0 -26.667 3.66699 -38 11c-23.333 14 -35 34.667 -35 62
c0 14 3.66699 26.667 11 38zM21 124.999h141.999c16.667 -30.667 21.667 -69.667 15 -117c-8 -54 -26.667 -93 -56 -117h-102c13.333 12.667 24.333 31 33 55s12.334 47.667 11.001 71c-2 42.667 -16.333 78.667 -43 108z" />
    <glyph glyph-name="section" unicode="&#xa7;" horiz-adv-x="470" 
d="M229 502c-11.333 8.66699 -18.667 20.668 -22 36.001c-4 18 -1 34 9 48c-44 -3.33301 -66 -19.333 -66 -48c0 -18.667 11.333 -31.334 34 -38.001c9.33301 1.33301 24.333 2 45 2zM449.999 571.001c0 -57.333 -26.666 -94.3311 -79.999 -110.998
c14 -12.667 25.333 -25.667 34 -39c24.667 -38.667 37 -89.334 37 -152.001c0 -11.333 -0.333008 -22.666 -1 -33.999h-189c-64 0 -97 -19.333 -99 -58s36.333 -58 115 -58c75.333 0 134.666 12.667 177.999 38v-132c-37.333 -13.333 -72.5 -22 -105.5 -26
s-49.5 -13.333 -49.5 -28c0 -19.333 16 -28.333 48 -27c11.333 0.666992 22.833 4.33398 34.5 11.001s17.5 15.334 17.5 26.001c0 3.33301 -0.333008 6.33301 -1 9h115c2 -10.667 3 -20.667 3 -30c0 -47.333 -25.667 -82 -77 -104
c-33.333 -14.667 -70.333 -22.334 -111 -23.001c-42.667 -0.666992 -80.334 6.66602 -113.001 21.999c-42 19.333 -63 48 -63 86c0 31.333 12.333 50.666 37 57.999c-54 4 -96.667 23.667 -128 59c-28.667 31.333 -42.667 67.333 -42 108c0.666992 56 19 99.333 55 130
c34 28.667 79.667 43 137 43h110c-2.66699 31.333 -36.667 47 -102 47c-22 0 -47.667 -5 -77 -15c-32 -10.667 -54 -23 -66 -37v128c8 5.33301 14.667 9.33301 20 12c-46 18.667 -69 51.667 -69 99c0 31.333 11.333 56.666 34 75.999c36.667 31.333 95.334 47 176.001 47
c94.667 0 158 -16.667 190 -50c21.333 -22 32 -47 32 -75zM276 547.003c0 -10 3.5 -18.667 10.5 -26s15.833 -11 26.5 -11c10 0 18.667 3.5 26 10.5s11 15.833 11 26.5c0 10 -3.5 18.667 -10.5 26s-15.833 11 -26.5 11c-10 0 -18.667 -3.5 -26 -10.5s-11 -15.833 -11 -26.5z
" />
    <glyph glyph-name="dieresis" unicode="&#xa8;" horiz-adv-x="584" 
d="M426 73c-37.333 -19.333 -80.668 -27 -130.001 -23c-101.333 8.66699 -152 67 -152 175c0 102 48 153 144 153c47.333 0 82.333 -6 105 -18c29.333 -15.333 44 -42.333 44 -81c0 -8 -0.666992 -16.667 -2 -26c-2 -16 -8.83301 -28 -20.5 -36s-22.834 -11.667 -33.501 -11
c-25.333 2 -38 11.667 -38 29c0 19.333 10.667 29 32 29h20v70h-200v-70h41c-11.333 -11.333 -17 -30.333 -17 -57c0 -37.333 12.667 -67.333 38 -90c28 -24.667 67.333 -36.667 118 -36c120.667 2 183.667 58 189 168c8.66699 168.667 -81 253 -269 253
c-88 0 -157.5 -25.167 -208.5 -75.5s-76.5 -118.833 -76.5 -205.5c0 -15.333 1 -31 3 -47c14.667 -140.667 106.334 -211 275.001 -211c40.667 0 83.334 7.66699 128.001 23v-42h-371v-118h506v247h-125z" />
    <glyph glyph-name="copyright" unicode="&#xa9;" horiz-adv-x="588" 
d="M300 462c29.333 26.667 73.667 40.002 133 40.002c40 0 74.667 -8 104 -24v-123c-30 21.333 -63.667 32 -101 32c-36.667 0 -53.667 -14.333 -51 -43h42c41.333 0 75 -15 101 -45c26.667 -32 40 -75 40 -129c0 -46.667 -15.667 -86.834 -47 -120.501s-64 -50.5 -98 -50.5
c-51.333 0 -84.5 4.16699 -99.5 12.5s-26.833 17.5 -35.5 27.5c-22 -28 -65.667 -41.333 -131 -40c-34 0.666992 -64.667 16.167 -92 46.5s-44 68.5 -50 114.5c-3.33301 26.667 -5 54 -5 82c0 113.333 28.667 189.333 86 228c32 21.333 66 32 102 32
c15.333 0 31.666 -1.66699 48.999 -5v-120c-23.333 4.66699 -43.666 3 -60.999 -5c-32.667 -15.333 -47 -61.333 -43 -138c2 -32.667 5 -55.334 9 -68.001c8 -24.667 23.333 -37 46 -37s34 15.667 34 47v39h114v-39c0 -31.333 12.333 -47 37 -47c33.333 0 50 17.333 50 52
c0 42.667 -16.333 64 -49 64h-135c-0.666992 25.333 -1 44 -1 56c0 76 17.333 129.667 52 161zM274.001 634.002l53.002 -0.00195312c3.33301 -11.333 5 -22.666 5 -33.999c0 -26.667 -8.83301 -48.5 -26.5 -65.5s-39.167 -25.167 -64.5 -24.5
c-78.667 2.66699 -117 41.334 -115 116.001c2 78.667 56.667 118 164 118c117.333 0 174.666 -46.667 171.999 -140c-0.666992 -29.333 -10.334 -59.333 -29.001 -90h-109c20.667 27.333 30.667 55.333 30 84c-0.666992 42.667 -22 64 -64 64c-37.333 0 -57 -13.333 -59 -40
c-0.666992 -5.33301 1.5 -10.5 6.5 -15.5s11.167 -7.16699 18.5 -6.5c14.667 2 20.667 13.333 18 34z" />
    <glyph glyph-name="ordfeminine" unicode="&#xaa;" horiz-adv-x="651" 
d="M196 166c-0.666992 -42 13.001 -78.3291 41.001 -108.996c30.667 -34 73.667 -53.333 129 -58c44.667 -4 93 -3 145 3v-52c-4.66699 8.66699 -15.667 14.334 -33 17.001c-14 2.66699 -27.333 3 -40 1l-80 -24c-6 -2 -11.333 -3 -16 -3c-20.667 0 -31 9.66699 -31 29
c0 5.33301 1.33301 10.666 4 15.999h-98c-6 -8.66699 -10 -23.334 -12 -44.001c-1.33301 -20 0 -36 4 -48c16.667 -54 53 -80.667 109 -80c18 0 37.667 4.66699 59 14l63 28c8.66699 3.33301 18 5 28 5c16 0 30.5 -3.83301 43.5 -11.5s20.5 -16.834 22.5 -27.501h97v335
c-43.333 -25.333 -102.666 -38 -177.999 -38c-78.667 0 -117 19.333 -115 58s35 58 99 58h189c0.666992 11.333 1 22.333 1 33c0 63.333 -12.333 114.333 -37 153c-34 53.333 -87.667 80.333 -161 81c-64 0.666992 -107 -5 -129 -17c-18.667 8.66699 -43.667 13 -75 13
c-25.333 0 -48 -3.33301 -68 -10c-38.667 -12.667 -71.167 -36.667 -97.5 -72s-41.833 -76 -46.5 -122c-2 -17.333 -3 -35 -3 -53c0 -107.333 25 -186.333 75 -237h148c-30.667 15.333 -54 49 -70 101c-12.667 39.333 -20 83.666 -22 132.999c-1.33301 32 4 62 16 90
c11.333 25.333 24.666 41.666 39.999 48.999c22 10.667 40.667 11 56 1v-44c12 14 34 26.333 66 37c29.333 10 55 15 77 15c65.333 0 99.333 -15.667 102 -47h-110c-56.667 0 -102.334 -14.333 -137.001 -43c-36 -30.667 -54.333 -74 -55 -130z" />
    <glyph glyph-name="guillemotleft" unicode="&#xab;" horiz-adv-x="376" 
d="M231 308l105 -106l-50 -51l-106 106l-98 -99l-51 51l98 99l-102 102l51 51l102 -103l110 110l51 -51z" />
    <glyph glyph-name="logicalnot" unicode="&#xac;" horiz-adv-x="418" 
d="M18 294h143v140h91v-140h138v-78h-138v-140h-91v140h-143v78z" />
    <glyph glyph-name="minus" unicode="&#xad;" horiz-adv-x="450" 
d="M27 312h387v-96h-387v96zM221 429c9.33301 0 18 -2.33398 26 -7.00098c16 -9.33301 24 -23.666 24 -42.999c0 -14 -4.83301 -25.833 -14.5 -35.5s-21.5 -14.5 -35.5 -14.5s-26 4.83301 -36 14.5s-15 21.5 -15 35.5c0 13.333 5 25 15 35s22 15 36 15zM221 200.999
c9.33301 0 18 -2.33398 26 -7.00098c16 -9.33301 24 -23.666 24 -42.999c0 -14 -4.83301 -25.833 -14.5 -35.5s-21.5 -14.5 -35.5 -14.5s-26 4.83301 -36 14.5s-15 21.5 -15 35.5c0 13.333 5 25 15 35s22 15 36 15z" />
    <glyph glyph-name="minus" unicode="&#x2212;" horiz-adv-x="450" 
d="M27 312h387v-96h-387v96zM221 429c9.33301 0 18 -2.33398 26 -7.00098c16 -9.33301 24 -23.666 24 -42.999c0 -14 -4.83301 -25.833 -14.5 -35.5s-21.5 -14.5 -35.5 -14.5s-26 4.83301 -36 14.5s-15 21.5 -15 35.5c0 13.333 5 25 15 35s22 15 36 15zM221 200.999
c9.33301 0 18 -2.33398 26 -7.00098c16 -9.33301 24 -23.666 24 -42.999c0 -14 -4.83301 -25.833 -14.5 -35.5s-21.5 -14.5 -35.5 -14.5s-26 4.83301 -36 14.5s-15 21.5 -15 35.5c0 13.333 5 25 15 35s22 15 36 15z" />
    <glyph glyph-name="registered" unicode="&#xae;" horiz-adv-x="1000" 
d="M126 212l24.001 -0.000976562c-11.333 -15.333 -17 -32.666 -17 -51.999c0 -20 7.33301 -30 22 -30c13.333 0 20 14.667 20 44v38h72v-38c0 -28.667 5 -43 15 -43c19.333 0 27.666 24 24.999 72c-1.33301 24 -8.83301 45.667 -22.5 65s-27.5 29 -41.5 29
c-3.33301 0 -6.33301 -0.666992 -9 -2c-14.667 -8 -44 -35.667 -88 -83zM444.001 352.999c-10 11.333 -21.3301 18.668 -33.9971 22.001c-28.667 7.33301 -59.334 6 -92.001 -4c25.333 -7.33301 47.333 -26.333 66 -57c20 -33.333 30.667 -71.333 32 -114
c1.33301 -54 -3.66699 -94.333 -15 -121c-20.667 -48.667 -50.334 -75 -89.001 -79c-8.66699 -0.666992 -16.334 -1 -23.001 -1c-39.333 0 -64.666 13.333 -75.999 40c-8 -16.667 -20.667 -27.667 -38 -33c-10.667 -3.33301 -28.334 -5.33301 -53.001 -6
c-31.333 -0.666992 -57.666 10.333 -78.999 33c-12.667 14 -20 33 -22 57c-2 28 2 49.333 12 64h-28v97c5.33301 8 22.333 27.667 51 59c6.66699 7.33301 26.334 27.333 59.001 60c-4 2.66699 -11 4 -21 4c-26.667 0 -50 -7.33301 -70 -22v122
c26.667 18.667 59.667 28 99 28c19.333 0 38.333 -5.66699 57 -17s30 -23 34 -35c37.333 25.333 74.666 41 111.999 47c61.333 10 112.333 7.66699 153 -7c15.333 -5.33301 29.666 -12.666 42.999 -21.999c29.333 20.667 72.333 31 129 31c18 0 38.667 -1 62 -3v-122h-37
c-41.333 0 -70.666 -9 -87.999 -27s-26.333 -49.333 -27 -94c-1.33301 -78 12.667 -117 42 -117c20 0 32.333 16 37 48c3.33301 18.667 4.66602 59 3.99902 121h113c0 -67.333 1 -108.333 3 -123c4 -29.333 15.333 -44 34 -44c31.333 0 47.666 49.667 48.999 149
c1.33301 84 -6 146.667 -22 188c-21.333 56.667 -61 85 -119 85c-30 0 -52.333 -2.33301 -67 -7c-18 -6.66699 -34.333 -20.334 -49 -41.001h-140c30.667 108.667 113 162.667 247 162c100.667 -0.666992 172.334 -26 215.001 -76c44.667 -52 68.667 -141.667 72 -269
c2 -92.667 -8 -167.334 -30 -224.001c-27.333 -70.667 -71.333 -106 -132 -106c-32.667 0 -56.834 3.5 -72.501 10.5s-31.167 21.167 -46.5 42.5c-18 -35.333 -55 -53 -111 -53c-107.333 0.666992 -160 87.667 -158 261c0.666992 38.667 5.33398 69.667 14.001 93z" />
    <glyph glyph-name="macron" unicode="&#xaf;" horiz-adv-x="1005" 
d="M126 212l24.001 -0.000976562c-11.333 -15.333 -17 -32.666 -17 -51.999c0 -20 7.33301 -30 22 -30c13.333 0 20 14.667 20 44v38h72v-38c0 -28.667 5 -43 15 -43c19.333 0 27.666 24 24.999 72c-1.33301 24 -8.83301 45.667 -22.5 65s-27.5 29 -41.5 29
c-3.33301 0 -6.33301 -0.666992 -9 -2c-14.667 -8 -44 -35.667 -88 -83zM448.001 348.999c-10 13.333 -22.6621 22 -37.9951 26c-28.667 7.33301 -59.334 6 -92.001 -4c25.333 -7.33301 47.333 -26.333 66 -57c20 -33.333 30.667 -71.333 32 -114
c1.33301 -54 -3.66699 -94.333 -15 -121c-20.667 -48.667 -50.334 -75 -89.001 -79c-8.66699 -0.666992 -16.334 -1 -23.001 -1c-39.333 0 -64.666 13.333 -75.999 40c-8 -16.667 -20.667 -27.667 -38 -33c-10.667 -3.33301 -28.334 -5.33301 -53.001 -6
c-31.333 -0.666992 -57.666 10.333 -78.999 33c-12.667 14 -20 33 -22 57c-2 28 2 49.333 12 64h-28v97c5.33301 8 22.333 27.667 51 59c6.66699 7.33301 26.334 27.333 59.001 60c-4 2.66699 -11 4 -21 4c-26.667 0 -50 -7.33301 -70 -22v122
c26.667 18.667 59.667 28 99 28c19.333 0 38.333 -5.66699 57 -17s30 -23 34 -35c37.333 25.333 74.666 41 111.999 47c61.333 10 112.333 7.66699 153 -7c30 -10.667 52.333 -24 67 -40c26 13.333 60.667 20 104 20c19.333 0 41 -1.33301 65 -4v-122h-37
c-72.667 0 -111 -31 -115 -93c-4.66699 -76.667 9.33301 -115 42 -115c20 0 32.333 13.333 37 40c3.33301 16 4.66602 49 3.99902 99h113c0 -54.667 1 -88 3 -100c4.66699 -24.667 16 -37 34 -37c31.333 0 47.666 49.667 48.999 149c2 136 -45.333 204 -142 204h-149
c-27.333 0 -51.333 9.66699 -72 29c-18 17.333 -28.333 36.333 -31 57c-0.666992 6.66699 -1 13.667 -1 21c0 49.333 20.667 87.333 62 114c38.667 24.667 105.667 37 201 37c110.667 0 187.334 -15 230.001 -45v-134c-49.333 46 -112 69 -188 69
c-72.667 0 -121.667 -4 -147 -12c-8.66699 -2.66699 -13 -7 -13 -13c0 -8.66699 10 -13 30 -13h151c24 0 49.333 -5.66699 76 -17c23.333 -10 41 -21 53 -33c49.333 -51.333 75.666 -125.333 78.999 -222c3.33301 -91.333 -6.66699 -166 -30 -224
c-28 -70.667 -72.667 -106 -134 -106c-32.667 0 -56.834 3.5 -72.501 10.5s-31.167 21.167 -46.5 42.5c-18 -35.333 -55 -53 -111 -53c-112 0.666992 -165.333 87 -160 259c1.33301 34.667 7.33301 65 18 91z" />
    <glyph glyph-name="macron" unicode="&#x2c9;" horiz-adv-x="1005" 
d="M126 212l24.001 -0.000976562c-11.333 -15.333 -17 -32.666 -17 -51.999c0 -20 7.33301 -30 22 -30c13.333 0 20 14.667 20 44v38h72v-38c0 -28.667 5 -43 15 -43c19.333 0 27.666 24 24.999 72c-1.33301 24 -8.83301 45.667 -22.5 65s-27.5 29 -41.5 29
c-3.33301 0 -6.33301 -0.666992 -9 -2c-14.667 -8 -44 -35.667 -88 -83zM448.001 348.999c-10 13.333 -22.6621 22 -37.9951 26c-28.667 7.33301 -59.334 6 -92.001 -4c25.333 -7.33301 47.333 -26.333 66 -57c20 -33.333 30.667 -71.333 32 -114
c1.33301 -54 -3.66699 -94.333 -15 -121c-20.667 -48.667 -50.334 -75 -89.001 -79c-8.66699 -0.666992 -16.334 -1 -23.001 -1c-39.333 0 -64.666 13.333 -75.999 40c-8 -16.667 -20.667 -27.667 -38 -33c-10.667 -3.33301 -28.334 -5.33301 -53.001 -6
c-31.333 -0.666992 -57.666 10.333 -78.999 33c-12.667 14 -20 33 -22 57c-2 28 2 49.333 12 64h-28v97c5.33301 8 22.333 27.667 51 59c6.66699 7.33301 26.334 27.333 59.001 60c-4 2.66699 -11 4 -21 4c-26.667 0 -50 -7.33301 -70 -22v122
c26.667 18.667 59.667 28 99 28c19.333 0 38.333 -5.66699 57 -17s30 -23 34 -35c37.333 25.333 74.666 41 111.999 47c61.333 10 112.333 7.66699 153 -7c30 -10.667 52.333 -24 67 -40c26 13.333 60.667 20 104 20c19.333 0 41 -1.33301 65 -4v-122h-37
c-72.667 0 -111 -31 -115 -93c-4.66699 -76.667 9.33301 -115 42 -115c20 0 32.333 13.333 37 40c3.33301 16 4.66602 49 3.99902 99h113c0 -54.667 1 -88 3 -100c4.66699 -24.667 16 -37 34 -37c31.333 0 47.666 49.667 48.999 149c2 136 -45.333 204 -142 204h-149
c-27.333 0 -51.333 9.66699 -72 29c-18 17.333 -28.333 36.333 -31 57c-0.666992 6.66699 -1 13.667 -1 21c0 49.333 20.667 87.333 62 114c38.667 24.667 105.667 37 201 37c110.667 0 187.334 -15 230.001 -45v-134c-49.333 46 -112 69 -188 69
c-72.667 0 -121.667 -4 -147 -12c-8.66699 -2.66699 -13 -7 -13 -13c0 -8.66699 10 -13 30 -13h151c24 0 49.333 -5.66699 76 -17c23.333 -10 41 -21 53 -33c49.333 -51.333 75.666 -125.333 78.999 -222c3.33301 -91.333 -6.66699 -166 -30 -224
c-28 -70.667 -72.667 -106 -134 -106c-32.667 0 -56.834 3.5 -72.501 10.5s-31.167 21.167 -46.5 42.5c-18 -35.333 -55 -53 -111 -53c-112 0.666992 -165.333 87 -160 259c1.33301 34.667 7.33301 65 18 91z" />
    <glyph glyph-name="degree" unicode="&#xb0;" horiz-adv-x="1003" 
d="M126 212l24.001 -0.000976562c-11.333 -15.333 -17 -32.666 -17 -51.999c0 -20 7.33301 -30 22 -30c13.333 0 20 14.667 20 44v38h72v-38c0 -28.667 5 -43 15 -43c19.333 0 27.666 24 24.999 72c-1.33301 24 -8.83301 45.667 -22.5 65s-27.5 29 -41.5 29
c-3.33301 0 -6.33301 -0.666992 -9 -2c-14.667 -8 -44 -35.667 -88 -83zM820.001 653.999c-15.333 -3.33301 -24 -12 -26 -26c-1.33301 -9.33301 1.5 -17.333 8.5 -24s15.5 -10 25.5 -10c18.667 0 30 8 34 24c2.66699 10 -1 19 -11 27s-20.333 11 -31 9zM712.001 637.999
c-52.667 1.33301 -90.668 -1.66504 -114.001 -8.99805c-8.66699 -2.66699 -13 -7.33398 -13 -14.001c0 -9.33301 10 -14 30 -14h101c-5.33301 11.333 -6.66602 23.666 -3.99902 36.999zM448 349.001c-12 14 -24.6631 22.665 -37.9961 25.998
c-28.667 7.33301 -59.334 6 -92.001 -4c25.333 -7.33301 47.333 -26.333 66 -57c20 -33.333 30.667 -71.333 32 -114c1.33301 -54 -3.66699 -94.333 -15 -121c-20.667 -48.667 -50.334 -75 -89.001 -79c-8.66699 -0.666992 -16.334 -1 -23.001 -1
c-39.333 0 -64.666 13.333 -75.999 40c-8 -16.667 -20.667 -27.667 -38 -33c-10.667 -3.33301 -28.334 -5.33301 -53.001 -6c-31.333 -0.666992 -57.666 10.333 -78.999 33c-12.667 14 -20 33 -22 57c-2 28 2 49.333 12 64h-28v97c5.33301 8 22.333 27.667 51 59
c6.66699 7.33301 26.334 27.333 59.001 60c-4 2.66699 -11 4 -21 4c-26.667 0 -50 -7.33301 -70 -22v122c26.667 18.667 59.667 28 99 28c19.333 0 38.333 -5.66699 57 -17s30 -23 34 -35c37.333 25.333 74.666 41 111.999 47c61.333 10 112.333 7.66699 153 -7
c26.667 -10 48 -23.333 64 -40c28.667 12.667 65.334 19 110.001 19c18.667 0 39.334 -1 62.001 -3v-122h-37c-72.667 0 -111 -31 -115 -93c-4.66699 -76.667 9.33301 -115 42 -115c20 0 32.333 13.333 37 40c3.33301 16 4.66602 49 3.99902 99h113c0 -54.667 1 -88 3 -100
c4.66699 -24.667 16 -37 34 -37c31.333 0 47.666 49.667 48.999 149c2 136 -45.333 204 -142 204h-159c-27.333 0 -51.333 9.66699 -72 29c-18 17.333 -28.333 36.333 -31 57c-0.666992 6.66699 -1 13.667 -1 21c0 49.333 20.667 87.333 62 114
c38.667 24.667 105.667 37 201 37c56.667 0 98.667 -2 126 -6c57.333 -8 95.333 -25.667 114 -53c10 -14.667 15 -31.667 15 -51c0 -24 -7.66699 -44.333 -23 -61c-10.667 -11.333 -22.334 -18.666 -35.001 -21.999c48 -42.667 75.333 -118 82 -226
c0.666992 -15.333 1 -30.666 1 -45.999c0 -80 -12 -145.333 -36 -196c-28.667 -59.333 -71 -89 -127 -89c-32.667 0 -56.834 3.5 -72.501 10.5s-31.167 21.167 -46.5 42.5c-18 -35.333 -55 -53 -111 -53c-112 0.666992 -165.333 87 -160 259
c1.33301 38 7.33301 68.333 18 91z" />
    <glyph glyph-name="plusminus" unicode="&#xb1;" horiz-adv-x="753" 
d="M67 462l-0.00195312 -128.001c12 14 34 26.333 66 37c29.333 10 55 15 77 15c65.333 0 99.333 -15.667 102 -47h-110c-57.333 0 -103 -14.333 -137 -43c-36 -30.667 -54.333 -74 -55 -130c-0.666992 -40.667 13.333 -76.667 42 -108c31.333 -35.333 74 -55 128 -59
c-24.667 -7.33301 -37 -26.666 -37 -57.999c0 -38 21 -66.667 63 -86c32.667 -15.333 70.334 -22.666 113.001 -21.999c40.667 0.666992 77.667 8.33398 111 23.001c51.333 22 77 56.667 77 104c0 9.33301 -1 19.333 -3 30h-115c0.666992 -2.66699 1 -5.66699 1 -9
c0 -10.667 -5.83301 -19.334 -17.5 -26.001s-23.167 -10.334 -34.5 -11.001c-32 -1.33301 -48 7.66699 -48 27c0 14.667 16.5 24 49.5 28s68.167 12.667 105.5 26v132c-43.333 -25.333 -102.666 -38 -177.999 -38c-78.667 0 -117 19.333 -115 58s35 58 99 58h189
c0.666992 11.333 1 22.333 1 33c0 63.333 -12.333 114.333 -37 153c-34 52.667 -87.667 79.667 -161 81c-74 1.33301 -132.667 -12 -176 -40zM455.998 499.999h280v-115c-48 -36.667 -87.333 -82.334 -118 -137.001c-8.66699 -16 -13 -35 -13 -57
c0 -31.333 10.667 -49.666 32 -54.999c5.33301 -1.33301 11 -2 17 -2c24.667 0 51 18.667 79 56v-142c-14.667 -18 -29.5 -30.167 -44.5 -36.5s-36.167 -10.166 -63.5 -11.499c-51.333 -2.66699 -90.333 7.66602 -117 30.999c-32 27.333 -47 73.333 -45 138
c1.33301 48 14.333 92.333 39 133c22 35.333 47.333 60 76 74h-122v124z" />
    <glyph glyph-name="twosuperior" unicode="&#xb2;" horiz-adv-x="528" 
d="M71 385c45.333 50.667 102.333 76 171 76c60.667 0 113 -20 157 -60c50.667 -45.333 76 -102.333 76 -171c0 -60.667 -20 -113 -60 -157c-45.333 -50.667 -102.333 -76 -171 -76c-60.667 0 -113 20 -157 60c-50.667 45.333 -76 102.333 -76 171c0 60.667 20 113 60 157z
" />
    <glyph glyph-name="threesuperior" unicode="&#xb3;" horiz-adv-x="642" 
d="M13 327l177 -131l-69 -207l179 126l180 -126l-71 207l179 131h-221l-67 206l-69 -206h-218z" />
    <glyph glyph-name="acute" unicode="&#xb4;" horiz-adv-x="586" 
d="M564 328c0.666992 -14.667 1.00293 -29 1.00293 -43c0 -81.333 -11.667 -146.666 -35 -195.999c-27.333 -59.333 -69.333 -89.333 -126 -90c-32.667 0 -57.334 3.5 -74.001 10.5s-32.667 20.833 -48 41.5c-17.333 -34.667 -55 -52 -113 -52
c-108.667 0.666992 -161.667 87.667 -159 261c1.33301 90 27.666 153 78.999 189c19.333 13.333 44 20 74 20c13.333 0 27 -1.33301 41 -4c26 -5.33301 43 -22.666 51 -51.999c1.33301 -8 3 -16.333 5 -25s6 -13 12 -13c14.667 0 22 9.66699 22 29
c0 23.333 -7.33301 42.666 -22 57.999h80c10.667 -9.33301 19.334 -26.666 26.001 -51.999s8.66699 -47.666 6 -66.999c-8.66699 -70 -49.667 -102.333 -123 -97c-30 2 -51.333 12.667 -64 32c-3.33301 5.33301 -7 16.666 -11 33.999
c-2.66699 11.333 -8.66699 16.666 -18 15.999c-12 -0.666992 -19.667 -9.33398 -23 -26.001c-1.33301 -6.66699 -2.33301 -23 -3 -49c-2 -78 11.667 -117 41 -117c17.333 0 28.666 6.33301 33.999 19c2.66699 7.33301 4 21 4 41v31h119v-29c0 -40.667 13.333 -61 40 -61
c32 0 48 50 48 150c0 136 -45.667 204 -137 204h-273v106c52 -2.66699 79 4 81 20c0.666992 4.66699 -2 9 -8 13c-9.33301 6 -14.666 9.66699 -15.999 11c-7.33301 7.33301 -11 16.666 -11 27.999c0 16.667 8 30.334 24 41.001c34 22 102.333 35 205 39
c34.667 1.33301 76 -2 124 -10c55.333 -9.33301 90.666 -21 105.999 -35v-134c-49.333 46 -112 69 -188 69c-38 0 -69.667 -4 -95 -12c-14 -4.66699 -21 -10.334 -21 -17.001c0 -6 9.33301 -9 28 -9h109c24 0 49.333 -5.66699 76 -17c23.333 -10 41 -21 53 -33
c47.333 -49.333 73.666 -123.666 78.999 -222.999z" />
    <glyph glyph-name="mu" unicode="&#xb5;" horiz-adv-x="912" 
d="M67 462l-0.00195312 -128.001c12 14 34 26.333 66 37c29.333 10 55 15 77 15c65.333 0 99.333 -15.667 102 -47h-110c-57.333 0 -103 -14.333 -137 -43c-36 -30.667 -54.333 -74 -55 -130c-0.666992 -40.667 13.333 -76.667 42 -108c31.333 -35.333 74 -55 128 -59
c-24.667 -7.33301 -37 -26.666 -37 -57.999c0 -38 21 -66.667 63 -86c32.667 -15.333 70.334 -22.666 113.001 -21.999c40.667 0.666992 77.667 8.33398 111 23.001c51.333 22 77 56.667 77 104c0 9.33301 -1 19.333 -3 30h-115c0.666992 -2.66699 1 -5.66699 1 -9
c0 -10.667 -5.83301 -19.334 -17.5 -26.001s-23.167 -10.334 -34.5 -11.001c-32 -1.33301 -48 7.66699 -48 27c0 14.667 16.5 24 49.5 28s68.167 12.667 105.5 26v132c-43.333 -25.333 -102.666 -38 -177.999 -38c-78.667 0 -117 19.333 -115 58s35 58 99 58h189
c0.666992 11.333 1 22.333 1 33c0 63.333 -12.333 114.333 -37 153c-34 52.667 -87.667 79.667 -161 81c-74 1.33301 -132.667 -12 -176 -40zM482.998 362.999l-0.00195312 110.001c16 11.333 25.333 17.666 28 18.999c14 6 33.333 9.33301 58 10
c30 0.666992 54.333 -15.333 73 -48c16.667 -29.333 25 -64.333 25 -105c0 -8.66699 -0.333008 -17 -1 -25c-5.33301 -51.333 -15.666 -110.333 -30.999 -177c6 2 12 3 18 3c8.66699 0 19.5 -2.5 32.5 -7.5s22.167 -7.5 27.5 -7.5c18.667 0 28 12 28 36
c0 13.333 -4.33301 25.666 -13 36.999c-20.667 26.667 -35 52 -43 76c-8 26.667 -12 61.334 -12 104.001c0 36.667 13 65.667 39 87c22 18.667 47 27.667 75 27c30.667 -0.666992 56.667 -7 78 -19v-129c-12 13.333 -26.667 20 -44 20c-5.33301 0 -10 -0.666992 -14 -2
c-6 -2.66699 -9 -10.667 -9 -24c0 -16.667 5.33301 -31.667 16 -45c27.333 -34.667 43.666 -56 48.999 -64c13.333 -22 20.333 -46.667 21 -74c1.33301 -44.667 -7 -82 -25 -112c-21.333 -34.667 -53.333 -53 -96 -55c-21.333 -1.33301 -39.666 2.33398 -54.999 11.001
l-35 20c-7.33301 2.66699 -15.666 4 -24.999 4c-28.667 0 -44.667 -9.33301 -48 -28h-130c11.333 34 26.666 89.333 45.999 166c12.667 50 21.334 96.667 26.001 140c3.33301 33.333 0 52.333 -10 57c-14.667 7.33301 -31 5.66602 -49 -5.00098z" />
    <glyph glyph-name="mu" unicode="&#x3bc;" horiz-adv-x="912" 
d="M67 462l-0.00195312 -128.001c12 14 34 26.333 66 37c29.333 10 55 15 77 15c65.333 0 99.333 -15.667 102 -47h-110c-57.333 0 -103 -14.333 -137 -43c-36 -30.667 -54.333 -74 -55 -130c-0.666992 -40.667 13.333 -76.667 42 -108c31.333 -35.333 74 -55 128 -59
c-24.667 -7.33301 -37 -26.666 -37 -57.999c0 -38 21 -66.667 63 -86c32.667 -15.333 70.334 -22.666 113.001 -21.999c40.667 0.666992 77.667 8.33398 111 23.001c51.333 22 77 56.667 77 104c0 9.33301 -1 19.333 -3 30h-115c0.666992 -2.66699 1 -5.66699 1 -9
c0 -10.667 -5.83301 -19.334 -17.5 -26.001s-23.167 -10.334 -34.5 -11.001c-32 -1.33301 -48 7.66699 -48 27c0 14.667 16.5 24 49.5 28s68.167 12.667 105.5 26v132c-43.333 -25.333 -102.666 -38 -177.999 -38c-78.667 0 -117 19.333 -115 58s35 58 99 58h189
c0.666992 11.333 1 22.333 1 33c0 63.333 -12.333 114.333 -37 153c-34 52.667 -87.667 79.667 -161 81c-74 1.33301 -132.667 -12 -176 -40zM482.998 362.999l-0.00195312 110.001c16 11.333 25.333 17.666 28 18.999c14 6 33.333 9.33301 58 10
c30 0.666992 54.333 -15.333 73 -48c16.667 -29.333 25 -64.333 25 -105c0 -8.66699 -0.333008 -17 -1 -25c-5.33301 -51.333 -15.666 -110.333 -30.999 -177c6 2 12 3 18 3c8.66699 0 19.5 -2.5 32.5 -7.5s22.167 -7.5 27.5 -7.5c18.667 0 28 12 28 36
c0 13.333 -4.33301 25.666 -13 36.999c-20.667 26.667 -35 52 -43 76c-8 26.667 -12 61.334 -12 104.001c0 36.667 13 65.667 39 87c22 18.667 47 27.667 75 27c30.667 -0.666992 56.667 -7 78 -19v-129c-12 13.333 -26.667 20 -44 20c-5.33301 0 -10 -0.666992 -14 -2
c-6 -2.66699 -9 -10.667 -9 -24c0 -16.667 5.33301 -31.667 16 -45c27.333 -34.667 43.666 -56 48.999 -64c13.333 -22 20.333 -46.667 21 -74c1.33301 -44.667 -7 -82 -25 -112c-21.333 -34.667 -53.333 -53 -96 -55c-21.333 -1.33301 -39.666 2.33398 -54.999 11.001
l-35 20c-7.33301 2.66699 -15.666 4 -24.999 4c-28.667 0 -44.667 -9.33301 -48 -28h-130c11.333 34 26.666 89.333 45.999 166c12.667 50 21.334 96.667 26.001 140c3.33301 33.333 0 52.333 -10 57c-14.667 7.33301 -31 5.66602 -49 -5.00098z" />
    <glyph glyph-name="paragraph" unicode="&#xb6;" horiz-adv-x="325" 
d="M126 0l-113.998 0.000976562l-1 328c0 115.333 48.667 173 146 173c96 0 145.667 -46.667 149 -140c1.33301 -38.667 -6.33398 -71.667 -23.001 -99c-21.333 -35.333 -55 -53 -101 -53c-10.667 0 -21.667 1 -33 3v98c25.333 0 41.333 10.667 48 32
c2.66699 8.66699 0.666992 17.667 -6 27s-15.334 13.666 -26.001 12.999c-26 -2 -39 -24.333 -39 -67v-315z" />
    <glyph glyph-name="periodcentered" unicode="&#xb7;" horiz-adv-x="325" 
d="M142 277c9.33301 -18.667 41.334 -36.3311 96.001 -52.998c20 -6 36.333 -17.333 49 -34c14.667 -18.667 22 -40.667 22 -66c0 -8.66699 -1 -17.334 -3 -26.001c-6 -32.667 -24.5 -58 -55.5 -76s-70.167 -27 -117.5 -27c-35.333 0 -73 5 -113 15v146
c8 -10.667 21.167 -19.834 39.5 -27.501s36.166 -11.5 53.499 -11.5c28 0 42 8 42 24c0 15.333 -18.333 32.333 -55 51c-56 28 -85.667 73.333 -89 136c-2.66699 48 7.33301 88 30 120c26 35.333 64.667 53 116 53c100 0 149.667 -44.667 149 -134
c0 -28.667 -12 -52.5 -36 -71.5s-51 -28.5 -81 -28.5c-17.333 0 -33 3.33301 -47 10zM126.001 383.003c0 -8.66699 3.16699 -16.334 9.5 -23.001s14.166 -10 23.499 -10c8.66699 0 16.334 3.16699 23.001 9.5s10 14.166 10 23.499c0 8.66699 -3.16699 16.334 -9.5 23.001
s-14.166 10 -23.499 10c-8.66699 0 -16.334 -3.16699 -23.001 -9.5s-10 -14.166 -10 -23.499z" />
    <glyph glyph-name="periodcentered" unicode="&#x2219;" horiz-adv-x="325" 
d="M142 277c9.33301 -18.667 41.334 -36.3311 96.001 -52.998c20 -6 36.333 -17.333 49 -34c14.667 -18.667 22 -40.667 22 -66c0 -8.66699 -1 -17.334 -3 -26.001c-6 -32.667 -24.5 -58 -55.5 -76s-70.167 -27 -117.5 -27c-35.333 0 -73 5 -113 15v146
c8 -10.667 21.167 -19.834 39.5 -27.501s36.166 -11.5 53.499 -11.5c28 0 42 8 42 24c0 15.333 -18.333 32.333 -55 51c-56 28 -85.667 73.333 -89 136c-2.66699 48 7.33301 88 30 120c26 35.333 64.667 53 116 53c100 0 149.667 -44.667 149 -134
c0 -28.667 -12 -52.5 -36 -71.5s-51 -28.5 -81 -28.5c-17.333 0 -33 3.33301 -47 10zM126.001 383.003c0 -8.66699 3.16699 -16.334 9.5 -23.001s14.166 -10 23.499 -10c8.66699 0 16.334 3.16699 23.001 9.5s10 14.166 10 23.499c0 8.66699 -3.16699 16.334 -9.5 23.001
s-14.166 10 -23.499 10c-8.66699 0 -16.334 -3.16699 -23.001 -9.5s-10 -14.166 -10 -23.499z" />
    <glyph glyph-name="cedilla" unicode="&#xb8;" horiz-adv-x="202" 
d="M151 2h-129v497h129v-497zM24 630c14 24 34.667 36 62 36c13.333 0 25.333 -3.33301 36 -10c24 -14 36 -34.667 36 -62c0 -13.333 -3.33301 -25.333 -10 -36c-14 -24 -34.667 -36 -62 -36c-13.333 0 -25.333 3.33301 -36 10c-24 14 -36 34.667 -36 62
c0 13.333 3.33301 25.333 10 36z" />
    <glyph glyph-name="onesuperior" unicode="&#xb9;" horiz-adv-x="398" 
d="M379 499l-110 -498h-152l-108 498h137l45 -343l48 343h140z" />
    <glyph glyph-name="ordmasculine" unicode="&#xba;" horiz-adv-x="398" 
d="M376 1h-135l-48 125l-48 -125h-135l108 262l-98 237h134l39 -113l36 113h137l-98 -237z" />
    <glyph glyph-name="guillemotright" unicode="&#xbb;" horiz-adv-x="194" 
d="M18 -1v619h132v-619h-132z" />
    <glyph glyph-name="onequarter" unicode="&#xbc;" horiz-adv-x="412" 
d="M394 618l-117 -619h-152l-114 619h137l52 -448l54 448h140z" />
    <glyph glyph-name="onehalf" unicode="&#xbd;" horiz-adv-x="412" 
d="M393 0h-149l-40 180l-43 -180h-149l115 313l-107 305h146l38 -169l35 169h146l-106 -302z" />
    <glyph glyph-name="threequarters" unicode="&#xbe;" horiz-adv-x="510" 
d="M10 250c-0.666992 48.667 7.33203 94.001 23.999 136.001v287h128v-151l10 7c22.667 16.667 41.334 34.334 56.001 53.001c10.667 13.333 24 39 40 77h142c-6.66699 -30.667 -17.834 -59.334 -33.501 -86.001s-36.167 -49.334 -61.5 -68.001c10 -0.666992 19 -2 27 -4
c66.667 -15.333 111 -60.333 133 -135c10.667 -36 15.667 -76.667 15 -122c-1.33301 -77.333 -21.333 -137.333 -60 -180c-41.333 -45.333 -101 -68 -179 -68c-159.333 0 -239.666 84.667 -240.999 254zM143.999 249.001c0 -36.667 9.33301 -66.499 28 -89.499
s44 -34.5 76 -34.5c31.333 0 56.166 11.667 74.499 35s27.5 51.666 27.5 84.999c0 88 -33.667 132 -101 132c-33.333 0 -59.166 -12.167 -77.499 -36.5s-27.5 -54.833 -27.5 -91.5z" />
    <glyph glyph-name="questiondown" unicode="&#xbf;" horiz-adv-x="752" 
d="M446 539c36 0 65.333 -11.333 88 -34c-7.33301 -12 -17.666 -18 -30.999 -18c-4.66699 0 -9.33398 1 -14.001 3c-8 3.33301 -15.5 11 -22.5 23s-13.833 20.667 -20.5 26zM207 363l0.00585938 -29.0039c30 23.333 57.333 35 82 35c28.667 0 44 -9 46 -27h-27
c-38 0 -70 -18.333 -96 -55c-18 -25.333 -27 -59.333 -27 -102c0 -19.333 2.33301 -36.666 7 -51.999c14.667 -48.667 43.834 -83.5 87.501 -104.5s107.5 -30.833 191.5 -29.5c178 2 265 109.667 261 323c-2 106.667 -31 188.334 -87 245.001
c-44.667 46 -103.334 73.333 -176.001 82c-52.667 6.66699 -105.334 7.66699 -158.001 3v-108c8 1.33301 15 2 21 2c16.667 0 30.667 -7.66699 42 -23c25.333 -35.333 39.666 -54.666 42.999 -57.999c22.667 -24 52 -36 88 -36c24.667 0 44 6 58 18
c17.333 -24 27.666 -66 30.999 -126s-8.33398 -107.333 -35.001 -142c-24 -31.333 -56 -47.666 -96 -48.999c-78 -2 -121.333 15.333 -130 52c-1.33301 6 -2 11.667 -2 17c0 34 24.667 51 74 51h57c0.666992 10.667 1 21 1 31c0 52.667 -7 95 -21 127
c-19.333 44 -55.333 67.667 -108 71c-28.667 2 -56.334 -0.333008 -83.001 -7c-6.66699 15.333 -26.667 23 -60 23c-12.667 0 -25.334 -2 -38.001 -6c-38 -12 -69.667 -36 -95 -72s-40.333 -77 -45 -123c-2 -18 -3 -36 -3 -54c0 -107.333 24.667 -186 74 -236h148
c-30.667 15.333 -54 49 -70 101c-12.667 39.333 -20 83.666 -22 132.999c-1.33301 32.667 2.5 60.667 11.5 84s20.5 38.333 34.5 45c9.33301 4.66699 16.333 3.33398 21 -3.99902z" />
    <glyph glyph-name="Agrave" unicode="&#xc0;" 
d="M151 232c2 46 26.334 68.999 73.001 68.999h54v123h-86c-48.667 0 -88.334 -13.667 -119.001 -41c-42.667 -38 -63.667 -95 -63 -171c0.666992 -60 13.667 -109 39 -147c30 -44.667 73.333 -67 130 -67c54 0 87 15.667 99 47c8.66699 -14.667 24.667 -26.667 48 -36
s47.666 -13 72.999 -11c107.333 8.66699 161 101.334 161 278.001c0 14.667 -0.333008 30 -1 46c-5.33301 107.333 -35 189.333 -89 246c-44.667 47.333 -102.667 74.333 -174 81c-60.667 6 -113.334 7 -158.001 3v-110c8 2 15.333 3 22 3c16.667 0 30.667 -8 42 -24
c26 -35.333 40 -54 42 -56c22.667 -24 52 -36 88 -36c24.667 0 44 6 58 18c16.667 -35.333 26.334 -77.333 29.001 -126c1.33301 -18.667 2 -36.667 2 -54c0 -88.667 -14 -133.667 -42 -135c-17.333 -0.666992 -28.333 9.66602 -33 30.999
c-1.33301 8.66699 -2 33.334 -2 74.001h-112c0.666992 -40 0 -65 -2 -75c-4 -20.667 -15 -31 -33 -31c-33.333 0 -48.666 33.667 -45.999 101zM273.001 538.999c36 0 65.333 -11.333 88 -34c-7.33301 -12 -17.666 -18 -30.999 -18c-4.66699 0 -9.33398 1 -14.001 3
c-8 3.33301 -15.5 11 -22.5 23s-13.833 20.667 -20.5 26zM53.001 498.999c-35.333 18 -53 52.667 -53 104c0 120 79.333 180 238 180c47.333 0 92.666 -6 135.999 -18c48 -13.333 84.667 -31.666 110 -54.999v-134c-26.667 39.333 -67.667 68.666 -123 87.999
c-42 14.667 -85 22 -129 22c-97.333 0 -146 -30.333 -146 -91c0 -30.667 9.66699 -51 29 -61c7.33301 -4 15.333 -6 24 -6c-1.33301 0 10.667 2.66699 36 8l20 -26c-24 -16 -51 -24 -81 -24c-23.333 0 -43.666 4.33301 -60.999 13z" />
    <glyph glyph-name="Aacute" unicode="&#xc1;" 
d="M138 652c50.667 4 103.997 2.66699 159.997 -4c-2 14.667 -2.66699 25.667 -2 33c-20.667 3.33301 -41.667 5 -63 5c-97.333 0 -146 -30.333 -146 -91c0 -30.667 9.66699 -51 29 -61c7.33301 -4 15.333 -6 24 -6c-1.33301 0 10.667 2.66699 36 8l20 -26
c-24 -16 -51 -24 -81 -24c-23.333 0 -43.666 4.33301 -60.999 13c-35.333 18 -53 52.667 -53 104c0 120.667 87 181 261 181c113.333 0 186.333 -20.667 219 -62c16.667 -21.333 25 -45 25 -71c0 -16 -3.66699 -30.833 -11 -44.5s-17.666 -24.167 -30.999 -31.5
c58 -61.333 89.667 -145.666 95 -252.999c0.666992 -16 1 -31.333 1 -46c0 -176.667 -53.667 -269.334 -161 -278.001c-25.333 -2 -49.666 1.66699 -72.999 11s-39.333 21.333 -48 36c-12 -31.333 -45 -47 -99 -47c-57.333 0 -100.666 22.333 -129.999 67
c-25.333 38 -38.333 87 -39 147c-0.666992 76 20.333 133 63 171c30.667 27.333 70.334 41 119.001 41h86v-123h-54c-46.667 0 -71 -23 -73 -69c-2.66699 -67.333 12.666 -101 45.999 -101c18 0 29 10.333 33 31c2 10 2.66699 35 2 75h112
c0 -40.667 0.666992 -65.334 2 -74.001c4.66699 -21.333 15.667 -31.666 33 -30.999c28 1.33301 42 46.333 42 135c0 17.333 -0.666992 35.333 -2 54c-2.66699 48.667 -12.334 90.667 -29.001 126c-14 -12 -33.333 -18 -58 -18c-36 0 -65.333 12 -88 36
c-2 2 -16 20.667 -42 56c-11.333 16 -25.333 24 -42 24c-6.66699 0 -14 -1 -22 -3v110zM272.997 539c6.66699 -5.33301 13.5 -14 20.5 -26s14.5 -19.667 22.5 -23c4.66699 -2 9.33398 -3 14.001 -3c13.333 0 23.666 6 30.999 18c-22.667 22.667 -52 34 -88 34zM364.997 661
c0 -10.667 3.66699 -19.667 11 -27s16.333 -11 27 -11s19.667 3.66699 27 11s11 16.333 11 27s-3.66699 19.667 -11 27s-16.333 11 -27 11s-19.667 -3.66699 -27 -11s-11 -16.333 -11 -27z" />
    <glyph glyph-name="Acircumflex" unicode="&#xc2;" horiz-adv-x="588" 
d="M216 232c-41.333 0 -62 -15.333 -62 -46c0 -38.667 46.333 -58 139 -58c87.333 0 131 20 131 60c-37.333 0 -65.5 4.5 -84.5 13.5s-34.833 19.167 -47.5 30.5h-76zM349 338c0 -12.667 4.66699 -23.667 14 -33s20.333 -14 33 -14s23.667 4.66699 33 14s14 20.333 14 33
s-4.66699 23.667 -14 33s-20.333 14 -33 14s-23.667 -4.66699 -33 -14s-14 -20.333 -14 -33zM76 493c-20.667 18 -31.001 46.332 -31.001 84.999c0 14 1.66699 25.667 5 35c11.333 35.333 34.333 59 69 71c22 8 56 12 102 12c46.667 0 79.334 -1.66699 98.001 -5
c36 -6.66699 60.667 -21 74 -43c8 -13.333 12 -28.333 12 -45c0 -8.66699 -1.33301 -17.667 -4 -27c12 10 22.333 24 31 42c7.33301 16 10.666 30 9.99902 42h143c0.666992 -49.333 -18.333 -89.666 -57 -120.999c-2.66699 -2 -14.334 -8.66699 -35.001 -20
c-14 -7.33301 -21 -14.666 -21 -21.999c28.667 -10 49.667 -24.667 63 -44c23.333 -33.333 34 -66 32 -98c-2 -34.667 -7.66699 -60.667 -17 -78c12 -22 18 -51.667 18 -89c0 -51.333 -15 -93.333 -45 -126c-20 -21.333 -52.333 -38 -97 -50
c-40.667 -10.667 -85 -16 -133 -16c-115.333 0 -193.666 22 -234.999 66c-32 34 -48 76 -48 126c0 38 9.66699 70.667 29 98c12 17.333 29.5 32 52.5 44s46.167 17.667 69.5 17c34 0 55.667 -0.666992 65 -2c0 17.333 -12.667 29 -38 35
c-18.667 5.33301 -39.667 6.66602 -63 3.99902c-41.333 -4 -72.666 -17 -93.999 -39v124c13.333 10.667 28.333 18.667 45 24zM266.999 476.999c17.333 4.66699 28.665 12.001 33.998 22.001c-31.333 1.33301 -54.666 12 -69.999 32c-8.66699 11.333 -13 25.333 -13 42
c0 5.33301 0.666992 10.333 2 15c-28 2 -46.333 -9 -55 -33c-8 -23.333 -2.66699 -41.333 16 -54c20 -2.66699 35 -5.33398 45 -8.00098c20.667 -4.66699 34.334 -10 41.001 -16zM278.998 580c0 -20.667 10.333 -31 31 -31s31 10.333 31 31s-10.333 31 -31 31
s-31 -10.333 -31 -31z" />
    <glyph glyph-name="Atilde" unicode="&#xc3;" horiz-adv-x="550" 
d="M252 484l-240 -482h482z" />
    <glyph glyph-name="Adieresis" unicode="&#xc4;" horiz-adv-x="578" 
d="M189 108c-2.66699 13.333 -4 27.001 -4 41.001c0 43.333 9 77 27 101l34 41c4 5.33301 6 11.666 6 18.999c0 9.33301 -3.5 17.666 -10.5 24.999s-16.167 11 -27.5 11c-20 0 -36.167 -11.667 -48.5 -35s-18.5 -50.666 -18.5 -81.999c0 -80.667 14 -121 42 -121z
M497 40.001c-23.333 -31.333 -58.9971 -45.3359 -106.997 -42.0029c-17.333 1.33301 -33.833 10.5 -49.5 27.5s-25.5 25.833 -29.5 26.5c-12 1.33301 -18 -7.66699 -18 -27c0 -7.33301 1 -14.666 3 -21.999h-84c-8 17.333 -14.667 39.333 -20 66v-56
c-17.333 -10.667 -35.333 -16 -54 -16c-23.333 0 -44 8 -62 24c-40.667 36.667 -62.667 103.334 -66 200.001c-2.66699 76.667 15.666 140.334 54.999 191.001c33.333 42.667 82.666 64 147.999 64c44.667 0 80 -10.667 106 -32c38 -31.333 57 -74 57 -128
c0 -17.333 -2.33301 -33.666 -7 -48.999s-17.334 -32.333 -38.001 -51c-16.667 -14.667 -24.334 -34.667 -23.001 -60c6 6 12.333 9 19 9c7.33301 0 16.5 -3.66699 27.5 -11s18.5 -11 22.5 -11c12 0 22.5 12.5 31.5 37.5s13.833 60.5 14.5 106.5c2 136 -44.667 204 -140 204
h-265v106c50.667 -2.66699 77 4 79 20c0.666992 4.66699 -2 9 -8 13c-9.33301 6 -14.666 9.66699 -15.999 11c-7.33301 7.33301 -11 16.666 -11 27.999c0 16.667 8 30.334 24 41.001c34 22 103 35 207 39c34.667 1.33301 76 -2 124 -10
c55.333 -9.33301 90.666 -21 105.999 -35v-134c-49.333 46 -112 69 -188 69c-39.333 0 -71.666 -4 -96.999 -12c-14 -4.66699 -21 -10.334 -21 -17.001c0 -6 9.33301 -9 28 -9h111c24 0 49.333 -5.66699 76 -17c23.333 -10 41 -21 53 -33
c46.667 -48.667 72.334 -122.667 77.001 -222c5.33301 -126.667 -16.334 -223 -65.001 -289z" />
    <glyph glyph-name="Aring" unicode="&#xc5;" horiz-adv-x="578" 
d="M189 108c-2.66699 13.333 -4 27.001 -4 41.001c0 43.333 9 77 27 101l34 41c4 5.33301 6 11.666 6 18.999c0 9.33301 -3.5 17.666 -10.5 24.999s-16.167 11 -27.5 11c-20 0 -36.167 -11.667 -48.5 -35s-18.5 -50.666 -18.5 -81.999c0 -80.667 14 -121 42 -121z
M497 40.001c-23.333 -31.333 -58.9961 -45.3379 -106.996 -42.0049c-17.333 1.33301 -33.833 10.5 -49.5 27.5s-25.5 25.833 -29.5 26.5c-12 1.33301 -18 -7.66699 -18 -27c0 -7.33301 1 -14.666 3 -21.999h-84c-8 17.333 -14.667 39.333 -20 66v-56
c-17.333 -10.667 -35.333 -16 -54 -16c-23.333 0 -44 8 -62 24c-40.667 36.667 -62.667 103.334 -66 200.001c-2.66699 76.667 15.666 140.334 54.999 191.001c33.333 42.667 82.666 64 147.999 64c44.667 0 80 -10.667 106 -32c38 -31.333 57 -74 57 -128
c0 -17.333 -2.33301 -33.666 -7 -48.999s-17.334 -32.333 -38.001 -51c-16.667 -14.667 -24.334 -34.667 -23.001 -60c6 6 12.333 9 19 9c7.33301 0 16.5 -3.66699 27.5 -11s18.5 -11 22.5 -11c12 0 22.5 12.5 31.5 37.5s13.833 60.5 14.5 106.5c2 136 -44.667 204 -140 204
h-149c-27.333 0 -51.333 9.66699 -72 29c-18 17.333 -28.333 36.333 -31 57c-0.666992 6.66699 -1 13.667 -1 21c0 49.333 20.667 87.333 62 114c38.667 24.667 105.667 37 201 37c110.667 0 187.334 -15 230.001 -45v-134c-49.333 46 -112 69 -188 69
c-72.667 0 -121.667 -4 -147 -12c-8.66699 -2.66699 -13 -7 -13 -13c0 -8.66699 10 -13 30 -13h151c24 0 49.333 -5.66699 76 -17c23.333 -10 41 -21 53 -33c43.333 -45.333 68.666 -119.333 75.999 -222c1.33301 -15.333 2 -30.333 2 -45
c0 -103.333 -22 -184.666 -66 -243.999z" />
    <glyph glyph-name="AE" unicode="&#xc6;" horiz-adv-x="584" 
d="M411 -1v-56.999c-8.66699 14.667 -25.334 22 -50.001 22c-8 0 -17.667 -0.666992 -29 -2c-17.333 -2 -36.333 -7.66699 -57 -17s-36 -15 -46 -17c-5.33301 -1.33301 -10.666 -2 -15.999 -2c-29.333 0 -44 11 -44 33c0 4.66699 1.33301 9 4 13h-132
c-6.66699 -5.33301 -10.667 -16.666 -12 -33.999c-0.666992 -16 1 -30.667 5 -44c16 -54 58.333 -80.667 127 -80c31.333 0.666992 60 6.33398 86 17.001l74 30c12.667 4 25.667 6 39 6c37.333 0 61.333 -15 72 -45h119v251h-119c-43.333 -12 -84.333 -18 -123 -18
c-43.333 0 -79.666 10 -108.999 30c-32.667 22.667 -51 55 -55 97c-1.33301 13.333 -2 25.666 -2 36.999c0 106 48.333 159 145 159c47.333 0 82.333 -6 105 -18c29.333 -15.333 44 -42.333 44 -81c0 -8 -0.666992 -16.667 -2 -26c-2 -16 -8.83301 -28 -20.5 -36
s-22.834 -11.667 -33.501 -11c-25.333 2 -38 11.667 -38 29c0 19.333 10.667 29 32 29h20v70h-200v-70h41c-11.333 -11.333 -17 -30.333 -17 -57c0 -37.333 12.667 -67.333 38 -90c28 -24.667 67.333 -36.667 118 -36c120.667 2 183.667 58 189 168
c8.66699 168.667 -81 253 -269 253c-93.333 0 -165 -26 -215 -78c-46.667 -48.667 -70 -114 -70 -196c0 -16.667 1 -34.667 3 -54c14 -136.667 106.333 -202.334 277 -197.001c38.667 1.33301 79 8.66602 121 21.999z" />
    <glyph glyph-name="Ccedilla" unicode="&#xc7;" horiz-adv-x="578" 
d="M189 108c-2.66699 13.333 -4 27.001 -4 41.001c0 43.333 9 77 27 101l34 41c4 5.33301 6 11.666 6 18.999c0 9.33301 -3.5 17.666 -10.5 24.999s-16.167 11 -27.5 11c-20 0 -36.167 -11.667 -48.5 -35s-18.5 -50.666 -18.5 -81.999c0 -80.667 14 -121 42 -121z
M497 40.001c-23.333 -31.333 -58.998 -45.3359 -106.998 -42.0029c-17.333 1.33301 -33.833 10.5 -49.5 27.5s-25.5 25.833 -29.5 26.5c-12 1.33301 -18 -7.66699 -18 -27c0 -7.33301 1 -14.666 3 -21.999h-84c-8 17.333 -14.667 39.333 -20 66v-56
c-17.333 -10.667 -35.333 -16 -54 -16c-23.333 0 -44 8 -62 24c-40.667 36.667 -62.667 103.334 -66 200.001c-2.66699 76.667 15.666 140.334 54.999 191.001c33.333 42.667 82.666 64 147.999 64c44.667 0 80 -10.667 106 -32c38 -31.333 57 -74 57 -128
c0 -17.333 -2.33301 -33.666 -7 -48.999s-17.334 -32.333 -38.001 -51c-16.667 -14.667 -24.334 -34.667 -23.001 -60c6 6 12.333 9 19 9c7.33301 0 16.5 -3.66699 27.5 -11s18.5 -11 22.5 -11c12 0 22.5 12.5 31.5 37.5s13.833 60.5 14.5 106.5c2 136 -44.667 204 -140 204
h-149c-27.333 0 -51.333 9.66699 -72 29c-18 17.333 -28.333 36.333 -31 57c-0.666992 6.66699 -1 13.667 -1 21c0 49.333 20.667 87.333 62 114c38.667 24.667 102.334 37 191.001 37c134 0 215.333 -19.667 244 -59c12 -16 18 -35.333 18 -58
c0 -24 -6.66699 -43.333 -20 -58c-9.33301 -10.667 -21.666 -19.334 -36.999 -26.001c50 -56.667 75 -145 75 -265c0 -102.667 -22 -183.667 -66 -243zM400.002 653.998c-15.333 -3.33301 -24 -12 -26 -26c-1.33301 -9.33301 1.5 -17.333 8.5 -24s15.5 -10 25.5 -10
c18.667 0 30 8 34 24c2.66699 10 -1 19 -11 27s-20.333 11 -31 9zM292.002 637.998c-52.667 1.33301 -90.668 -1.66504 -114.001 -8.99805c-8.66699 -2.66699 -13 -7.33398 -13 -14.001c0 -9.33301 10 -14 30 -14h101c-5.33301 11.333 -6.66602 23.666 -3.99902 36.999z" />
    <glyph glyph-name="Egrave" unicode="&#xc8;" horiz-adv-x="470" 
d="M282 498c-12 2.66699 -25 4 -39 4c-31.333 0 -51 -0.666992 -59 -2c-22 10 -33 24.333 -33 43c0 28.667 26.333 43 79 43c52 0 80.333 -12.667 85 -38s-6.33301 -42 -33 -50zM450 571c0 28 -10.668 52.998 -32.001 74.998c-32 33.333 -95.333 50 -190 50
c-80.667 0 -139.334 -15.667 -176.001 -47c-22.667 -19.333 -34 -44.666 -34 -75.999c0 -47.333 23 -80.333 69 -99c-5.33301 -2.66699 -12 -6.66699 -20 -12v-128c12 14 34 26.333 66 37c29.333 10 55 15 77 15c65.333 0 99.333 -15.667 102 -47h-110
c-57.333 0 -103 -14.333 -137 -43c-36 -30.667 -54.333 -74 -55 -130c-0.666992 -40.667 13.333 -76.667 42 -108c31.333 -35.333 74 -55 128 -59c-24.667 -7.33301 -37 -26.666 -37 -57.999c0 -38 21 -66.667 63 -86c32.667 -15.333 70.334 -22.666 113.001 -21.999
c40.667 0.666992 77.667 8.33398 111 23.001c51.333 22 77 56.667 77 104c0 9.33301 -1 19.333 -3 30h-115c0.666992 -2.66699 1 -5.66699 1 -9c0 -10.667 -5.83301 -19.334 -17.5 -26.001s-23.167 -10.334 -34.5 -11.001c-32 -1.33301 -48 7.66699 -48 27
c0 14.667 16.5 24 49.5 28s68.167 12.667 105.5 26v132c-43.333 -25.333 -102.666 -38 -177.999 -38c-78.667 0 -117 19.333 -115 58s35 58 99 58h189c0.666992 11.333 1 22.666 1 33.999c0 62.667 -12.333 113.334 -37 152.001c-8.66699 13.333 -20 26.333 -34 39
c53.333 16.667 80 53.667 80 111z" />
    <glyph glyph-name="Eacute" unicode="&#xc9;" horiz-adv-x="598" 
d="M-15 237l95 0.000976562c-10.667 -3.33301 -22.334 -12.666 -35.001 -27.999s-19.334 -28.333 -20.001 -39c-10 -115.333 82.333 -173 277 -173c101.333 0 174 29.333 218 88c38.667 52.667 58 134 58 244c0 95.333 -25.333 169.333 -76 222c-12 12 -29.667 23 -53 33
c-26.667 11.333 -52 17 -76 17h-122c-18.667 0 -28 3 -28 9c0 6.66699 7 12.334 21 17.001c25.333 8 58 12 98 12c74.667 0 137.334 -17 188.001 -51v130c-16 10 -51.333 18 -106 24c-49.333 6 -90.666 8.33301 -123.999 7c-49.333 -2 -83.666 -4 -102.999 -6
c-46 -6 -81 -17 -105 -33c-16 -10.667 -24 -24.334 -24 -41.001c0 -11.333 3.66699 -20.666 11 -27.999c1.33301 -1.33301 6.66602 -5 15.999 -11c6 -4 8.66699 -8.33301 8 -13c-2 -16 -30.333 -22.667 -85 -20v-106h282c48 0 84.333 -17.833 109 -53.5
s35.334 -85.834 32.001 -150.501c-2.66699 -52.667 -17.667 -92.334 -45 -119.001c-23.333 -24.667 -54 -37.334 -92 -38.001c-41.333 -1.33301 -73.833 3.5 -97.5 14.5s-34.834 26.833 -33.501 47.5c2.66699 34.667 31.667 52 87 52h75c1.33301 13.333 2 26.333 2 39
c0 42 -6.33301 77.667 -19 107c-24.667 58 -76 87 -154 87c-50.667 0 -86 -9.66699 -106 -29v-108c26.667 24.667 56.667 37 90 37c40 0 59.667 -14.333 59 -43h-222v-97z" />
    <glyph glyph-name="Ecircumflex" unicode="&#xca;" horiz-adv-x="588" 
d="M216 232c-41.333 0 -62 -15.333 -62 -46c0 -38.667 46.333 -58 139 -58c87.333 0 131 19.333 131 58c0 30.667 -19 46 -57 46h-151zM433 650h145.998c0.666992 -50 -18 -90.333 -56 -121c-4.66699 -3.33301 -13 -8.33301 -25 -15c-7.33301 -4 -12 -9 -14 -15
c2.66699 0 10.334 -2 23.001 -6c22 -6.66699 36.667 -14.667 44 -24v-126c-19.333 20.667 -51 34.334 -95 41.001c-7.33301 1.33301 -15.333 2 -24 2c-48.667 0 -76 -13.333 -82 -40c10 0.666992 32.667 1 68 1c47.333 0.666992 84.666 -14.333 111.999 -45
c25.333 -28.667 38 -66.667 38 -114c0 -51.333 -15 -93.333 -45 -126c-20 -21.333 -52.333 -38 -97 -50c-40.667 -10.667 -85 -16 -133 -16c-115.333 0 -193.666 22 -234.999 66c-32 34 -48 76 -48 126c0 38 9.66699 70.667 29 98c12 17.333 29.5 32 52.5 44
s46.167 17.667 69.5 17c34 0 55.667 -0.666992 65 -2c0 17.333 -12.667 29 -38 35c-18.667 5.33301 -39.667 6.66602 -63 3.99902c-41.333 -4 -72.666 -17 -93.999 -39v124c25.333 22 62.333 33 111 33c50.667 0 88.667 -6.33301 114 -19v197h124v-143
c36 42 53.667 79.667 53 113z" />
    <glyph glyph-name="Edieresis" unicode="&#xcb;" horiz-adv-x="1006" 
d="M126 212l24.001 -0.000976562c-11.333 -15.333 -17 -32.666 -17 -51.999c0 -20 7.33301 -30 22 -30c13.333 0 20 14.667 20 44v38h72v-38c0 -28.667 5 -43 15 -43c19.333 0 27.666 24 24.999 72c-1.33301 24 -8.83301 45.667 -22.5 65s-27.5 29 -41.5 29
c-3.33301 0 -6.33301 -0.666992 -9 -2c-14.667 -8 -44 -35.667 -88 -83zM634.001 231.999c-41.333 0 -62 -15.335 -62 -46.002c0 -38.667 46.333 -58 139 -58c87.333 0 131 19.333 131 58c0 15.333 -6 27.333 -18 36c-10 -3.33301 -26 -10.333 -48 -21
c-15.333 -10 -23 -25 -23 -45h-129c-3.33301 16.667 -0.333008 31.834 9 45.501s24.333 23.834 45 30.501h-44zM822.001 383.997c-31.333 0 -50 -12.667 -56 -38c10 0.666992 28.667 1 56 1c14.667 4 22 10.667 22 20c0 11.333 -7.33301 17 -22 17zM410.001 374.997
c-28.667 7.33301 -59.332 6 -91.999 -4c25.333 -7.33301 47.333 -26.333 66 -57c20 -33.333 30.667 -71.333 32 -114c1.33301 -54 -3.66699 -94.333 -15 -121c-20.667 -48.667 -50.334 -75 -89.001 -79c-8.66699 -0.666992 -16.334 -1 -23.001 -1
c-39.333 0 -64.666 13.333 -75.999 40c-8 -16.667 -20.667 -27.667 -38 -33c-10.667 -3.33301 -28.334 -5.33301 -53.001 -6c-31.333 -0.666992 -57.666 10.333 -78.999 33c-12.667 14 -20 33 -22 57c-2 28 2 49.333 12 64h-28v97c5.33301 8 22.333 27.667 51 59
c6.66699 7.33301 26.334 27.333 59.001 60c-4 2.66699 -11 4 -21 4c-26.667 0 -50 -7.33301 -70 -22v122c26.667 18.667 59.667 28 99 28c19.333 0 38.333 -5.66699 57 -17s30 -23 34 -35c37.333 25.333 74.666 41 111.999 47c18 2.66699 37.667 4 59 4
c41.333 0 70.666 -5.66699 87.999 -17c19.333 12 48.333 18 87 18c70 0 120 -13.667 150 -41c12 10.667 29.667 19.667 53 27s44.666 11.333 63.999 12c39.333 1.33301 72.333 -7.66699 99 -27c31.333 -22 46.333 -54 45 -96c-0.666992 -27.333 -13 -48.666 -37 -63.999
c34.667 -22 52 -63.667 52 -125c0 -51.333 -15 -93.333 -45 -126c-20 -21.333 -52.333 -38 -97 -50c-40.667 -10.667 -85 -16 -133 -16c-115.333 0 -193.666 22 -234.999 66c-32 34 -48 76 -48 126c0 38 9.66699 70.667 29 98c12 17.333 29.5 32 52.5 44
s46.167 17.667 69.5 17c34 0 55.667 -0.666992 65 -2c0 17.333 -12.667 29 -38 35c-18.667 5.33301 -39.667 6.66602 -63 3.99902c-41.333 -4 -72.666 -17 -93.999 -39c-8.66699 15.333 -21.667 25.333 -39 30z" />
    <glyph glyph-name="Igrave" unicode="&#xcc;" horiz-adv-x="985" 
d="M177 112c0 -21.333 10 -32 30 -32c21.333 0 32 10 32 30c0 21.333 -10 32 -30 32c-21.333 0 -32 -10 -32 -30zM414 232c-41.333 0 -62 -15.333 -62 -46c0 -38.667 46.333 -58 139 -58c87.333 0 131 19.333 131 58c0 30.667 -19 46 -57 46h-151zM766 142
c-20 0 -30 -10.667 -30 -32c0 -20 10.667 -30 32 -30c20 0 30 10.667 30 32c0 20 -10.667 30 -32 30zM256 510c-1.33301 14.667 -8.66797 20.667 -22.001 18c-30 -6 -54 -29.333 -72 -70c-14.667 -35.333 -22.667 -76.666 -24 -123.999c-1.33301 -46 4 -93.333 16 -142
c16.667 13.333 35 19.333 55 18c2.66699 28.667 12 54 28 76c12 17.333 29.5 32 52.5 44s46.167 17.667 69.5 17c34 0 55.667 -0.666992 65 -2c0 17.333 -12.667 29 -38 35c-18.667 5.33301 -39.667 6.66602 -63 3.99902c-41.333 -4 -72.666 -17 -93.999 -39v124
c4 4 9.33301 7.66699 16 11c7.33301 6.66699 11 16.667 11 30zM637.998 501c-17.333 9.33301 -26 26.335 -26 51.002c0 27.333 10.667 48.333 32 63c18.667 12.667 42 19 70 19c9.33301 0 19.666 -0.666992 30.999 -2c70.667 -6.66699 126 -42.334 166 -107.001
c36.667 -58.667 54.667 -128.334 54 -209.001c-0.666992 -84 -13.667 -153.667 -39 -209c-31.333 -70 -77.666 -105 -138.999 -105c-37.333 0 -67 13.667 -89 41c-45.333 -28.667 -114.333 -43 -207 -43c-96.667 -0 -167.334 14.333 -212.001 43
c-25.333 -27.333 -55.666 -41 -90.999 -41c-61.333 0 -107.666 35 -138.999 105c-25.333 55.333 -38.333 125 -39 209c-0.666992 80.667 17.333 150.334 54 209.001c40 64.667 95.333 100.334 166 107.001c11.333 1.33301 21.666 2 30.999 2c28 0 51.333 -6.33301 70 -19
c21.333 -14.667 32 -35.334 32 -62.001c0 -21.333 -7.66699 -38.333 -23 -51c68.667 1.33301 118.667 -12.334 150 -41.001c30 26.667 79.333 40 148 40zM748.998 469.002v-125.999c-19.333 20.667 -51 34.334 -95 41.001c-7.33301 1.33301 -15.333 2 -24 2
c-48.667 0 -76 -13.333 -82 -40c10 0.666992 32.667 1 68 1c54.667 0.666992 96.667 -20 126 -62c12 -17.333 19.667 -42.333 23 -75c22.667 0 41.334 -6 56.001 -18c12 48.667 17.333 96 16 142c-1.33301 47.333 -9.33301 88.666 -24 123.999c-18 40.667 -42 64 -72 70
c-12.667 2.66699 -20 -3.33301 -22 -18c-0.666992 -8.66699 1 -16.334 5 -23.001c11.333 -4.66699 19.666 -10.667 24.999 -18z" />
    <glyph glyph-name="Iacute" unicode="&#xcd;" horiz-adv-x="510" 
d="M144 249c0 -36.667 9.33301 -66.499 28 -89.499s44 -34.5 76 -34.5c31.333 0 56.166 11.667 74.499 35s27.5 51.666 27.5 84.999c0 88 -33.667 132 -101 132c-33.333 0 -59.166 -12.167 -77.499 -36.5s-27.5 -54.833 -27.5 -91.5zM276 632.001
c9.33301 13.333 17.334 27.665 24.001 42.998h142c-6.66699 -29.333 -23.334 -63 -50.001 -101c-17.333 -24.667 -43 -47.667 -77 -69c10 -0.666992 19 -2 27 -4c66.667 -15.333 111 -60.333 133 -135c10.667 -36 15.667 -76.667 15 -122
c-1.33301 -77.333 -21.333 -137.333 -60 -180c-41.333 -45.333 -101 -68 -179 -68c-159.333 0 -239.666 84.667 -240.999 254c-0.666992 72.667 13.666 129 42.999 169c-36 14.667 -57 41.334 -63 80.001c-1.33301 7.33301 -2 14.666 -2 21.999
c0 48.667 19.833 90.834 59.5 126.501s80.5 53.5 122.5 53.5c22.667 0 44 -5.66699 64 -17s34 -28.666 42 -51.999zM144.001 509c2 1.33301 6.66797 4.66602 14.001 9.99902c-8.66699 0.666992 -16.667 4.66699 -24 12c-9.33301 9.33301 -14 20.333 -14 33
c-17.333 -11.333 -26 -27.333 -26 -48c0 -7.33301 1.33301 -14 4 -20c0.666992 -1.33301 4.66699 -6.66602 12 -15.999c11.333 11.333 22.666 21 33.999 29zM171.002 607c-9.33301 -14 -6.66602 -26 8.00098 -36c14 -9.33301 26 -6.66602 36 8.00098
c9.33301 14 6.66602 26 -8.00098 36c-14 9.33301 -26 6.66602 -36 -8.00098z" />
    <glyph glyph-name="Icircumflex" unicode="&#xce;" 
d="M273 539c36 0 65.333 -11.333 88 -34c-7.33301 -12 -17.666 -18 -30.999 -18c-4.66699 0 -9.33398 1 -14.001 3c-8 3.33301 -15.5 11 -22.5 23s-13.833 20.667 -20.5 26zM154 188c4.66699 36.667 33.3311 54.9971 85.998 54.9971h47c1.33301 12 2 24.333 2 37
c0 52 -7.33301 94.667 -22 128c-19.333 44.667 -55.333 68.334 -108 71.001c-54.667 3.33301 -97 -4.66699 -127 -24v-121c13.333 10.667 23 17.667 29 21c12 6.66699 24.667 11 38 13c14 2 27.833 -0.666992 41.5 -8s20.167 -18.333 19.5 -33h-163v-93h47
c-12 -8.66699 -21 -22.5 -27 -41.5s-8 -36.833 -6 -53.5c4.66699 -45.333 21.834 -80.166 51.501 -104.499s67.834 -36.5 114.501 -36.5c55.333 0 89 15.667 101 47c8.66699 -14.667 24.667 -26.667 48 -36s47.666 -13 72.999 -11c107.333 8.66699 161 101.334 161 278.001
c0 14.667 -0.333008 30 -1 46c-5.33301 107.333 -35 189.333 -89 246c-44.667 47.333 -102.667 74.333 -174 81c-60.667 6 -113.334 7 -158.001 3v-110c8 2 15.333 3 22 3c16.667 0 30.667 -8 42 -24c26 -35.333 40 -54 42 -56c22.667 -24 52 -36 88 -36
c24.667 0 44 6 58 18c16.667 -35.333 26.334 -77.333 29.001 -126c1.33301 -18.667 2 -36.667 2 -54c0 -88.667 -14 -133.667 -42 -135c-23.333 -1.33301 -35 14.667 -35 48v40h-112v-43c0 -30.667 -11.667 -46 -35 -46c-33.333 0 -47.666 19 -42.999 57zM51.9971 498.997
c-35.333 18 -53 52.667 -53 104c0 120 79.333 180 238 180c47.333 0 92.666 -6 135.999 -18c48 -13.333 84.667 -31.666 110 -54.999v-134c-26.667 39.333 -67.667 68.666 -123 87.999c-42 14.667 -85 22 -129 22c-97.333 0 -146 -30.333 -146 -91
c0 -30.667 9.66699 -51 29 -61c7.33301 -4 15.333 -6 24 -6c-1.33301 0 10.667 2.66699 36 8l20 -26c-24 -16 -51 -24 -81 -24c-23.333 0 -43.666 4.33301 -60.999 13z" />
    <glyph glyph-name="Idieresis" unicode="&#xcf;" horiz-adv-x="1330" 
d="M177 112c0 -21.333 10 -32 30 -32c21.333 0 32 10 32 30c0 21.333 -10 32 -30 32c-21.333 0 -32 -10 -32 -30zM414 232c-41.333 0 -62 -15.333 -62 -46c0 -38.667 46.333 -58 139 -58c87.333 0 131 19.333 131 58c0 30.667 -19 46 -57 46h-151zM766 142
c-20 0 -30 -10.667 -30 -32c0 -20 10.667 -30 32 -30c20 0 30 10.667 30 32c0 20 -10.667 30 -32 30zM256 510c-1.33301 14.667 -8.66797 20.667 -22.001 18c-30 -6 -54 -29.333 -72 -70c-14.667 -35.333 -22.667 -76.666 -24 -123.999c-1.33301 -46 4 -93.333 16 -142
c16.667 13.333 35 19.333 55 18c2.66699 28.667 12 54 28 76c12 17.333 29.5 32 52.5 44s46.167 17.667 69.5 17c34 0 55.667 -0.666992 65 -2c0 17.333 -12.667 29 -38 35c-18.667 5.33301 -39.667 6.66602 -63 3.99902c-41.333 -4 -72.666 -17 -93.999 -39v124
c4 4 9.33301 7.66699 16 11c7.33301 6.66699 11 16.667 11 30zM637.998 501c-17.333 9.33301 -26 26.335 -26 51.002c0 27.333 10.667 48.333 32 63c18.667 12.667 42 19 70 19c9.33301 0 19.666 -0.666992 30.999 -2c70.667 -6.66699 126 -42.334 166 -107.001
c36.667 -58.667 54.667 -128.334 54 -209.001c-0.666992 -84 -13.667 -153.667 -39 -209c-31.333 -70 -77.666 -105 -138.999 -105c-37.333 0 -67 13.667 -89 41c-45.333 -28.667 -114.333 -43 -207 -43c-96.667 -0 -167.334 14.333 -212.001 43
c-25.333 -27.333 -55.666 -41 -90.999 -41c-61.333 0 -107.666 35 -138.999 105c-25.333 55.333 -38.333 125 -39 209c-0.666992 80.667 17.333 150.334 54 209.001c40 64.667 95.333 100.334 166 107.001c11.333 1.33301 21.666 2 30.999 2c28 0 51.333 -6.33301 70 -19
c21.333 -14.667 32 -35.334 32 -62.001c0 -21.333 -7.66699 -38.333 -23 -51c68.667 1.33301 118.667 -12.334 150 -41.001c30 26.667 79.333 40 148 40zM748.998 469.002v-125.999c-19.333 20.667 -51 34.334 -95 41.001c-7.33301 1.33301 -15.333 2 -24 2
c-48.667 0 -76 -13.333 -82 -40c10 0.666992 32.667 1 68 1c54.667 0.666992 96.667 -20 126 -62c12 -17.333 19.667 -42.333 23 -75c22.667 0 41.334 -6 56.001 -18c12 48.667 17.333 96 16 142c-1.33301 47.333 -9.33301 88.666 -24 123.999c-18 40.667 -42 64 -72 70
c-12.667 2.66699 -20 -3.33301 -22 -18c-0.666992 -8.66699 1 -16.334 5 -23.001c11.333 -4.66699 19.666 -10.667 24.999 -18zM993.998 497.003l116.001 -0.000976562c-18 -28.667 -27 -72 -27 -130c0 -28 4 -41.333 12 -40c6 0.666992 9 10 9 28v16
c-0.666992 7.33301 -1 13.333 -1 18c0 75.333 33.333 113 100 113c71.333 0 107 -86.667 107 -260c0 -65.333 -14.333 -119.666 -43 -162.999c-30 -46 -71.333 -72 -124 -78c-12 -1.33301 -23.667 -2 -35 -2c-46 0 -85 10.333 -117 31v132
c26.667 -28.667 63 -40.334 109 -35.001c45.333 5.33301 69.666 43 72.999 113c1.33301 32 0.333008 61 -3 87c-4.66699 28.667 -11 41 -19 37c-4.66699 -2.66699 -7 -10.334 -7 -23.001c0 -5.33301 0.5 -15.166 1.5 -29.499s1.5 -25.5 1.5 -33.5c0 -58 -24.667 -90 -74 -96
c-63.333 -7.33301 -95 52.334 -95 179.001c0 56.667 5.33301 102 16 136z" />
    <glyph glyph-name="Eth" unicode="&#xd0;" 
d="M273 539c6.66699 -5.33301 13.5 -14 20.5 -26s14.5 -19.667 22.5 -23c4.66699 -2 9.33398 -3 14.001 -3c13.333 0 23.666 6 30.999 18c-22.667 22.667 -52 34 -88 34zM559 322c0.666992 -16 1.00293 -31.332 1.00293 -45.999c0 -176.667 -53.667 -269.334 -161 -278.001
c-25.333 -2 -49.666 1.66699 -72.999 11s-39.333 21.333 -48 36c-12 -31.333 -45.667 -47 -101 -47c-46.667 0 -84.834 12.167 -114.501 36.5s-46.834 59.166 -51.501 104.499c-2 16.667 0 34.5 6 53.5s15 32.833 27 41.5h-47v93h163
c0.666992 14.667 -5.83301 25.667 -19.5 33s-27.5 10 -41.5 8c-19.333 -2.66699 -41.666 -14 -66.999 -34v121c30 19.333 72.333 27.333 127 24c52.667 -2.66699 88.667 -26.334 108 -71.001c14.667 -33.333 22 -76 22 -128c0 -12.667 -0.666992 -25 -2 -37h-47
c-52.667 0 -81.334 -18.333 -86.001 -55c-4.66699 -38 9.66602 -57 42.999 -57c23.333 0 35 15.333 35 46v43h112v-40c0 -33.333 11.667 -49.333 35 -48c28 1.33301 42 46.333 42 135c0 17.333 -0.666992 35.333 -2 54c-2.66699 48.667 -12.334 90.667 -29.001 126
c-14 -12 -33.333 -18 -58 -18c-36 0 -65.333 12 -88 36c-2 2 -16 20.667 -42 56c-11.333 16 -25.333 24 -42 24c-6.66699 0 -14 -1 -22 -3v110c48 4 100.333 3 157 -3c-2 12.667 -2.66699 23.334 -2 32.001c-20.667 3.33301 -41.667 5 -63 5
c-97.333 0 -146 -30.333 -146 -91c0 -30.667 9.66699 -51 29 -61c7.33301 -4 15.333 -6 24 -6c-1.33301 0 10.667 2.66699 36 8l20 -26c-24 -16 -51 -24 -81 -24c-23.333 0 -43.666 4.33301 -60.999 13c-35.333 18 -53 52.667 -53 104c0 120.667 87 181 261 181
c113.333 0 186.333 -20.667 219 -62c16.667 -21.333 25 -45 25 -71c0 -16 -3.83301 -31 -11.5 -45s-16.834 -24.333 -27.501 -31c58 -59.333 89.667 -143.666 95 -252.999zM362.003 661.001c0 -10.667 3.66699 -19.667 11 -27s16.333 -11 27 -11s19.667 3.66699 27 11
s11 16.333 11 27s-3.66699 19.667 -11 27s-16.333 11 -27 11s-19.667 -3.66699 -27 -11s-11 -16.333 -11 -27z" />
    <glyph glyph-name="Ntilde" unicode="&#xd1;" horiz-adv-x="588" 
d="M-15 334l-0.000976562 -96.998h78c-10.667 -3.33301 -21.167 -12.166 -31.5 -26.499s-15.833 -26.833 -16.5 -37.5c-5.33301 -117.333 87 -176 277 -176c101.333 0 174 29.333 218 88c38.667 52.667 58 134 58 244c0 95.333 -25.333 169.333 -76 222
c-12 12 -29.667 23 -53 33c-26.667 11.333 -52 17 -76 17h-161c-20 0 -30 4.33301 -30 13c0 12.667 34.333 20.667 103 24c20.667 0.666992 39.667 1 57 1c74.667 0 137.334 -17 188.001 -51v130c-45.333 20.667 -122 31 -230 31c-95.333 0 -162.333 -12.333 -201 -37
c-41.333 -26.667 -62 -64.667 -62 -114c0 -7.33301 0.333008 -14.333 1 -21c2.66699 -20.667 13 -39.667 31 -57c20.667 -19.333 44.667 -29 72 -29h159c48 0 84.333 -17.833 109 -53.5s35.334 -85.834 32.001 -150.501c-2.66699 -52.667 -17.667 -92.334 -45 -119.001
c-23.333 -24.667 -54 -37.334 -92 -38.001c-41.333 -1.33301 -73.833 3.5 -97.5 14.5s-34.834 26.833 -33.501 47.5c2 34.667 31 52 87 52h75c1.33301 13.333 2 26.333 2 39c0 42 -6.33301 77.667 -19 107c-24.667 58 -76 87 -154 87c-50.667 0 -86 -9.66699 -106 -29v-108
c26.667 24.667 56.667 37 90 37c40 0 59.667 -14.333 59 -43h-212z" />
    <glyph glyph-name="Ograve" unicode="&#xd2;" horiz-adv-x="579" 
d="M138 652c47.333 4 101.668 2.66504 163.001 -4.00195c-2 14.667 -2.66699 25.667 -2 33c-20.667 3.33301 -41.667 5 -63 5c-97.333 0 -146 -30.333 -146 -91c0 -30.667 9.66699 -51 29 -61c7.33301 -4 15.333 -6 24 -6c-1.33301 0 10.667 2.66699 36 8l20 -26
c-24 -16 -51 -24 -81 -24c-23.333 0 -43.666 4.33301 -60.999 13c-35.333 18 -53 52.667 -53 104c0 120.667 87 181 261 181c113.333 0 186.333 -20.667 219 -62c16.667 -21.333 25 -45 25 -71c0 -16 -3.66699 -31 -11 -45
c-6.66699 -11.333 -16.334 -21.666 -29.001 -30.999c60 -64 90 -148.333 90 -253c0 -213.333 -91 -321 -273 -323c-88.667 -1.33301 -156.667 17.667 -204 57c-44 36 -67.667 88 -71 156c-3.33301 75.333 16.667 132.333 60 171c30.667 27.333 71 41 121 41h86v-123h-54
c-48.667 0 -73 -23 -73 -69c0 -69.333 43.667 -102.666 131 -99.999c39.333 1.33301 71.666 17.333 96.999 48c28 34 42 81 42 141c0 55.333 -10.333 97.333 -31 126c-14 -12 -33.333 -18 -58 -18c-36 0 -65.333 12 -88 36c-2 2 -16 20.667 -42 56
c-11.333 16 -25.333 24 -42 24c-6.66699 0 -14 -1 -22 -3v110zM273.002 538.998c6.66699 -5.33301 13.5 -14 20.5 -26s14.5 -19.667 22.5 -23c4.66699 -2 9.33398 -3 14.001 -3c13.333 0 23.666 6 30.999 18c-22.667 22.667 -52 34 -88 34zM368.002 660.998
c0 -10.667 3.66699 -19.667 11 -27s16.333 -11 27 -11s19.667 3.66699 27 11s11 16.333 11 27s-3.66699 19.667 -11 27s-16.333 11 -27 11s-19.667 -3.66699 -27 -11s-11 -16.333 -11 -27z" />
    <glyph glyph-name="Oacute" unicode="&#xd3;" horiz-adv-x="579" 
d="M138 652v-109.999c8 2 15.333 3 22 3c16.667 0 30.667 -8 42 -24c26 -35.333 40 -54 42 -56c22.667 -24 52 -36 88 -36c24.667 0 44 6 58 18c20.667 -28.667 31 -70.667 31 -126c0 -60 -14 -107 -42 -141c-25.333 -30.667 -57.666 -46.667 -96.999 -48
c-87.333 -2.66699 -131 30.666 -131 99.999c0 46 24.333 69 73 69h54v123h-86c-50 0 -90.333 -13.667 -121 -41c-43.333 -38.667 -63.333 -95.667 -60 -171c3.33301 -68 27 -120 71 -156c47.333 -39.333 115.333 -58.333 204 -57c182 2 273 109.667 273 323
c0 106.667 -28.333 188.667 -85 246c-46 47.333 -105.333 74.333 -178 81c-60.667 6 -113.334 7 -158.001 3zM273 539.001c36 0 65.333 -11.333 88 -34c-7.33301 -12 -17.666 -18 -30.999 -18c-4.66699 0 -9.33398 1 -14.001 3c-8 3.33301 -15.5 11 -22.5 23
s-13.833 20.667 -20.5 26zM54 499.001c-35.333 18 -53 52.667 -53 104c0 120 79.333 180 238 180c47.333 0 92.666 -6 135.999 -18c48 -13.333 84.667 -31.666 110 -54.999v-134c-26.667 39.333 -67.667 68.666 -123 87.999c-42 14.667 -85 22 -129 22
c-97.333 0 -146 -30.333 -146 -91c0 -30.667 9.66699 -51 29 -61c7.33301 -4 15.333 -6 24 -6c-1.33301 0 10.667 2.66699 36 8l20 -26c-24 -16 -51 -24 -81 -24c-23.333 0 -43.666 4.33301 -60.999 13z" />
    <glyph glyph-name="Ocircumflex" unicode="&#xd4;" horiz-adv-x="588" 
d="M216 232c-41.333 0 -62 -15.333 -62 -46c0 -38.667 46.333 -58 139 -58c87.333 0 131 19.333 131 58c0 30.667 -19 46 -57 46h-151zM442 660l142.999 -0.000976562c0.666992 -49.333 -18.333 -89.666 -57 -120.999c-2.66699 -2 -14 -8.33301 -34 -19
c-12.667 -6.66699 -18.667 -13.667 -18 -21c10.667 -1.33301 21 -3.33301 31 -6c22 -6.66699 36.667 -14.667 44 -24v-126c-19.333 20.667 -51 34.334 -95 41.001c-7.33301 1.33301 -15.333 2 -24 2c-48.667 0 -76 -13.333 -82 -40c10 0.666992 32.667 1 68 1
c47.333 0.666992 84.666 -14.333 111.999 -45c25.333 -28.667 38 -66.667 38 -114c0 -51.333 -15 -93.333 -45 -126c-20 -21.333 -52.333 -38 -97 -50c-40.667 -10.667 -85 -16 -133 -16c-115.333 0 -193.666 22 -234.999 66c-32 34 -48 76 -48 126
c0 38 9.66699 70.667 29 98c12 17.333 29.5 32 52.5 44s46.167 17.667 69.5 17c34 0 55.667 -0.666992 65 -2c0 17.333 -12.667 29 -38 35c-18.667 5.33301 -39.667 6.66602 -63 3.99902c-41.333 -4 -72.666 -17 -93.999 -39v124c11.333 10 26.333 18 45 24
c-20.667 18 -31 46.333 -31 85c0 14 1.66699 25.667 5 35c11.333 35.333 34.333 59 69 71c22 8 56 12 102 12c46.667 0 79.334 -1.66699 98.001 -5c36 -6.66699 60.667 -21 74 -43c8 -13.333 12 -28.333 12 -45c0 -8.66699 -1.33301 -17.667 -4 -27c12 10 22.333 24 31 42
c7.33301 16 10.666 30 9.99902 42zM266.999 476.999c17.333 4.66699 28.665 12.001 33.998 22.001c-31.333 1.33301 -54.666 12 -69.999 32c-8.66699 11.333 -13 25.333 -13 42c0 5.33301 0.666992 10.333 2 15c-28 2 -46.333 -9 -55 -33
c-8 -23.333 -2.66699 -41.333 16 -54c20 -2.66699 35 -5.33398 45 -8.00098c20.667 -4.66699 34.334 -10 41.001 -16zM278.998 580c0 -20.667 10.333 -31 31 -31s31 10.333 31 31s-10.333 31 -31 31s-31 -10.333 -31 -31z" />
    <glyph glyph-name="Otilde" unicode="&#xd5;" horiz-adv-x="787" 
d="M185 236c0 -72.667 17.668 -129.995 53.001 -171.995s78.333 -64.333 129 -67c79.333 -4 135.333 18 168 66c22.667 33.333 34 72.333 34 117c0 29.333 -5.66699 55.666 -17 78.999c-13.333 27.333 -29.333 43.666 -48 48.999c2.66699 48 22.667 71 60 69
c19.333 -0.666992 34.666 -10 45.999 -28c14 -23.333 21 -59.333 21 -108c0 -82.667 -21.333 -121 -64 -115v-120c12.667 -4 25.667 -6 39 -6c44 0 81.667 21.167 113 63.5s47.333 98.5 48 168.5c1.33301 180 -62.334 270 -191.001 270c-46 0 -81.667 -7 -107 -21
c-27.333 -15.333 -48.666 -38.666 -63.999 -69.999c-22 -45.333 -30 -109.333 -24 -192c4.66699 0.666992 9 1 13 1c24 0 36.333 -15.333 37 -46c0.666992 -13.333 -3.66602 -24.666 -12.999 -33.999s-20.333 -14 -33 -14c-16 0 -30 7.83301 -42 23.5s-19.333 36.5 -22 62.5
c-6 63.333 -0.666992 108.666 16 135.999c13.333 21.333 31.333 32 54 32v119c-12.667 1.33301 -40.334 2.33301 -83.001 3c-75.333 1.33301 -127 -3.33398 -155 -14.001c-38.667 -14.667 -70.5 -39.334 -95.5 -74.001s-39.833 -74.667 -44.5 -120c-2 -17.333 -3 -35 -3 -53
c0 -107.333 25 -186.333 75 -237h148c-30.667 15.333 -54 49 -70 101c-12.667 39.333 -20 83.666 -22 132.999c-1.33301 33.333 3 64.666 13 93.999s21.667 47.333 35 54c4 2.66699 11.333 5.66699 22 9c-17.333 -41.333 -26 -94.333 -26 -159z" />
    <glyph glyph-name="Odieresis" unicode="&#xd6;" horiz-adv-x="598" 
d="M417 654c-15.333 -3.33301 -24 -12 -26 -26c-1.33301 -9.33301 1.5 -17.333 8.5 -24s15.5 -10 25.5 -10c18.667 0 30 8 34 24c2.66699 10 -1 19 -11 27s-20.333 11 -31 9zM309 638c-52.667 1.33301 -90.668 -1.66504 -114.001 -8.99805
c-8.66699 -2.66699 -13 -7.33398 -13 -14.001c0 -9.33301 10 -14 30 -14h101c-5.33301 11.333 -6.66602 23.666 -3.99902 36.999zM-15.001 334.002l222.001 -0.00585938c0.666992 28.667 -19 43 -59 43c-33.333 0 -63.333 -12.333 -90 -37v108c20 19.333 55.333 29 106 29
c78 0 129.333 -29 154 -87c12.667 -29.333 19 -65 19 -107c0 -12.667 -0.666992 -25.667 -2 -39h-75c-55.333 0 -84.333 -17.333 -87 -52c-1.33301 -20.667 9.83398 -36.5 33.501 -47.5s56.167 -15.833 97.5 -14.5c38 0.666992 68.667 13.334 92 38.001
c27.333 26.667 42.333 66.334 45 119.001c3.33301 64.667 -7.33398 114.834 -32.001 150.501s-61 53.5 -109 53.5h-159c-27.333 0 -51.333 9.66699 -72 29c-18 17.333 -28.333 36.333 -31 57c-0.666992 6.66699 -1 13.667 -1 21c0 49.333 20.667 87.333 62 114
c38.667 24.667 105.667 37 201 37c56.667 0 98.667 -2 126 -6c57.333 -8 95.333 -25.667 114 -53c10 -14.667 15 -31.667 15 -51c0 -24 -7.66699 -44.333 -23 -61c-10.667 -11.333 -22.334 -18.666 -35.001 -21.999c2 -1.33301 3.16699 -2.16602 3.5 -2.49902
s0.833008 -1.16602 1.5 -2.49902c50.667 -52 76 -126 76 -222c0 -110 -19.333 -191.333 -58 -244c-44 -58.667 -116.667 -88 -218 -88c-194 0 -286.333 57 -277 171c2 28 19.667 51 53 69h-93v97z" />
    <glyph glyph-name="multiply" unicode="&#xd7;" horiz-adv-x="1054" 
d="M578 166c-0.666992 -40.667 13.3291 -76.6611 41.9961 -107.994c31.333 -34.667 74 -54.334 128 -59.001c26 -2 57.667 -2 95 0v-49c20 12 46 18 78 18c28.667 0 43.334 -9 44.001 -27c0.666992 -8 -7.66602 -14.833 -24.999 -20.5s-36 -8.5 -56 -8.5
c-13.333 0 -24.333 1.33301 -33 4v-90c18.667 -4 40 -6 64 -6c32 0 62.667 3.33301 92 10c24.667 5.33301 45.667 15.666 63 30.999c22.667 18.667 34 41 34 67c0 30 -11.833 53.667 -35.5 71s-54.834 27.333 -93.501 30l38 14v114
c-43.333 -25.333 -102.666 -38 -177.999 -38c-78.667 0 -117 19.333 -115 58s35 58 99 58h189c0.666992 11.333 1 22.333 1 33c0 63.333 -12.333 114.333 -37 153c-33.333 52.667 -87 79.667 -161 81c-50 1.33301 -97.667 -5.66699 -143 -21c-19.333 14 -50 21 -92 21
c-46 0 -81.667 -7 -107 -21c-27.333 -15.333 -48.666 -38.666 -63.999 -69.999c-22 -45.333 -30 -109.333 -24 -192c4.66699 0.666992 9 1 13 1c24 0 36.333 -15.333 37 -46c0.666992 -13.333 -3.66602 -24.666 -12.999 -33.999s-20.333 -14 -33 -14
c-16 0 -30 7.83301 -42 23.5s-19.333 36.5 -22 62.5c-6 63.333 -0.666992 108.666 16 135.999c13.333 21.333 31.333 32 54 32v119c-12.667 1.33301 -40.334 2.33301 -83.001 3c-75.333 1.33301 -127 -3.33398 -155 -14.001c-38.667 -14.667 -70.5 -39.334 -95.5 -74.001
s-39.833 -74.667 -44.5 -120c-2 -17.333 -3 -35 -3 -53c0 -107.333 25 -186.333 75 -237h148c-30.667 15.333 -54 49 -70 101c-12.667 39.333 -20 83.666 -22 132.999c-1.33301 33.333 3 64.666 13 93.999s21.667 47.333 35 54c4 2.66699 11.333 5.66699 22 9
c-17.333 -41.333 -26 -94.333 -26 -159c0 -72.667 17.667 -130 53 -172s78.333 -64.333 129 -67c79.333 -4 135.333 18 168 66c22.667 33.333 34 72.333 34 117c0 29.333 -5.66699 55.666 -17 78.999c-13.333 27.333 -29.333 43.666 -48 48.999c2.66699 48 22.667 71 60 69
c34.667 -1.33301 58.334 -15.666 71.001 -42.999c12 14 34 26.333 66 37c29.333 10 55 15 77 15c65.333 0 99.333 -15.667 102 -47h-110c-57.333 0 -103 -14.333 -137 -43c-36 -30.667 -54.333 -74 -55 -130z" />
    <glyph glyph-name="Oslash" unicode="&#xd8;" horiz-adv-x="1096" 
d="M322 212l24.001 -0.000976562c-11.333 -15.333 -17 -32.666 -17 -51.999c0 -20 7.33301 -30 22 -30c13.333 0 20 14.667 20 44v38h72v-38c0 -28.667 5 -43 15 -43c19.333 0 27.666 24 24.999 72c-1.33301 24 -8.83301 45.667 -22.5 65s-27.5 29 -41.5 29
c-3.33301 0 -6.33301 -0.666992 -9 -2c-14.667 -8 -44 -35.667 -88 -83zM768.001 176.999c-2 -38.667 36.335 -58.0029 115.002 -58.0029c75.333 0 134.666 12.667 177.999 38v-114c-3.33301 -1.33301 -16 -6 -38 -14c38.667 -2.66699 69.834 -12.667 93.501 -30
s35.5 -41 35.5 -71c0 -26 -11.333 -48.333 -34 -67c-17.333 -15.333 -38.333 -25.666 -63 -30.999c-29.333 -6.66699 -60 -10 -92 -10c-24 0 -45.333 2 -64 6v90c8.66699 -2.66699 19.667 -4 33 -4c20 0 38.667 2.83301 56 8.5s25.666 12.5 24.999 20.5
c-0.666992 18 -15.334 27 -44.001 27c-32 0 -58 -6 -78 -18v49c-37.333 -2 -69 -2 -95 0c-54 4.66699 -96.667 24.334 -128 59.001c-28.667 31.333 -42.667 67.333 -42 108c0.666992 56 19 99.333 55 130c34 28.667 79.667 43 137 43h110
c-2.66699 31.333 -36.667 47 -102 47c-22 0 -47.667 -5 -77 -15c-32 -10.667 -54 -23 -66 -37c-17.333 18 -43 31.667 -77 41c-28 8 -58.667 6.66699 -92 -4c25.333 -7.33301 47.333 -26.333 66 -57c20 -33.333 30.667 -71.333 32 -114
c1.33301 -54.667 -3.66699 -95.334 -15 -122.001c-20.667 -48 -50.334 -74 -89.001 -78c-8.66699 -0.666992 -16.334 -1 -23.001 -1c-39.333 0 -64.666 13.333 -75.999 40c-8 -16.667 -20.667 -27.667 -38 -33c-10.667 -3.33301 -28.334 -5.33301 -53.001 -6
c-31.333 -0.666992 -57.666 10.333 -78.999 33c-12.667 14 -20 33 -22 57c-2 28 2 49.333 12 64h-28v97c5.33301 8 22.333 27.667 51 59c6.66699 7.33301 26.334 27.333 59.001 60c-4 2.66699 -11 4 -21 4c-26.667 0 -50 -7.33301 -70 -22v37
c-7.33301 3.33301 -17.666 1.33301 -30.999 -6s-25 -24.666 -35 -51.999c-10 -29.333 -14.333 -60.333 -13 -93c2 -49.333 9.33301 -93.666 22 -132.999c16 -52 39.333 -85.667 70 -101h-148c-49.333 50 -74 128.667 -74 236c0 18 1 36 3 54c4.66699 46 19.667 87 45 123
s57 60.333 95 73c12.667 4 26.667 6 42 6c18.667 0 32.667 -3.66699 42 -11c18 11.333 45 17 81 17c19.333 0 38.333 -5.66699 57 -17s30 -23 34 -35c37.333 25.333 74.666 41 111.999 47c60.667 10 111.667 7.66699 153 -7c10.667 -4 20.667 -9 30 -15
c30 11.333 46 17.333 48 18c26.667 6.66699 62 9.66699 106 9c73.333 -1.33301 127 -28.333 161 -81c24.667 -38.667 37 -89.667 37 -153c0 -10.667 -0.333008 -21.667 -1 -33h-189c-64 0 -97 -19.333 -99 -58z" />
    <glyph glyph-name="Ugrave" unicode="&#xd9;" horiz-adv-x="582" 
d="M88 366c0 -18 9 -27 27 -27s27 9 27 27s-9 27 -27 27s-27 -9 -27 -27zM407 0c-34 -0.666992 -59.6689 2.66699 -77.002 10s-32.333 21.666 -45 42.999c-16 -36 -53.333 -53.667 -112 -53c-111.333 0.666992 -165.666 56.334 -162.999 167.001
c1.33301 39.333 20.333 69.666 57 90.999c14 8 46.333 15.333 97 22c36.667 4.66699 59.667 19.334 69 44.001c2 4.66699 3 10 3 16c0 14 -4.5 27.167 -13.5 39.5s-20.167 18.833 -33.5 19.5c6.66699 -12.667 10 -25.667 10 -39c0 -22 -8.66699 -40.167 -26 -54.5
s-37.333 -21.5 -60 -21.5c-16.667 0 -32.667 4 -48 12c-30 15.333 -45 42.333 -45 81c0 16 3.66699 30.667 11 44c21.333 38.667 62.333 58 123 58c92 0 150 -29 174 -87c6.66699 -16.667 10 -37.334 10 -62.001c0 -28 -4.66699 -50.333 -14 -67
c-14.667 -25.333 -35.667 -41.666 -63 -48.999c-18 -2 -42.333 -5.66699 -73 -11c-17.333 -4 -28.333 -11 -33 -21c-2.66699 -5.33301 -4 -10.666 -4 -15.999c0 -22.667 12.667 -34 38 -34c16 0 26.5 3.33301 31.5 10s7.5 18 7.5 34v16h117v-18c0 -27.333 11.333 -41 34 -41
c28.667 0 43.667 51.667 45 155c2 135.333 -45 203 -141 203h-259v106c42.667 -2.66699 65 4 67 20c0.666992 4.66699 -2 9 -8 13c-9.33301 6 -14.666 9.66699 -15.999 11c-7.33301 7.33301 -11 16.666 -11 27.999c0 16.667 8 30.334 24 41.001c33.333 22 104.333 35 213 39
c34.667 1.33301 76 -2 124 -10c55.333 -9.33301 90.666 -21 105.999 -35v-134c-49.333 46 -112 69 -188 69c-43.333 0 -77.666 -4 -102.999 -12c-14 -4.66699 -21 -10.334 -21 -17.001c0 -6 9.33301 -9 28 -9h117c24 0 49.333 -5.66699 76 -17c23.333 -10 41 -21 53 -33
c47.333 -49.333 73 -123.333 77 -222c3.33301 -93.333 -5 -168 -25 -224c-26 -69.333 -69.333 -104.333 -130 -105z" />
    <glyph glyph-name="Uacute" unicode="&#xda;" horiz-adv-x="577" 
d="M557 322c4 -213.333 -83.0039 -320.996 -261.004 -322.996c-84 -1.33301 -147.833 8.5 -191.5 29.5s-72.834 55.833 -87.501 104.5c-4.66699 15.333 -7 32.666 -7 51.999c0 42.667 9 76.667 27 102c26 36.667 58 55 96 55h27c-2 18 -17.333 27 -46 27
c-24.667 0 -52 -11.667 -82 -35v121c30 19.333 72.333 27.333 127 24c52.667 -2.66699 88.667 -26.334 108 -71.001c14 -32 21 -74.333 21 -127c0 -10 -0.333008 -20.333 -1 -31h-57c-49.333 0 -74 -17 -74 -51c0 -5.33301 0.666992 -11 2 -17
c8.66699 -36.667 52 -54 130 -52c40 1.33301 72 17.666 96 48.999c26.667 34.667 38.334 82 35.001 142s-13.666 102 -30.999 126c-14 -12 -33.333 -18 -58 -18c-36 0 -65.333 12 -88 36c-3.33301 3.33301 -17.666 22.666 -42.999 57.999c-11.333 15.333 -25.333 23 -42 23
c-6 0 -13 -0.666992 -21 -2v108c50.667 4 104.334 3 161.001 -3c-2 15.333 -2.66699 26 -2 32c-20.667 3.33301 -41.667 5 -63 5c-97.333 0 -146 -30.333 -146 -91c0 -30.667 9.66699 -51 29 -61c7.33301 -4 15.333 -6 24 -6c-1.33301 0 10.667 2.66699 36 8l20 -26
c-24 -16 -51 -24 -81 -24c-23.333 0 -43.666 4.33301 -60.999 13c-35.333 18 -53 52.667 -53 104c0 120.667 87 181 261 181c113.333 0 186.333 -20.667 219 -62c16.667 -21.333 25 -45 25 -71c0 -30.667 -14 -56 -42 -76c60.667 -62 92 -146.333 94 -253zM270.996 539.004
c6.66699 -5.33301 13.5 -14 20.5 -26s14.5 -19.667 22.5 -23c4.66699 -2 9.33398 -3 14.001 -3c13.333 0 23.666 6 30.999 18c-22.667 22.667 -52 34 -88 34zM363.996 661.004c0 -10.667 3.66699 -19.667 11 -27s16.333 -11 27 -11s19.667 3.66699 27 11s11 16.333 11 27
s-3.66699 19.667 -11 27s-16.333 11 -27 11s-19.667 -3.66699 -27 -11s-11 -16.333 -11 -27z" />
    <glyph glyph-name="Ucircumflex" unicode="&#xdb;" horiz-adv-x="1008" 
d="M168 495v212.002c0 13.333 -5.83301 26.666 -17.5 39.999s-24.167 20 -37.5 20h-89l1 -311h-17c-10.667 0 -16.334 -5 -17.001 -15c3.33301 -2 9 -3.33301 17 -4s14 -2 18 -4v-210c0 -6.66699 4 -10.334 12 -11.001c4 0 8.33301 2.66699 13 8v215l60 -1
c12.667 0 25.334 7 38.001 21s19 27.333 19 40zM144 495.002c0 -10 -4.16504 -19.001 -12.498 -27.001s-17.5 -12 -27.5 -12h-53v290h61c7.33301 0 14.166 -4.16699 20.499 -12.5s10.166 -17.166 11.499 -26.499v-212zM331.002 266.001v492.001c0 6 -4 9.33301 -12 10
c-8 0 -12 -4 -12 -12l1 -490c0 -26 -15.333 -39 -46 -39c-16 0 -28 3.5 -36 10.5s-12 16.5 -12 28.5v492c0 6 -4 9.33301 -12 10c-8 0 -12 -4 -12 -12v-487c0 -20 6.66699 -35.5 20 -46.5s30.333 -16.833 51 -17.5c18.667 -0.666992 35 4.66602 49 15.999s21 26.333 21 45z
M501.002 366.002c0 14.667 -1 30.001 -3 46.001c-1.33301 12.667 -5 21 -11 25c-14.667 10.667 -36.834 18.667 -66.501 24s-44.5 12 -44.5 20l1 228c0 13.333 5.16699 23.666 15.5 30.999s22.166 11 35.499 11c29.333 0.666992 45.333 -11.333 48 -36
c1.33301 -14.667 4 -37 8 -67l17 1v35c0 58.667 -25 88 -75 88c-19.333 0 -36.5 -5.5 -51.5 -16.5s-22.5 -25.833 -22.5 -44.5v-220c0 -22 9.33301 -37.667 28 -47c6 -3.33301 24 -8.33301 54 -15c22 -4.66699 35.333 -12 40 -22
c0.666992 -1.33301 2.33398 -6.66602 5.00098 -15.999c0 -8.66699 0.333008 -15.667 1 -21c0 -10 -0.166992 -17.167 -0.5 -21.5s-1.16602 -10.166 -2.49902 -17.499c0 -19.333 0.666992 -33.666 2 -42.999c0 -40 -16.667 -60.667 -50 -62
c-14 -0.666992 -25.5 3.16602 -34.5 11.499s-13.5 19.166 -13.5 32.499v63c-2 4.66699 -5.33301 7.33398 -10 8.00098c-6 0 -10 -4 -12 -12c0 -5.33301 -0.666992 -14.333 -2 -27c0 -30.667 4.33301 -53.334 13 -68.001c11.333 -18.667 31.333 -28.334 60 -29.001
c48 -0.666992 72 31.333 72 96c0 8.66699 -0.333008 15 -1 19v46zM657.002 220.003v538.002c0 6 -4 9.33301 -12 10c-8 0 -12 -4 -12 -12v-300h-92l1 302c0 6 -4 9.33301 -12 10c-6 0 -10 -5.33301 -12 -16l-2 -296c-16.667 0 -28 -1.66699 -34 -5v-12l36 -6v-210
c0 -6.66699 4 -10.334 12 -11.001c5.33301 0 9.33301 2.66699 12 8v214h91v-211c0 -6.66699 4 -10.334 12 -11.001c5.33301 0 9.33301 2.66699 12 8zM819.002 495.005l-0.000976562 212.002c0 13.333 -5.83301 26.666 -17.5 39.999s-24.167 20 -37.5 20h-89l1 -311h-17
c-10 0 -15.667 -5 -17 -15c3.33301 -2 9 -3.33301 17 -4s14 -2 18 -4v-210c0 -6.66699 4 -10.334 12 -11.001c4 0 8.33301 2.66699 13 8v215l60 -1c12.667 0 25.334 7 38.001 21s19 27.333 19 40zM795.001 495.007c0 -10 -4.16504 -19.001 -12.498 -27.001
s-17.5 -12 -27.5 -12h-53v290h61c7.33301 0 14.166 -4.16699 20.499 -12.5s10.166 -17.166 11.499 -26.499v-212zM984.003 220.006l-0.000976562 492c0 18.667 -6.66699 33.334 -20 44.001s-29.666 16.334 -48.999 17.001c-24 0.666992 -40.833 -3.83301 -50.5 -13.5
s-17.167 -27.167 -22.5 -52.5l-1 -251h-17c-10 0 -15.667 -5 -17 -15c3.33301 -2 9 -3.33301 17 -4s14 -2 18 -4v-210c0 -6.66699 4 -10.334 12 -11.001c4 0 8.33301 2.66699 13 8v214h93v-211c0 -6.66699 4 -10.334 12 -11.001c5.33301 0 9.33301 2.66699 12 8z
M959.002 457.006l-92.999 0.000976562v254c0 25.333 16 38.666 48 39.999c11.333 0.666992 21.666 -2.33301 30.999 -9s14 -16.667 14 -30v-255zM162.003 32.0068v-124h58v20h-36v32h35v18h-35v37h37v17h-59zM233.003 32.0068v-124h20v59l31 -59h22l-38 68l36 56h-23
l-27 -44v44h-21zM312.003 -91.9932l30 124h19l33 -124h-23l-8 34h-22l-7 -34h-22zM352.003 -2.99316l-7 -38h15zM399.003 -91.9932v124h20l30 -80v80h19v-124h-20l-29 77v-77h-20zM473.003 -91.9932l30 124h19l33 -124h-23l-8 34h-22l-7 -34h-22zM513.003 -2.99316l-7 -38
h15zM543.003 32.0068l30 -68v-56h20v57l30 67h-21l-19 -45l-19 45h-21zM605.003 -91.9932l30 124h19l33 -124h-23l-8 34h-22l-7 -34h-22zM645.003 -2.99316l-7 -38h15zM694.003 32.0068v-124h20v59l31 -59h22l-38 68l36 56h-23l-27 -44v44h-21zM774.003 -91.9932l30 124h19
l33 -124h-23l-8 34h-22l-7 -34h-22zM814.003 -2.99316l-7 -38h15zM153.003 176.007v-124h67v124h-19v-107h-27v107h-21zM294.003 176.007h-62v-70h42v-36h-42v-18h63v72h-43v34h42v18zM385.003 176.007h47c10.667 -2.66699 16 -6.66699 16 -12v-46
c-2 -10 -6.33301 -15 -13 -15h-30v-51h-20v124zM406.003 156.007v-36h22v36h-22zM442.003 52.0068l30 124h19l33 -124h-23l-8 34h-22l-7 -34h-22zM482.003 141.007l-7 -38h15zM530.003 52.0068v124h20l30 -80v80h19v-124h-20l-29 77v-77h-20zM605.003 52.0068l30 124h19
l33 -124h-23l-8 34h-22l-7 -34h-22zM645.003 141.007l-7 -38h15zM694.003 52.0068v124h20l30 -80v80h19v-124h-20l-29 77v-77h-20zM772.003 176.007h52.999c8.66699 0 13.334 -4.66699 14.001 -14v-96c0 -7.33301 -3.66699 -12 -11 -14h-56v124zM791.002 158.007v-90h28v90
h-28zM841.002 52.0068l30 124h19l33 -124h-23l-8 34h-22l-7 -34h-22zM881.002 141.007l-7 -38h15zM83.002 176.007h47c10.667 -2.66699 16 -6.66699 16 -12v-46c-2 -10 -6.33301 -15 -13 -15h-30v-51h-20v124zM104.002 156.007v-36h22v36h-22zM341.002 -118.993v-76h21v76
h-21zM378.002 -118.993h71v-76h-70v13h46v17h-47v46zM401.002 -130.993v-23h24v23h-24zM555.002 -118.993h68v-76h-68v76zM577.002 -130.993v-19h24v19h-24zM466.002 -118.993h71v-76h-70v13h46v17h-47v46zM489.002 -130.993v-23h24v23h-24zM577.002 -162.993v-19h24v19h-24
zM355.002 123.007v53h20v-124h-20v54h-30v-54h-20v124h21v-53h29z" />
    <glyph glyph-name="Udieresis" unicode="&#xdc;" 
d="M283 491l-265.003 -0.000976562v106c50.667 -2.66699 77 4 79 20c0.666992 4.66699 -2 9 -8 13c-9.33301 6 -14.666 9.66699 -15.999 11c-7.33301 7.33301 -11 16.666 -11 27.999c0 16.667 8 30.334 24 41.001c34 22 103 35 207 39c34.667 1.33301 76 -2 124 -10
c55.333 -9.33301 90.666 -21 105.999 -35v-134c-49.333 46 -112 69 -188 69c-39.333 0 -71.666 -4 -96.999 -12c-14 -4.66699 -21 -10.334 -21 -17.001c0 -6 9.33301 -9 28 -9h111c24 0 49.333 -5.66699 76 -17c23.333 -10 41 -21 53 -33
c49.333 -51.333 75 -125.333 77 -222c2 -109.333 -17 -190.666 -57 -243.999c-44.667 -58.667 -117.667 -88 -219 -88c-182 0 -274 81.667 -276 245c-1.33301 86 28.667 150.333 90 193c30.667 21.333 74.334 32 131.001 32c18.667 0 39.334 -1 62.001 -3v-122h-37
c-73.333 0 -109.666 -33.667 -108.999 -101c1.33301 -74 47.666 -111 138.999 -111c37.333 0 68 12.333 92 37c28 28 43 68 45 120c2.66699 64.667 -8 114.834 -32 150.501s-60 53.5 -108 53.5z" />
    <glyph glyph-name="Yacute" unicode="&#xdd;" horiz-adv-x="577" 
d="M296 -1c178 2 265.004 109.662 261.004 322.995c-2 106.667 -31 188.334 -87 245.001c-44.667 46 -103.334 73.333 -176.001 82c-52.667 6.66699 -105.334 7.66699 -158.001 3v-108c8 1.33301 15 2 21 2c16.667 0 30.667 -7.66699 42 -23
c25.333 -35.333 39.666 -54.666 42.999 -57.999c22.667 -24 52 -36 88 -36c24.667 0 44 6 58 18c17.333 -24 27.666 -66 30.999 -126s-8.33398 -107.333 -35.001 -142c-24 -31.333 -56 -47.666 -96 -48.999c-78 -2 -121.333 15.333 -130 52c-1.33301 6 -2 11.667 -2 17
c0 34 24.667 51 74 51h57c0.666992 10.667 1 21 1 31c0 52.667 -7 95 -21 127c-19.333 44.667 -55.333 68.334 -108 71.001c-54.667 3.33301 -97 -4.66699 -127 -24v-121c30 23.333 57.333 35 82 35c28.667 0 44 -9 46 -27h-27c-38 0 -70 -18.333 -96 -55
c-18 -25.333 -27 -59.333 -27 -102c0 -19.333 2.33301 -36.666 7 -51.999c14.667 -48.667 43.834 -83.5 87.501 -104.5s107.5 -30.833 191.5 -29.5zM271.004 538.995c36 0 65.333 -11.333 88 -34c-7.33301 -12 -17.666 -18 -30.999 -18c-4.66699 0 -9.33398 1 -14.001 3
c-8 3.33301 -15.5 11 -22.5 23s-13.833 20.667 -20.5 26zM50.0039 498.995c-35.333 18 -53 52.667 -53 104c0 120 79.333 180 238 180c47.333 0 92.666 -6 135.999 -18c48 -13.333 84.667 -31.666 110 -54.999v-134c-26.667 39.333 -67.667 68.666 -123 87.999
c-42 14.667 -85 22 -129 22c-97.333 0 -146 -30.333 -146 -91c0 -30.667 9.66699 -51 29 -61c7.33301 -4 15.333 -6 24 -6c-1.33301 0 10.667 2.66699 36 8l20 -26c-24 -16 -51 -24 -81 -24c-23.333 0 -43.666 4.33301 -60.999 13z" />
    <glyph glyph-name="Thorn" unicode="&#xde;" horiz-adv-x="495" 
d="M10 166c-0.666992 -40.667 13.3311 -76.665 41.998 -107.998c31.333 -34.667 74 -54.334 128 -59.001c26 -2 57.667 -2 95 0v-49c20 12 46 18 78 18c28.667 0 43.334 -9 44.001 -27c0.666992 -8 -7.66602 -14.833 -24.999 -20.5s-36 -8.5 -56 -8.5
c-13.333 0 -24.333 1.33301 -33 4v-90c18.667 -4 40 -6 64 -6c32 0 62.667 3.33301 92 10c24.667 5.33301 45.667 15.666 63 30.999c22.667 18.667 34 41 34 67c0 30 -11.833 53.667 -35.5 71s-54.834 27.333 -93.501 30l38 14v114
c-43.333 -25.333 -102.666 -38 -177.999 -38c-78.667 0 -117 19.333 -115 58s35 58 99 58h189c0.666992 11.333 1 22.333 1 33c0 63.333 -12.333 114.333 -37 153c-34 52.667 -87.667 79.667 -161 81c-74 1.33301 -132.667 -12 -176 -40v-128c12 14 34 26.333 66 37
c29.333 10 55 15 77 15c65.333 0 99.333 -15.667 102 -47h-110c-57.333 0 -103 -14.333 -137 -43c-36 -30.667 -54.333 -74 -55 -130z" />
    <glyph glyph-name="germandbls" unicode="&#xdf;" horiz-adv-x="510" 
d="M144 249c0 -36.667 9.33301 -66.499 28 -89.499s44 -34.5 76 -34.5c31.333 0 56.166 11.667 74.499 35s27.5 51.666 27.5 84.999c0 88 -33.667 132 -101 132c-33.333 0 -59.166 -12.167 -77.499 -36.5s-27.5 -54.833 -27.5 -91.5zM270 624.001
c13.333 18 23.335 35 30.002 51h142c-6.66699 -29.333 -23.334 -63 -50.001 -101c-17.333 -24.667 -43 -47.667 -77 -69c10 -0.666992 19 -2 27 -4c66.667 -15.333 111 -60.333 133 -135c10.667 -36 15.667 -76.667 15 -122c-1.33301 -77.333 -21.333 -137.333 -60 -180
c-41.333 -45.333 -101 -68 -179 -68c-159.333 0 -239.666 84.667 -240.999 254c-0.666992 72.667 13.666 129 42.999 169c-36 14.667 -57 41.334 -63 80.001c-1.33301 7.33301 -2 14.666 -2 21.999c0 50 20 92.333 60 127c35.333 30.667 72.666 46 111.999 46
c24.667 0 47 -5.66699 67 -17c22 -13.333 36.333 -31 43 -53zM144.002 509.001l67 48.001c-3.33301 4 -7 7.33301 -11 10c-9.33301 6 -20 9 -32 9c-18 0 -33.667 -6.33301 -47 -19s-20 -26 -20 -40c0 -10.667 4.33301 -21.334 13 -32.001c6 6 16 14 30 24z" />
    <glyph glyph-name="agrave" unicode="&#xe0;" 
d="M400 654c-15.333 -3.33301 -24 -12 -26 -26c-1.33301 -9.33301 1.5 -17.333 8.5 -24s15.5 -10 25.5 -10c18.667 0 30 8 34 24c2.66699 10 -1 19 -11 27s-20.333 11 -31 9zM286 -3c-182 0 -274.004 81.666 -276.004 244.999c-1.33301 86 28.667 150.333 90 193
c30.667 21.333 74.334 32 131.001 32c18.667 0 39.334 -1 62.001 -3v-122h-37c-73.333 0 -109.666 -33.667 -108.999 -101c1.33301 -74 47.666 -111 138.999 -111c37.333 0 68 12.333 92 37c28 28 43 68 45 120c2.66699 64.667 -8 114.834 -32 150.501s-60 53.5 -108 53.5
h-149c-27.333 0 -51.333 9.66699 -72 29c-18 17.333 -28.333 36.333 -31 57c-0.666992 6.66699 -1 13.667 -1 21c0 49.333 20.667 87.333 62 114c38.667 24.667 102.334 37 191.001 37c134 0 215.333 -19.667 244 -59c12 -16 18 -35.333 18 -58
c0 -24 -6.66699 -43.333 -20 -58c-9.33301 -10.667 -21.666 -19.334 -36.999 -26.001c46.667 -53.333 71 -126.333 73 -219c2 -109.333 -16.667 -190.666 -56 -243.999c-44 -58.667 -117 -88 -219 -88zM291.996 637.999c-52.667 1.33301 -90.668 -1.66504 -114.001 -8.99805
c-8.66699 -2.66699 -13 -7.33398 -13 -14.001c0 -9.33301 10 -14 30 -14h101c-5.33301 11.333 -6.66602 23.666 -3.99902 36.999z" />
    <glyph glyph-name="aacute" unicode="&#xe1;" 
d="M286 -3c-182 0 -274.003 81.665 -276.003 244.998c-1.33301 86 28.667 150.333 90 193c30.667 21.333 74.334 32 131.001 32c18.667 0 39.334 -1 62.001 -3v-122h-37c-73.333 0 -109.666 -33.667 -108.999 -101c1.33301 -74 47.666 -111 138.999 -111
c37.333 0 68 12.333 92 37c28 28 43 68 45 120c2.66699 64.667 -8 114.834 -32 150.501s-60 53.5 -108 53.5h-149c-27.333 0 -51.333 9.66699 -72 29c-18 17.333 -28.333 36.333 -31 57c-0.666992 6.66699 -1 13.667 -1 21c0 49.333 20.667 87.333 62 114
c38.667 24.667 105.667 37 201 37c110.667 0 187.334 -15 230.001 -45v-134c-49.333 46 -112 69 -188 69c-72.667 0 -121.667 -4 -147 -12c-8.66699 -2.66699 -13 -7 -13 -13c0 -8.66699 10 -13 30 -13h151c24 0 49.333 -5.66699 76 -17c23.333 -10 41 -21 53 -33
c48.667 -50 74 -124 76 -222c2.66699 -109.333 -16 -190.666 -56 -243.999c-44 -58.667 -117 -88 -219 -88z" />
    <glyph glyph-name="acircumflex" unicode="&#xe2;" horiz-adv-x="582" 
d="M485 551c-12 12 -29.668 22.9971 -53.001 32.9971c-26.667 11.333 -52 17 -76 17h-119c-18.667 0 -28 3 -28 9c0 6.66699 7 12.334 21 17.001c25.333 8 57 12 95 12c74.667 0 137.334 -17 188.001 -51v130c-16 10 -51.333 18 -106 24
c-49.333 6 -90.666 8.33301 -123.999 7c-48 -2 -81.667 -4 -101 -6c-45.333 -6 -80 -17 -104 -33c-16 -10.667 -24 -24.334 -24 -41.001c0 -11.333 3.66699 -20.666 11 -27.999c1.33301 -1.33301 6.66602 -5 15.999 -11c6 -4 8.66699 -8.33301 8 -13
c-2 -16 -28.333 -22.667 -79 -20v-106h273c96 0 143 -67.667 141 -203c-1.33301 -103.333 -16.333 -155 -45 -155c-22.667 0 -34 19.667 -34 59v36h-117v-38c0 -38.667 -13 -58 -39 -58c-24 0 -36 18.667 -36 56c0 22.667 8 40.334 24 53.001
c19.333 15.333 48.666 23 87.999 23h77c3.33301 51.333 -2 94.666 -16 129.999c-23.333 59.333 -76.666 89 -159.999 89c-60 0 -102.333 -9.33301 -127 -28v-98c24 16 54 26 90 30c10.667 1.33301 20 2 28 2c36.667 0 56 -11.667 58 -35h-230v-88h75
c-10 -3.33301 -20.333 -14 -31 -32c-12 -20.667 -18.333 -43 -19 -67c-2 -110.667 52.333 -166.334 163 -167.001c58.667 -0.666992 96 17 112 53c12.667 -21.333 27.667 -35.666 45 -42.999s43 -10.666 77 -9.99902c60.667 0.666992 104 36 130 106
c20 56.667 28 131.334 24 224.001c-4.66699 99.333 -30 173 -76 221z" />
    <glyph glyph-name="atilde" unicode="&#xe3;" horiz-adv-x="582" 
d="M561 330c0.666992 -16 1.00098 -31.6689 1.00098 -47.002c0 -187.333 -51.667 -281.666 -155 -282.999c-34 -0.666992 -59.667 2.66602 -77 9.99902s-32.333 21.666 -45 42.999c-16 -36 -53.333 -53.667 -112 -53c-110.667 0.666992 -165 56.334 -163 167.001
c0.666992 24 7 46.333 19 67c10.667 18 21 28.667 31 32h-75v88h230c-2 23.333 -21.333 35 -58 35c-8 0 -17.333 -0.666992 -28 -2c-36 -4 -66 -14 -90 -30v98c24.667 18.667 67 28 127 28c83.333 0 136.666 -29.667 159.999 -89c14 -35.333 19.333 -78.666 16 -129.999h-77
c-39.333 0 -68.666 -7.66699 -87.999 -23c-16 -12.667 -24 -30.334 -24 -53.001c0 -37.333 12 -56 36 -56c26 0 39 19.333 39 58v38h117v-36c0 -39.333 11.333 -59 34 -59c28.667 0 43.667 51.667 45 155c2 135.333 -45 203 -141 203h-159c-27.333 0 -51.333 9.66699 -72 29
c-18 17.333 -28.333 36.333 -31 57c-0.666992 6.66699 -1 13.667 -1 21c0 49.333 20.667 87.333 62 114c38.667 24.667 105.667 37 201 37c56.667 0 98.667 -2 126 -6c57.333 -8 95.333 -25.667 114 -53c10 -14.667 15 -31.667 15 -51c0 -24 -7.66699 -44.333 -23 -61
c-10.667 -11.333 -22.334 -18.666 -35.001 -21.999c2 -1.33301 3 -2.16602 3 -2.49902s0.333008 -0.833008 1 -1.5c30 -44.667 49.333 -79 58 -103c10 -27.333 16.333 -67 19 -119zM400.001 653.998c-15.333 -3.33301 -24 -12 -26 -26
c-1.33301 -9.33301 1.5 -17.333 8.5 -24s15.5 -10 25.5 -10c18.667 0 30 8 34 24c2.66699 10 -1 19 -11 27s-20.333 11 -31 9zM292.001 637.998c-52.667 1.33301 -90.668 -1.66504 -114.001 -8.99805c-8.66699 -2.66699 -13 -7.33398 -13 -14.001c0 -9.33301 10 -14 30 -14
h101c-5.33301 11.333 -6.66602 23.666 -3.99902 36.999z" />
    <glyph glyph-name="adieresis" unicode="&#xe4;" horiz-adv-x="582" 
d="M485 551c-12 12 -29.668 22.998 -53.001 32.998c-26.667 11.333 -52 17 -76 17h-161c-20 0 -30 4.33301 -30 13c0 12.667 34.333 20.667 103 24c20.667 0.666992 39.667 1 57 1c74.667 0 137.334 -17 188.001 -51v130c-45.333 20.667 -122 31 -230 31
c-95.333 0 -162.333 -12.333 -201 -37c-41.333 -26.667 -62 -64.667 -62 -114c0 -7.33301 0.333008 -14.333 1 -21c2.66699 -20.667 13 -39.667 31 -57c20.667 -19.333 44.667 -29 72 -29h159c96 0 143 -67.667 141 -203c-1.33301 -103.333 -16.333 -155 -45 -155
c-22.667 0 -34 19.667 -34 59v36h-117v-38c0 -38.667 -13 -58 -39 -58c-24 0 -36 18.667 -36 56c0 22.667 8 40.334 24 53.001c19.333 15.333 48.666 23 87.999 23h77c3.33301 51.333 -2 94.666 -16 129.999c-23.333 59.333 -76.666 89 -159.999 89
c-60 0 -102.333 -9.33301 -127 -28v-98c24 16 54 26 90 30c10.667 1.33301 20 2 28 2c36.667 0 56 -11.667 58 -35h-230v-88h75c-10 -3.33301 -20.333 -14 -31 -32c-12 -20.667 -18.333 -43 -19 -67c-2 -110.667 52.333 -166.334 163 -167.001
c58.667 -0.666992 96 17 112 53c12.667 -21.333 27.667 -35.666 45 -42.999s43 -10.666 77 -9.99902c55.333 0.666992 96 29.667 122 87c22 48 33 112.333 33 193c0 16 -0.333008 32.667 -1 50c-6 100.667 -31.333 174.334 -76 221.001z" />
    <glyph glyph-name="aring" unicode="&#xe5;" horiz-adv-x="779" 
d="M13 294c-2 -18 -2.99805 -36.002 -2.99805 -54.002c0 -107.333 24.667 -186 74 -236h148c-30.667 15.333 -54 49 -70 101c-12.667 39.333 -20 83.666 -22 132.999c-1.33301 34 3.16699 63.833 13.5 89.5s23.5 41.167 39.5 46.5c21.333 6.66699 35.666 1 42.999 -17
c24 16 54 26 90 30c10.667 1.33301 20 2 28 2c36.667 0 56 -11.667 58 -35h-215v-88h60c-10 -3.33301 -20.333 -14 -31 -32c-12 -20.667 -18.333 -43 -19 -67c-2 -110.667 52.333 -166.334 163 -167.001c58.667 -0.666992 96 17 112 53
c12.667 -21.333 27.667 -35.666 45 -42.999s43 -10.666 77 -9.99902c60.667 0.666992 104 36 130 106c20 56.667 28 131.334 24 224.001c-4.66699 99.333 -30 173 -76 221c-12 12 -29.667 23 -53 33c-26.667 11.333 -52 17 -76 17h-121c-18.667 0 -28 3 -28 9
c0 6.66699 7 12.334 21 17.001c25.333 8 57.666 12 96.999 12c74.667 0 137.334 -17 188.001 -51v130c-16 10 -51.333 18 -106 24c-49.333 6 -90.666 8.33301 -123.999 7c-48.667 -2 -82.667 -4 -102 -6c-46 -6 -81 -17 -105 -33c-16 -10.667 -24 -24.334 -24 -41.001
c0 -11.333 3.66699 -20.666 11 -27.999c1.33301 -1.33301 6.66602 -5 15.999 -11c6 -4 8.66699 -8.33301 8 -13c-2 -16 -28.333 -22.667 -79 -20v-106h275c96 0 143 -67.667 141 -203c-1.33301 -103.333 -16.333 -155 -45 -155c-22.667 0 -34 19.667 -34 59v36h-117v-38
c0 -38.667 -13 -58 -39 -58c-24 0 -36 18.667 -36 56c0 22.667 8 40.334 24 53.001c19.333 15.333 48.666 23 87.999 23h77c3.33301 51.333 -2 94.666 -16 129.999c-23.333 59.333 -76.666 89 -159.999 89c-60 0 -102.333 -9.33301 -127 -28
c-12.667 14 -34.334 21 -65.001 21c-44.667 0 -82 -19.667 -112 -59c-26 -34 -41.333 -75 -46 -123z" />
    <glyph glyph-name="ae" unicode="&#xe6;" horiz-adv-x="206" 
d="M25 701h134l-11 -536h-111zM94 129c18.667 0 34.5 -6.66797 47.5 -20.001s19.5 -29.333 19.5 -48c0 -19.333 -6.83301 -35.5 -20.5 -48.5s-29.834 -19.5 -48.501 -19.5s-34.5 6.83301 -47.5 20.5s-19.5 29.834 -19.5 48.501s6.83301 34.5 20.5 47.5
s29.834 19.5 48.501 19.5z" />
    <glyph glyph-name="ccedilla" unicode="&#xe7;" horiz-adv-x="779" 
d="M682 551c-12 12 -29.666 23.001 -52.999 33.001c-26.667 11.333 -52 17 -76 17h-161c-20 0 -30 4.33301 -30 13c0 12.667 34.333 20.667 103 24c20.667 0.666992 39.667 1 57 1c74.667 0 137.334 -17 188.001 -51v130c-45.333 20.667 -122 31 -230 31
c-95.333 0 -162.333 -12.333 -201 -37c-41.333 -26.667 -62 -64.667 -62 -114c0 -7.33301 0.333008 -14.333 1 -21c2.66699 -20.667 13 -39.667 31 -57c20.667 -19.333 44.667 -29 72 -29h159c48 0 84.333 -17.833 109 -53.5s35.334 -85.834 32.001 -150.501
c-2.66699 -58.667 -6.33398 -97.667 -11.001 -117c-6 -24.667 -17.333 -37 -34 -37c-22.667 0 -34 19.667 -34 59v36h-117v-38c0 -38.667 -13 -58 -39 -58c-24 0 -36 18.667 -36 56c0 22.667 8 40.334 24 53.001c19.333 15.333 48.666 23 87.999 23h77
c3.33301 51.333 -2 94.666 -16 129.999c-23.333 59.333 -76.666 89 -159.999 89c-60 0 -102.333 -9.33301 -127 -28c-12.667 14 -34.334 21 -65.001 21c-44.667 0 -82 -19.667 -112 -59c-26 -34 -41.333 -75 -46 -123c-2 -18 -3 -36 -3 -54c0 -107.333 24.667 -186 74 -236
h148c-30.667 15.333 -54 49 -70 101c-12.667 39.333 -20 83.666 -22 132.999c-1.33301 34 3.16699 63.833 13.5 89.5s23.5 41.167 39.5 46.5c21.333 6.66699 35.666 1 42.999 -17c24 16 54 26 90 30c10.667 1.33301 20 2 28 2c36.667 0 56 -11.667 58 -35h-215v-88h60
c-10 -3.33301 -20.333 -14 -31 -32c-12 -20.667 -18.333 -43 -19 -67c-2 -110.667 52.333 -166.334 163 -167.001c58.667 -0.666992 96 17 112 53c12.667 -21.333 27.667 -35.666 45 -42.999s43 -10.666 77 -9.99902c55.333 0.666992 96 30 122 88c22 48 33 112.333 33 193
c0 126.667 -25.667 216.667 -77 270z" />
    <glyph glyph-name="egrave" unicode="&#xe8;" horiz-adv-x="585" 
d="M400 -1c-32.667 0 -56.834 3.50195 -72.501 10.502s-31.167 21.167 -46.5 42.5c-18 -35.333 -55 -53 -111 -53c-111.333 0.666992 -164.666 87 -159.999 259c2 78 32.667 137.667 92 179c30.667 21.333 74.334 32 131.001 32c18.667 0 39.334 -1 62.001 -3v-122h-37
c-72.667 0 -111 -31 -115 -93c-4.66699 -76.667 9.33301 -115 42 -115c20 0 32.333 13.333 37 40c3.33301 16 4.66602 49 3.99902 99h113c0 -54.667 1 -88 3 -100c4.66699 -24.667 16 -37 34 -37c31.333 0 47.666 49.667 48.999 149c2 136 -44.667 204 -140 204h-264v106
c50.667 -2.66699 77 4 79 20c0.666992 4.66699 -2 9 -8 13c-9.33301 6 -14.666 9.66699 -15.999 11c-7.33301 7.33301 -11 16.666 -11 27.999c0 16.667 8 30.334 24 41.001c34 22 102.667 35 206 39c34.667 1.33301 76 -2 124 -10c55.333 -9.33301 90.666 -21 105.999 -35
v-134c-49.333 46 -112 69 -188 69c-38.667 0 -70.667 -4 -96 -12c-14 -4.66699 -21 -10.334 -21 -17.001c0 -6 9.33301 -9 28 -9h110c24 0 49.333 -5.66699 76 -17c23.333 -10 41 -21 53 -33c47.333 -49.333 73 -123.333 77 -222
c3.33301 -90.667 -6.66699 -165.334 -30 -224.001c-28 -70.667 -72.667 -106 -134 -106z" />
    <glyph glyph-name="eacute" unicode="&#xe9;" horiz-adv-x="779" 
d="M597 654c-15.333 -3.33301 -24 -12 -26 -26c-1.33301 -9.33301 1.5 -17.333 8.5 -24s15.5 -10 25.5 -10c18.667 0 30 8 34 24c2.66699 10 -1 19 -11 27s-20.333 11 -31 9zM758 329c3.33301 -92.667 -5.00195 -167.001 -25.002 -223.001
c-25.333 -70 -68.333 -105.333 -129 -106c-34 -0.666992 -59.667 2.66602 -77 9.99902s-32.333 21.666 -45 42.999c-16 -36 -53.333 -53.667 -112 -53c-110.667 0.666992 -165 56.334 -163 167.001c0.666992 24 7 46.333 19 67c10.667 18 21 28.667 31 32h-60v88h215
c-2 23.333 -21.333 35 -58 35c-8 0 -17.333 -0.666992 -28 -2c-36 -4 -66 -14 -90 -30c-7.33301 18 -21.666 23.667 -42.999 17c-16 -5.33301 -29.167 -20.833 -39.5 -46.5s-14.833 -55.5 -13.5 -89.5c2 -49.333 9.33301 -93.666 22 -132.999c16 -52 39.333 -85.667 70 -101
h-148c-49.333 50 -74 128.667 -74 236c0 18 1 36 3 54c4.66699 48 20 89 46 123c30 39.333 67.333 59 112 59c30.667 0 52.334 -7 65.001 -21c24.667 18.667 67 28 127 28c83.333 0 136.666 -29.667 159.999 -89c14 -35.333 19.333 -78.666 16 -129.999h-77
c-39.333 0 -68.666 -7.66699 -87.999 -23c-16 -12.667 -24 -30.334 -24 -53.001c0 -37.333 12 -56 36 -56c26 0 39 19.333 39 58v38h117v-36c0 -39.333 11.333 -59 34 -59c16.667 0 28 12 34 36c5.33301 20 9 59.333 11 118
c2.66699 64.667 -8.16602 114.834 -32.499 150.501s-60.5 53.5 -108.5 53.5h-159c-27.333 0 -51.333 9.66699 -72 29c-18 17.333 -28.333 36.333 -31 57c-0.666992 6.66699 -1 13.667 -1 21c0 49.333 20.667 87.333 62 114c38.667 24.667 105.667 37 201 37
c56.667 0 98.667 -2 126 -6c57.333 -8 95.333 -25.667 114 -53c10 -14.667 15 -31.667 15 -51c0 -24 -7.66699 -44.333 -23 -61c-10.667 -11.333 -22.334 -18.666 -35.001 -21.999c50 -44.667 77 -120.334 81 -227.001zM488.998 637.999
c-52.667 1.33301 -90.668 -1.66504 -114.001 -8.99805c-8.66699 -2.66699 -13 -7.33398 -13 -14.001c0 -9.33301 10 -14 30 -14h101c-5.33301 11.333 -6.66602 23.666 -3.99902 36.999z" />
    <glyph glyph-name="ecircumflex" unicode="&#xea;" horiz-adv-x="585" 
d="M564 329c3.33301 -91.333 -6.66699 -166 -30 -224c-28 -70.667 -72.667 -106 -134 -106c-32.667 0 -56.834 3.5 -72.501 10.5s-31.167 21.167 -46.5 42.5c-18 -35.333 -55 -53 -111 -53c-111.333 0.666992 -164.666 87 -159.999 259c2 78 32.667 137.667 92 179
c30.667 21.333 74.334 32 131.001 32c18.667 0 39.334 -1 62.001 -3v-122h-37c-72.667 0 -111 -31 -115 -93c-4.66699 -76.667 9.33301 -115 42 -115c20 0 32.333 13.333 37 40c3.33301 16 4.66602 49 3.99902 99h113c0 -54.667 1 -88 3 -100c4.66699 -24.667 16 -37 34 -37
c31.333 0 47.666 49.667 48.999 149c2 136 -45.333 204 -142 204h-149c-27.333 0 -51.333 9.66699 -72 29c-18 17.333 -28.333 36.333 -31 57c-0.666992 6.66699 -1 13.667 -1 21c0 49.333 20.667 87.333 62 114c38.667 24.667 105.667 37 201 37
c110.667 0 187.334 -15 230.001 -45v-134c-49.333 46 -112 69 -188 69c-72.667 0 -121.667 -4 -147 -12c-8.66699 -2.66699 -13 -7 -13 -13c0 -8.66699 10 -13 30 -13h151c24 0 49.333 -5.66699 76 -17c23.333 -10 41 -21 53 -33
c49.333 -51.333 75.666 -125.333 78.999 -222z" />
    <glyph glyph-name="edieresis" unicode="&#xeb;" horiz-adv-x="585" 
d="M400 -1c-32.667 0 -56.833 3.49805 -72.5 10.498s-31.167 21.167 -46.5 42.5c-18 -35.333 -55 -53 -111 -53c-111.333 0.666992 -164.666 87 -159.999 259c2 78 32.667 137.667 92 179c30.667 21.333 74.334 32 131.001 32c18.667 0 39.334 -1 62.001 -3v-122h-37
c-72.667 0 -111 -31 -115 -93c-4.66699 -76.667 9.33301 -115 42 -115c20 0 32.333 13.333 37 40c3.33301 16 4.66602 49 3.99902 99h113c0 -54.667 1 -88 3 -100c4.66699 -24.667 16 -37 34 -37c31.333 0 47.666 49.667 48.999 149c2 136 -45.333 204 -142 204h-159
c-27.333 0 -51.333 9.66699 -72 29c-18 17.333 -28.333 36.333 -31 57c-0.666992 6.66699 -1 13.667 -1 21c0 49.333 20.667 87.333 62 114c38.667 24.667 105.667 37 201 37c56.667 0 98.667 -2 126 -6c57.333 -8 95.333 -25.667 114 -53c10 -14.667 15 -31.667 15 -51
c0 -24 -7.66699 -44.333 -23 -61c-10.667 -11.333 -22.334 -18.666 -35.001 -21.999c48 -42.667 75.333 -118 82 -226c0.666992 -15.333 1 -30.666 1 -45.999c0 -80 -12 -145.333 -36 -196c-28.667 -59.333 -71 -89 -127 -89zM400.001 653.998
c-15.333 -3.33301 -24 -12 -26 -26c-1.33301 -9.33301 1.5 -17.333 8.5 -24s15.5 -10 25.5 -10c18.667 0 30 8 34 24c2.66699 10 -1 19 -11 27s-20.333 11 -31 9zM292.001 637.998c-52.667 1.33301 -90.668 -1.66504 -114.001 -8.99805
c-8.66699 -2.66699 -13 -7.33398 -13 -14.001c0 -9.33301 10 -14 30 -14h101c-5.33301 11.333 -6.66602 23.666 -3.99902 36.999z" />
    <glyph glyph-name="igrave" unicode="&#xec;" horiz-adv-x="578" 
d="M196 128c-2 16.667 -2.99902 31.332 -2.99902 43.999c0 27.333 8.33301 52.333 25 75c8 6.66699 18.333 17.334 31 32.001c2 4.66699 3 10 3 16c0 27.333 -12.667 41 -38 41c-18.667 0 -34.667 -11.667 -48 -35c-11.333 -20.667 -17.333 -42 -18 -64
c-0.666992 -21.333 0.666016 -40 3.99902 -56c7.33301 -36 22 -53.667 44 -53zM492.001 43.998c-33.333 -32 -85.668 -47.332 -157.001 -45.999c-21.333 0.666992 -44.333 6 -69 16c-16.667 7.33301 -31 18.333 -43 33v-32c-19.333 -11.333 -41 -17 -65 -17
c-32.667 0 -59 9 -79 27c-46.667 42.667 -69.667 112 -69 208c0.666992 64.667 19.334 121 56.001 169c33.333 44 83.333 66 150 66c44 0 78.667 -11.333 104 -34c41.333 -37.333 62 -81 62 -131c0 -15.333 -2 -30.833 -6 -46.5s-10.333 -27.834 -19 -36.501
c-12 -12.667 -19.833 -22.167 -23.5 -28.5s-5.5 -14.5 -5.5 -24.5c0 -22 8.66699 -33.333 26 -34c44 -1.33301 67 50 69 154c2 136 -44.667 204 -140 204h-149c-27.333 0 -51.333 9.66699 -72 29c-18 17.333 -28.333 36.333 -31 57c-0.666992 6.66699 -1 13.667 -1 21
c0 49.333 20.667 87.333 62 114c38.667 24.667 105.667 37 201 37c110.667 0 187.334 -15 230.001 -45v-134c-49.333 46 -112 69 -188 69c-72.667 0 -121.667 -4 -147 -12c-8.66699 -2.66699 -13 -7 -13 -13c0 -8.66699 10 -13 30 -13h151c24 0 49.333 -5.66699 76 -17
c23.333 -10 41 -21 53 -33c47.333 -49.333 72.666 -123.333 75.999 -222c4.66699 -141.333 -18.333 -236.333 -69 -285z" />
    <glyph glyph-name="iacute" unicode="&#xed;" horiz-adv-x="578" 
d="M196 128c-2 16.667 -2.99902 31.332 -2.99902 43.999c0 27.333 8.33301 52.333 25 75c8 6.66699 18.333 17.334 31 32.001c2 4.66699 3 10 3 16c0 27.333 -12.667 41 -38 41c-18.667 0 -34.667 -11.667 -48 -35c-11.333 -20.667 -17.333 -42 -18 -64
c-0.666992 -21.333 0.666016 -40 3.99902 -56c7.33301 -36 22 -53.667 44 -53zM492.001 43.998c-33.333 -32 -85.6689 -47.3311 -157.002 -45.998c-21.333 0.666992 -44.333 6 -69 16c-16.667 7.33301 -31 18.333 -43 33v-32c-19.333 -11.333 -41 -17 -65 -17
c-32.667 0 -59 9 -79 27c-46.667 42.667 -69.667 112 -69 208c0.666992 64.667 19.334 121 56.001 169c33.333 44 83.333 66 150 66c44 0 78.667 -11.333 104 -34c41.333 -37.333 62 -81 62 -131c0 -15.333 -2 -30.833 -6 -46.5s-10.333 -27.834 -19 -36.501
c-12 -12.667 -19.833 -22.167 -23.5 -28.5s-5.5 -14.5 -5.5 -24.5c0 -22 8.66699 -33.333 26 -34c44 -1.33301 67 50 69 154c2 136 -44.667 204 -140 204h-264v106c50.667 -2.66699 77 4 79 20c0.666992 4.66699 -2 9 -8 13c-9.33301 6 -14.666 9.66699 -15.999 11
c-7.33301 7.33301 -11 16.666 -11 27.999c0 16.667 8 30.334 24 41.001c34 22 102.667 35 206 39c34.667 1.33301 76 -2 124 -10c55.333 -9.33301 90.666 -21 105.999 -35v-134c-49.333 46 -112 69 -188 69c-38.667 0 -70.667 -4 -96 -12
c-14 -4.66699 -21 -10.334 -21 -17.001c0 -6 9.33301 -9 28 -9h110c24 0 49.333 -5.66699 76 -17c23.333 -10 41 -21 53 -33c48.667 -50 74.334 -124 77.001 -222c4 -141.333 -19.333 -236.333 -70 -285z" />
    <glyph glyph-name="icircumflex" unicode="&#xee;" horiz-adv-x="578" 
d="M196 128c-2 16.667 -2.99902 31.332 -2.99902 43.999c0 27.333 8.33301 52.333 25 75c8 6.66699 18.333 17.334 31 32.001c2 4.66699 3 10 3 16c0 27.333 -12.667 41 -38 41c-18.667 0 -34.667 -11.667 -48 -35c-11.333 -20.667 -17.333 -42 -18 -64
c-0.666992 -21.333 0.666016 -40 3.99902 -56c7.33301 -36 22 -53.667 44 -53zM492.001 43.998c-33.333 -32 -85.6699 -47.3311 -157.003 -45.998c-21.333 0.666992 -44.333 6 -69 16c-16.667 7.33301 -31 18.333 -43 33v-32c-19.333 -11.333 -41 -17 -65 -17
c-32.667 0 -59 9 -79 27c-46.667 42.667 -69.667 112 -69 208c0.666992 64.667 19.334 121 56.001 169c33.333 44 83.333 66 150 66c44 0 78.667 -11.333 104 -34c41.333 -37.333 62 -81 62 -131c0 -15.333 -2 -30.833 -6 -46.5s-10.333 -27.834 -19 -36.501
c-12 -12.667 -19.833 -22.167 -23.5 -28.5s-5.5 -14.5 -5.5 -24.5c0 -22 8.66699 -33.333 26 -34c44 -1.33301 67 50 69 154c2 136 -44.667 204 -140 204h-149c-27.333 0 -51.333 9.66699 -72 29c-18 17.333 -28.333 36.333 -31 57c-0.666992 6.66699 -1 13.667 -1 21
c0 49.333 20.667 87.333 62 114c38.667 24.667 102.334 37 191.001 37c134 0 215.333 -19.667 244 -59c12 -16 18 -35.333 18 -58c0 -24 -6.66699 -43.333 -20 -58c-9.33301 -10.667 -21.666 -19.334 -36.999 -26.001c42.667 -50.667 67 -123 73 -217
c1.33301 -16 2 -32 2 -48c0 -114 -23.667 -193.667 -71 -239zM399.997 654c-15.333 -3.33301 -24 -12 -26 -26c-1.33301 -9.33301 1.5 -17.333 8.5 -24s15.5 -10 25.5 -10c18.667 0 30 8 34 24c2.66699 10 -1 19 -11 27s-20.333 11 -31 9zM291.997 638
c-52.667 1.33301 -90.668 -1.66504 -114.001 -8.99805c-8.66699 -2.66699 -13 -7.33398 -13 -14.001c0 -9.33301 10 -14 30 -14h101c-5.33301 11.333 -6.66602 23.666 -3.99902 36.999z" />
    <glyph glyph-name="idieresis" unicode="&#xef;" 
d="M272 345c1.33301 -6.66699 0.333008 -13.333 -3 -20s-5 -11.667 -5 -15c-1.33301 -16 4.66699 -24 18 -24c10 0 15 10.667 15 32c0 20.667 -8.33301 29.667 -25 27zM286 -2.99902c-178 0 -269.999 81.667 -275.999 245c-2 55.333 6.33301 103 25 143
c8.66699 18 22.667 36 42 54c23.333 21.333 53.333 32 90 32c12.667 0 26 -1.33301 40 -4c23.333 -4 41 -16 53 -36v33c12 4.66699 23 7 33 7c22.667 0 42.667 -11.667 60 -35c20.667 -27.333 31.667 -61 33 -101c1.33301 -48.667 -6.33398 -88.667 -23.001 -120
s-45 -47 -85 -47c-60 0 -92.667 29 -98 87c-1.33301 14.667 0.333984 29.334 5.00098 44.001s7 24.334 7 29.001c0 12 -5.33301 18 -16 18c-13.333 0 -22.833 -14.5 -28.5 -43.5s-6.16699 -55.167 -1.5 -78.5c13.333 -62.667 60 -94 140 -94c36.667 0 67 12.333 91 37
c26.667 27.333 42 67.333 46 120c0.666992 9.33301 1 18.666 1 27.999c0 56 -12.333 99.333 -37 130s-59.334 46 -104.001 46h-264v106c50.667 -2.66699 77 4 79 20c0.666992 4.66699 -2 9 -8 13c-9.33301 6 -14.666 9.66699 -15.999 11
c-7.33301 7.33301 -11 16.666 -11 27.999c0 16.667 8 30.334 24 41.001c34 22 102.667 35 206 39c34.667 1.33301 76 -2 124 -10c55.333 -9.33301 90.666 -21 105.999 -35v-134c-49.333 46 -112 69 -188 69c-38.667 0 -70.667 -4 -96 -12
c-14 -4.66699 -21 -10.334 -21 -17.001c0 -6 9.33301 -9 28 -9h110c24 0 49.333 -5.66699 76 -17c23.333 -10 41 -21 53 -33c51.333 -53.333 77 -127.333 77 -222c0 -110 -19.333 -191.333 -58 -244c-44 -58.667 -116.667 -88 -218 -88z" />
    <glyph glyph-name="eth" unicode="&#xf0;" horiz-adv-x="588" 
d="M216 232c-41.333 0 -62 -15.333 -62 -46c0 -38.667 46.333 -58 139 -58c87.333 0 131 19.333 131 58c0 30.667 -19 46 -57 46h-151zM442 660l142.999 -0.000976562c0.666992 -49.333 -18.333 -89.666 -57 -120.999c-2.66699 -2 -14 -8.33301 -34 -19
c-12.667 -6.66699 -18.667 -13.667 -18 -21c10.667 -1.33301 21 -3.33301 31 -6c22 -6.66699 36.667 -14.667 44 -24v-126c-19.333 20.667 -51 34.334 -95 41.001c-7.33301 1.33301 -15.333 2 -24 2c-48.667 0 -76 -13.333 -82 -40c10 0.666992 32.667 1 68 1
c47.333 0.666992 84.666 -14.333 111.999 -45c25.333 -28.667 38 -66.667 38 -114c0 -51.333 -15 -93.333 -45 -126c-20 -21.333 -52.333 -38 -97 -50c-40.667 -10.667 -85 -16 -133 -16c-115.333 0 -193.666 22 -234.999 66c-32 34 -48 76 -48 126
c0 38 9.66699 70.667 29 98c12 17.333 29.5 32 52.5 44s46.167 17.667 69.5 17c34 0 55.667 -0.666992 65 -2c0 17.333 -12.667 29 -38 35c-18.667 5.33301 -39.667 6.66602 -63 3.99902c-41.333 -4 -72.666 -17 -93.999 -39v124c11.333 10 26.333 18 45 24
c-20.667 18 -31 46.333 -31 85c0 14 1.66699 25.667 5 35c11.333 35.333 34.333 59 69 71c22 8 56 12 102 12c94.667 0 152 -20 172 -60c7.33301 -14 11.333 -32.667 12 -56c26 29.333 38.333 56 37 80zM266.999 476.999c4 0.666992 10 2.66797 18 6.00098
c20 9.33301 30 26 30 50c0 18.667 -8.66699 33 -26 43c-14.667 8 -32.334 12 -53.001 12c-39.333 0 -63 -11 -71 -33c-8 -23.333 -2.66699 -41.333 16 -54c20 -2.66699 35 -5.33398 45 -8.00098c20.667 -4.66699 34.334 -10 41.001 -16z" />
    <glyph glyph-name="ntilde" unicode="&#xf1;" 
d="M272 345c1.33301 -6.66699 0.333008 -13.333 -3 -20s-5 -11.667 -5 -15c-1.33301 -16 4.66699 -24 18 -24c10 0 15 10.667 15 32c0 20.667 -8.33301 29.667 -25 27zM286 -2.99902c-178 0 -269.999 81.665 -275.999 244.998c-2 55.333 6.33301 103 25 143
c8.66699 18 22.667 36 42 54c23.333 21.333 53.333 32 90 32c12.667 0 26 -1.33301 40 -4c23.333 -4 41 -16 53 -36v33c12 4.66699 23 7 33 7c22.667 0 42.667 -11.667 60 -35c20.667 -27.333 31.667 -61 33 -101c1.33301 -48.667 -6.33398 -88.667 -23.001 -120
s-45 -47 -85 -47c-60 0 -92.667 29 -98 87c-1.33301 14.667 0.333984 29.334 5.00098 44.001s7 24.334 7 29.001c0 12 -5.33301 18 -16 18c-13.333 0 -22.833 -14.5 -28.5 -43.5s-6.16699 -55.167 -1.5 -78.5c13.333 -62.667 60 -94 140 -94c36.667 0 67 12.333 91 37
c26.667 27.333 42 67.333 46 120c0.666992 9.33301 1 18.666 1 27.999c0 56 -12.333 99.333 -37 130s-59.334 46 -104.001 46h-149c-27.333 0 -51.333 9.66699 -72 29c-18 17.333 -28.333 36.333 -31 57c-0.666992 6.66699 -1 13.667 -1 21c0 49.333 20.667 87.333 62 114
c38.667 24.667 105.667 37 201 37c110.667 0 187.334 -15 230.001 -45v-134c-49.333 46 -112 69 -188 69c-72.667 0 -121.667 -4 -147 -12c-8.66699 -2.66699 -13 -7 -13 -13c0 -8.66699 10 -13 30 -13h151c24 0 49.333 -5.66699 76 -17c23.333 -10 41 -21 53 -33
c49.333 -50.667 74.666 -124.667 75.999 -222c2 -109.333 -17 -190.666 -57 -243.999c-44 -58.667 -116.667 -88 -218 -88z" />
    <glyph glyph-name="ograve" unicode="&#xf2;" horiz-adv-x="586" 
d="M284 128c2 8.66699 7 17.6689 15 27.002s12 16.666 12 21.999c0 12.667 -9 19 -27 19c-17.333 0 -26 -7 -26 -21c0 -5.33301 3.83301 -12.333 11.5 -21s12.5 -17.334 14.5 -26.001zM566 328.002c2.66699 -91.333 -6.99707 -165.667 -28.9971 -223
c-28 -70 -72.333 -105.333 -133 -106c-33.333 0 -58.333 3.5 -75 10.5s-32.334 20.833 -47.001 41.5c-17.333 -34.667 -55.333 -52 -114 -52c-112.667 0.666992 -165.334 87 -158.001 259c2 47.333 8.33301 84 19 110c12 30.667 32 55.667 60 75c20.667 14 44.667 21 72 21
c14 0 28.667 -1.83301 44 -5.5s27.5 -15.667 36.5 -36s19.167 -30.833 30.5 -31.5s17 5.33301 17 18c0 15.333 -7 31 -21 47h76c29.333 -17.333 42.666 -48.333 39.999 -93c-2 -30 -12.667 -51 -32 -63s-49.666 -17.333 -90.999 -16
c-22 0.666992 -38.667 5.33398 -50 14.001c-3.33301 2.66699 -9.66602 10.667 -18.999 24c-5.33301 8.66699 -12.666 12.667 -21.999 12c-18 -0.666992 -27.667 -31.334 -29 -92.001c-0.666992 -32 2.66602 -58.167 9.99902 -78.5s18 -29.833 32 -28.5
c9.33301 0.666992 14.666 6.66699 15.999 18c0.666992 4.66699 -4.83301 12.334 -16.5 23.001s-17.5 23.667 -17.5 39c0 36.667 39.667 55 119 55c78 0 117 -17.667 117 -53c0 -19.333 -6.16699 -34.5 -18.5 -45.5s-18.5 -17.167 -18.5 -18.5c0 -10.667 5.33301 -16 16 -16
c31.333 0 47.666 50 48.999 150c2 136 -46.667 204 -146 204h-264v106c50.667 -2.66699 77 4 79 20c0.666992 4.66699 -2 9 -8 13c-9.33301 6 -14.666 9.66699 -15.999 11c-7.33301 7.33301 -11 16.666 -11 27.999c0 16.667 8 30.334 24 41.001c34 22 102.667 35 206 39
c34.667 1.33301 76 -2 124 -10c55.333 -9.33301 90.666 -21 105.999 -35v-134c-49.333 46 -112 69 -188 69c-38.667 0 -70.667 -4 -96 -12c-14 -4.66699 -21 -10.334 -21 -17.001c0 -6 9.33301 -9 28 -9h110c24 0 49.333 -5.66699 76 -17c23.333 -10 41 -21 53 -33
c50.667 -52.667 77.667 -127 81 -223z" />
    <glyph glyph-name="oacute" unicode="&#xf3;" 
d="M272 345c1.33301 -6.66699 0.333008 -13.333 -3 -20s-5 -11.667 -5 -15c-1.33301 -16 4.66699 -24 18 -24c10 0 15 10.667 15 32c0 20.667 -8.33301 29.667 -25 27zM286 -2.99902c-178 0 -270.001 81.666 -276.001 244.999c-2 55.333 6.33301 103 25 143
c8.66699 18 22.667 36 42 54c23.333 21.333 53.333 32 90 32c12.667 0 26 -1.33301 40 -4c23.333 -4 41 -16 53 -36v33c12 4.66699 23 7 33 7c22.667 0 42.667 -11.667 60 -35c20.667 -27.333 31.667 -61 33 -101c1.33301 -48.667 -6.33398 -88.667 -23.001 -120
s-45 -47 -85 -47c-60 0 -92.667 29 -98 87c-1.33301 14.667 0.333984 29.334 5.00098 44.001s7 24.334 7 29.001c0 12 -5.33301 18 -16 18c-13.333 0 -22.833 -14.5 -28.5 -43.5s-6.16699 -55.167 -1.5 -78.5c13.333 -62.667 60 -94 140 -94c36.667 0 67 12.333 91 37
c26.667 27.333 42 67.333 46 120c0.666992 9.33301 1 18.666 1 27.999c0 56 -12.333 99.333 -37 130s-59.334 46 -104.001 46h-149c-27.333 0 -51.333 9.66699 -72 29c-18 17.333 -28.333 36.333 -31 57c-0.666992 6.66699 -1 13.667 -1 21c0 49.333 20.667 87.333 62 114
c38.667 24.667 102.334 37 191.001 37c134 0 215.333 -19.667 244 -59c12 -16 18 -35.333 18 -58c0 -24 -6.66699 -43.333 -20 -58c-9.33301 -10.667 -21.666 -19.334 -36.999 -26.001c46.667 -52.667 71 -125.667 73 -219c2.66699 -109.333 -16 -190.666 -56 -243.999
c-44 -58.667 -117 -88 -219 -88zM399.999 654c-15.333 -3.33301 -24 -12 -26 -26c-1.33301 -9.33301 1.5 -17.333 8.5 -24s15.5 -10 25.5 -10c18.667 0 30 8 34 24c2.66699 10 -1 19 -11 27s-20.333 11 -31 9zM291.999 638
c-52.667 1.33301 -90.668 -1.66504 -114.001 -8.99805c-8.66699 -2.66699 -13 -7.33398 -13 -14.001c0 -9.33301 10 -14 30 -14h101c-5.33301 11.333 -6.66602 23.666 -3.99902 36.999z" />
    <glyph glyph-name="ocircumflex" unicode="&#xf4;" horiz-adv-x="586" 
d="M284 128c2 8.66699 7 17.6689 15 27.002s12 16.666 12 21.999c0 12.667 -9 19 -27 19c-17.333 0 -26 -7 -26 -21c0 -5.33301 3.83301 -12.333 11.5 -21s12.5 -17.334 14.5 -26.001zM567 287.002c0 -81.333 -11.998 -147.334 -35.998 -198.001
c-28 -59.333 -70.333 -89.333 -127 -90c-33.333 0 -58.333 3.5 -75 10.5s-32.334 20.833 -47.001 41.5c-17.333 -34.667 -55.333 -52 -114 -52c-112.667 0.666992 -165.334 87 -158.001 259c2 47.333 8.33301 84 19 110c12 30.667 32 55.667 60 75
c20.667 14 44.667 21 72 21c14 0 28.667 -1.83301 44 -5.5s27.5 -15.667 36.5 -36s19.167 -30.833 30.5 -31.5s17 5.33301 17 18c0 15.333 -7 31 -21 47h76c29.333 -17.333 42.666 -48.333 39.999 -93c-2 -30 -12.667 -51 -32 -63s-49.666 -17.333 -90.999 -16
c-22 0.666992 -38.667 5.33398 -50 14.001c-3.33301 2.66699 -9.66602 10.667 -18.999 24c-5.33301 8.66699 -12.666 12.667 -21.999 12c-18 -0.666992 -27.667 -31.334 -29 -92.001c-0.666992 -32 2.66602 -58.167 9.99902 -78.5s18 -29.833 32 -28.5
c9.33301 0.666992 14.666 6.66699 15.999 18c0.666992 4.66699 -4.83301 12.334 -16.5 23.001s-17.5 23.667 -17.5 39c0 36.667 39.667 55 119 55c78 0 117 -17.667 117 -53c0 -19.333 -6.16699 -34.5 -18.5 -45.5s-18.5 -17.167 -18.5 -18.5c0 -10.667 5.33301 -16 16 -16
c17.333 0 30.333 16.667 39 50c7.33301 27.333 10.666 60.666 9.99902 99.999c-2 136 -50.667 204 -146 204h-149c-27.333 0 -51.333 9.66699 -72 29c-18 17.333 -28.333 36.333 -31 57c-0.666992 6.66699 -1 13.667 -1 21c0 49.333 20.667 87.333 62 114
c38.667 24.667 105.667 37 201 37c110.667 0 187.334 -15 230.001 -45v-134c-49.333 46 -112 69 -188 69c-72.667 0 -121.667 -4 -147 -12c-8.66699 -2.66699 -13 -7 -13 -13c0 -8.66699 10 -13 30 -13h151c24 0 49.333 -5.66699 76 -17c23.333 -10 41 -21 53 -33
c36 -37.333 60 -85 72 -143c6.66699 -35.333 10 -75.666 10 -120.999z" />
    <glyph glyph-name="otilde" unicode="&#xf5;" horiz-adv-x="581" 
d="M562 329c-2 96.667 -27.668 170.667 -77.001 222c-12 12 -29.667 23 -53 33c-26.667 11.333 -52 17 -76 17h-110c-18.667 0 -28 3 -28 9c0 6.66699 7 12.334 21 17.001c25.333 8 57.333 12 96 12c76 0 138.667 -23 188 -69v134c-15.333 14 -50.666 25.667 -105.999 35
c-48 8 -89.333 11.333 -124 10c-48.667 -2 -82.667 -4 -102 -6c-45.333 -6 -80 -17 -104 -33c-16 -10.667 -24 -24.334 -24 -41.001c0 -11.333 3.66699 -20.666 11 -27.999c1.33301 -1.33301 6.66602 -5 15.999 -11c6 -4 8.66699 -8.33301 8 -13
c-2 -16 -28.667 -22.667 -80 -20v-106h265c48 0 84 -17.833 108 -53.5s34.667 -85.834 32 -150.501c-2 -52 -16.667 -91.667 -44 -119c-24 -24.667 -54.667 -37.334 -92 -38.001c-41.333 -1.33301 -73.5 2.83398 -96.5 12.501s-33.833 23.5 -32.5 41.5
c0.666992 16.667 11 27.667 31 33c8.66699 2 25.334 3 50.001 3h79c1.33301 13.333 2 27 2 41c0 52.667 -6.33301 93.667 -19 123c-24.667 58 -76 87 -154 87c-50.667 0 -86 -9.66699 -106 -29v-126c26.667 24.667 56.667 37 90 37c40 0 59.667 -14.333 59 -43h-52
c-33.333 0 -63 -12.333 -89 -37s-39 -55.667 -39 -93c0 -122 92.333 -183 277 -183c100.667 0 173 29.333 217 88c40.667 54 60 135.333 58 244z" />
    <glyph glyph-name="odieresis" unicode="&#xf6;" horiz-adv-x="586" 
d="M284 128c2 8.66699 7 17.6689 15 27.002s12 16.666 12 21.999c0 12.667 -9 19 -27 19c-17.333 0 -26 -7 -26 -21c0 -5.33301 3.83301 -12.333 11.5 -21s12.5 -17.334 14.5 -26.001zM566 328.002c0.666992 -15.333 1 -30.667 1 -46c0 -80 -12 -144.667 -36 -194
c-28.667 -58.667 -71 -88.334 -127 -89.001c-33.333 0 -58.333 3.5 -75 10.5s-32.334 20.833 -47.001 41.5c-17.333 -34.667 -55.333 -52 -114 -52c-112.667 0.666992 -165.334 87 -158.001 259c2 47.333 8.33301 84 19 110c12 30.667 32 55.667 60 75
c20.667 14 44.667 21 72 21c14 0 28.667 -1.83301 44 -5.5s27.5 -15.667 36.5 -36s19.167 -30.833 30.5 -31.5s17 5.33301 17 18c0 15.333 -7 31 -21 47h76c29.333 -17.333 42.666 -48.333 39.999 -93c-2 -30 -12.667 -51 -32 -63s-49.666 -17.333 -90.999 -16
c-22 0.666992 -38.667 5.33398 -50 14.001c-3.33301 2.66699 -9.66602 10.667 -18.999 24c-5.33301 8.66699 -12.666 12.667 -21.999 12c-18 -0.666992 -27.667 -31.334 -29 -92.001c-0.666992 -32 2.66602 -58.167 9.99902 -78.5s18 -29.833 32 -28.5
c9.33301 0.666992 14.666 6.66699 15.999 18c0.666992 4.66699 -4.83301 12.334 -16.5 23.001s-17.5 23.667 -17.5 39c0 36.667 39.667 55 119 55c78 0 117 -17.667 117 -53c0 -19.333 -6.16699 -34.5 -18.5 -45.5s-18.5 -17.167 -18.5 -18.5c0 -10.667 5.33301 -16 16 -16
c17.333 0 31 16.333 41 49c8.66699 30 12 63.667 10 101c-4 72.667 -17 124.834 -39 156.501s-57 47.5 -105 47.5h-153c-27.333 0 -51.333 9.66699 -72 29c-18 17.333 -28.333 36.333 -31 57c-0.666992 6.66699 -1 13.667 -1 21c0 49.333 20.667 87.333 62 114
c38.667 24.667 102.334 37 191.001 37c134 0 215.333 -19.667 244 -59c12 -16 18 -35.333 18 -58c0 -24 -6.66699 -43.333 -20 -58c-9.33301 -10.667 -21.666 -19.334 -36.999 -26.001c46 -54.667 72 -128 78 -220zM400 654.001c-15.333 -3.33301 -24 -12 -26 -26
c-1.33301 -9.33301 1.5 -17.333 8.5 -24s15.5 -10 25.5 -10c18.667 0 30 8 34 24c2.66699 10 -1 19 -11 27s-20.333 11 -31 9zM292 638.001c-52.667 1.33301 -90.668 -1.66504 -114.001 -8.99805c-8.66699 -2.66699 -13 -7.33398 -13 -14.001c0 -9.33301 10 -14 30 -14h101
c-5.33301 11.333 -6.66602 23.666 -3.99902 36.999z" />
    <glyph glyph-name="divide" unicode="&#xf7;" horiz-adv-x="651" 
d="M196 166c-0.666992 -42 13.001 -78.3311 41.001 -108.998c30.667 -34 73.667 -53.333 129 -58c46 -4 87.667 -4.33301 125 -1v-50h-278v-122h418v331c-43.333 -25.333 -102.666 -38 -177.999 -38c-78.667 0 -117 19.333 -115 58s35 58 99 58h189
c0.666992 11.333 1 22.333 1 33c0 63.333 -12.333 114.333 -37 153c-34 53.333 -87.667 80.333 -161 81c-64 0.666992 -107 -5 -129 -17c-18.667 8.66699 -43.667 13 -75 13c-25.333 0 -48 -3.33301 -68 -10c-38.667 -12.667 -71.167 -36.667 -97.5 -72
s-41.833 -76 -46.5 -122c-2 -17.333 -3 -35 -3 -53c0 -107.333 25 -186.333 75 -237h148c-30.667 15.333 -54 49 -70 101c-12.667 39.333 -20 83.666 -22 132.999c-1.33301 32 4 62 16 90c11.333 25.333 24.666 41.666 39.999 48.999c22 10.667 40.667 11 56 1v-44
c12 14 34 26.333 66 37c29.333 10 55 15 77 15c65.333 0 99.333 -15.667 102 -47h-110c-56.667 0 -102.334 -14.333 -137.001 -43c-36 -30.667 -54.333 -74 -55 -130z" />
    <glyph glyph-name="oslash" unicode="&#xf8;" horiz-adv-x="472" 
d="M180 -1c-53.333 4 -95.998 23.334 -127.998 58.001c-28.667 32 -42.667 68.333 -42 109c0.666992 56 19 99.333 55 130c34 28.667 79.667 43 137 43h110c-2.66699 31.333 -36.667 47 -102 47c-22 0 -47.667 -5 -77 -15c-32 -10.667 -54 -23 -66 -37v128
c43.333 28 102 41.333 176 40c73.333 -1.33301 127 -28.333 161 -81c24.667 -38.667 37 -89.667 37 -153c0 -10.667 -0.333008 -21.667 -1 -33h-189c-64 0 -97 -19.333 -99 -58s36.333 -58 115 -58c75.333 0 134.666 12.667 177.999 38v-102
c-6.66699 -5.33301 -18 -12.666 -34 -21.999c38.667 -13.333 58 -43 58 -89c0 -30 -11 -54.333 -33 -73c-38.667 -32 -104.667 -48.667 -198 -50c-86.667 -1.33301 -149 14.667 -187 48c-18.667 16 -28 39.667 -28 71c0 23.333 6.33301 39.666 19 48.999h123
c-10 -16 -9.16699 -29.833 2.5 -41.5s39.167 -16.834 82.5 -15.501c51.333 1.33301 75.666 12.666 72.999 33.999c-2 14.667 -13.333 25.334 -34 32.001c-40.667 -1.33301 -77 -1 -109 1z" />
    </font>
</defs>
</svg>
